<?xml version="1.0" encoding="utf-8"?>
<!-- Generator: Adobe Illustrator 27.1.1, SVG Export Plug-In . SVG Version: 6.00 Build 0)  -->
<svg version="1.1" id="Слой_1" xmlns="http://www.w3.org/2000/svg" xmlns:xlink="http://www.w3.org/1999/xlink" x="0px" y="0px"
	 viewBox="0 0 159.8 159.8" style="enable-background:new 0 0 159.8 159.8;" xml:space="preserve">
<style type="text/css">
	.st0{fill:#FFFFFF;}
</style>
<path class="st0" d="M136.7,119.6c0,22.2-18,40.2-40.2,40.2c-11.6,0-22.7-5-30.4-13.8l-41-47.3c-1.7-2.1-2.5-4.8-1.9-7.5
	c0.6-3.4,3.4-6.2,6.7-6.8c0.6-0.1,1.3-0.2,1.9-0.2c2.6,0,5,1.1,6.8,3.2l1,1.1l12.8,14.8c0.7,0.8,1.8,1.1,2.9,0.7
	c1-0.4,1.6-1.3,1.6-2.4V34.3c0-4.8,3.6-8.8,8.2-9.1c2.5-0.2,4.8,0.7,6.7,2.4c1.8,1.6,2.8,4,2.8,6.5v50.8h3.1V35V23.2
	c0-2.5,1-4.7,2.8-6.5c1.8-1.6,4.1-2.6,6.7-2.4c4.6,0.3,8.2,4.3,8.2,9.1v44.8v16.4h3.1V68.3c0-2.5,1-4.7,2.8-6.5
	c1.8-1.6,4.1-2.6,6.7-2.4c4.6,0.3,8.2,4.3,8.2,9.1v16.1h3.1V75c0-2.5,1-4.7,2.8-6.5c1.8-1.6,4.1-2.6,6.7-2.4
	c4.6,0.3,8.2,4.3,8.2,9.1L136.7,119.6L136.7,119.6z M50.8,51.7v-9.6c-1.3-2.4-2.1-5.2-2.1-8.1c0-9.4,7.6-17,17-17c0.3,0,0.5,0,0.8,0
	l3.6,0.2l1.9-3c3.2-5,8.5-8,14.4-8c9.4,0,17,7.6,17,17c0,2.9-0.7,5.6-2,8v9.6c5-4.3,8.2-10.6,8.2-17.6C109.6,10.4,99.2,0,86.4,0
	c-8.3,0-15.5,4.3-19.6,10.9c-0.4,0-0.7,0-1.1,0C53,10.8,42.6,21.2,42.6,34C42.6,41.1,45.8,47.4,50.8,51.7z"/>
</svg>
