<svg width="16" height="6" viewBox="0 0 16 6" fill="none" xmlns="http://www.w3.org/2000/svg">
<path d="M15.9875 2.99C15.9875 3.27 15.7675 3.49 15.4875 3.49H1.6975L3.3475 5.14C3.5475 5.34 3.5475 5.65 3.3475 5.85C3.2475 5.95 3.11752 6 2.99752 6C2.87752 6 2.73752 5.95 2.64752 5.85L0.147516 3.35C0.147516 3.35 0.0675 3.25 0.0375 3.19C-0.0125 3.07 -0.0125 2.93 0.0375 2.81C0.0675 2.75 0.0975159 2.69 0.147516 2.65L2.64752 0.15C2.84752 -0.05 3.15751 -0.05 3.35751 0.15C3.55751 0.35 3.55751 0.66 3.35751 0.86L1.70751 2.51H15.4975C15.7775 2.51 15.9975 2.73 15.9975 3.01L15.9875 2.99Z" fill="black"/>
</svg>
