<?xml version="1.0" encoding="utf-8"?>
<!-- Generator: Adobe Illustrator 27.1.1, SVG Export Plug-In . SVG Version: 6.00 Build 0)  -->
<svg version="1.1" id="Слой_1" xmlns="http://www.w3.org/2000/svg" xmlns:xlink="http://www.w3.org/1999/xlink" x="0px" y="0px"
	 viewBox="0 0 16 6" style="enable-background:new 0 0 16 6;" xml:space="preserve">
<style type="text/css">
	.st0{fill:#FFFFFF;}
</style>
<path class="st0" d="M16,3c0,0.3-0.2,0.5-0.5,0.5H1.7l1.7,1.6c0.2,0.2,0.2,0.5,0,0.7C3.2,5.9,3.1,6,3,6C2.9,6,2.7,5.9,2.6,5.8
	L0.1,3.3c0,0-0.1-0.1-0.1-0.2C0,3.1,0,2.9,0,2.8c0-0.1,0.1-0.1,0.1-0.2l2.5-2.5c0.2-0.2,0.5-0.2,0.7,0c0.2,0.2,0.2,0.5,0,0.7
	L1.7,2.5h13.8C15.8,2.5,16,2.7,16,3L16,3z"/>
</svg>
