<?xml version="1.0" encoding="utf-8"?>
<!-- Generator: Adobe Illustrator 27.1.1, SVG Export Plug-In . SVG Version: 6.00 Build 0)  -->
<svg version="1.1" id="Слой_1" xmlns="http://www.w3.org/2000/svg" xmlns:xlink="http://www.w3.org/1999/xlink" x="0px" y="0px"
	 viewBox="0 0 16 6" style="enable-background:new 0 0 16 6;" xml:space="preserve">
<path d="M0,3c0-0.3,0.2-0.5,0.5-0.5h13.8l-1.6-1.6c-0.2-0.2-0.2-0.5,0-0.7C12.8,0.1,12.9,0,13,0c0.1,0,0.3,0.1,0.3,0.2l2.5,2.5
	c0,0,0.1,0.1,0.1,0.2C16,2.9,16,3.1,16,3.2c0,0.1-0.1,0.1-0.1,0.2l-2.5,2.5c-0.2,0.2-0.5,0.2-0.7,0c-0.2-0.2-0.2-0.5,0-0.7l1.6-1.6
	H0.5C0.2,3.5,0,3.3,0,3L0,3z"/>
</svg>
