<?xml version="1.0" encoding="utf-8"?>
<!-- Generator: Adobe Illustrator 27.1.1, SVG Export Plug-In . SVG Version: 6.00 Build 0)  -->
<svg version="1.1" id="Слой_1" xmlns="http://www.w3.org/2000/svg" xmlns:xlink="http://www.w3.org/1999/xlink" x="0px" y="0px"
	 viewBox="0 0 16 6" style="enable-background:new 0 0 16 6;" xml:space="preserve">
<style type="text/css">
	.st0{fill:#FFFFFF;}
</style>
<path class="st0" d="M0,3c0-0.3,0.2-0.5,0.5-0.5h13.8l-1.6-1.7c-0.2-0.2-0.2-0.5,0-0.7c0.2-0.2,0.5-0.2,0.7,0l2.5,2.5
	c0,0.1,0.1,0.1,0.1,0.2c0,0.1,0,0.3,0,0.3c0,0.1-0.1,0.2-0.1,0.2l-2.5,2.5C13.3,5.9,13.1,6,13,6c-0.1,0-0.2-0.1-0.4-0.2
	c-0.2-0.2-0.2-0.5,0-0.7l1.7-1.6H0.5C0.2,3.5,0,3.3,0,3L0,3z"/>
</svg>
