<?xml version="1.0" encoding="utf-8"?>
<!-- Generator: Adobe Illustrator 27.1.1, SVG Export Plug-In . SVG Version: 6.00 Build 0)  -->
<svg version="1.1" id="Слой_1" xmlns="http://www.w3.org/2000/svg" xmlns:xlink="http://www.w3.org/1999/xlink" x="0px" y="0px"
	 viewBox="0 0 342.6 159.8" style="enable-background:new 0 0 342.6 159.8;" xml:space="preserve">
<style type="text/css">
	.st0{fill:#FFFFFF;}
</style>
<g>
	<path class="st0" d="M207.8,74h13.9v8.9h-13.9v13.9h-8.9V82.9h-13.9V74h13.9V60.1h8.9V74z M342.6,50v59.8c0,27.6-22.4,50-50,50h0
		c-27.6,0-50-22.4-50-50V50c0-27.6,22.4-50,50-50h0C320.3,0,342.6,22.4,342.6,50z M302.2,38c0-5-4-9-9-9h-1.1c-5,0-9,4-9,9v32.7
		c0,5,4,9,9,9h1.1c5,0,9-4,9-9V38z M159.8,20v119.8c0,11-9,20-20,20H20c-11,0-20-9-20-20V20C0,9,9,0,20,0h119.8
		C150.8,0,159.8,9,159.8,20z M52.8,68.6c0-2.4-0.4-4.4-1.2-6.1c-0.8-1.7-2-3-3.5-3.9c-1.5-0.9-3.4-1.3-5.6-1.3c-2.2,0-4,0.4-5.6,1.3
		c-1.5,0.9-2.7,2.2-3.5,3.9c-0.8,1.7-1.2,3.7-1.2,6.1v22.5c0,2.4,0.4,4.4,1.2,6.1c0.8,1.7,2,3,3.5,3.9c1.5,0.9,3.4,1.3,5.5,1.3
		c2.2,0,4-0.4,5.6-1.3c1.5-0.9,2.7-2.2,3.5-3.9c0.8-1.7,1.2-3.7,1.2-6.1v-1.9h-5.9v1.9c0,1.2-0.2,2.2-0.5,3.1
		c-0.3,0.9-0.9,1.5-1.5,2c-0.7,0.4-1.5,0.7-2.4,0.7s-1.7-0.2-2.4-0.7c-0.7-0.4-1.2-1.1-1.5-2c-0.4-0.9-0.5-1.9-0.5-3.1V68.6
		c0-1.2,0.2-2.3,0.5-3.1c0.4-0.9,0.9-1.5,1.5-2c0.7-0.4,1.5-0.7,2.4-0.7s1.7,0.2,2.4,0.7c0.7,0.4,1.2,1.1,1.5,2
		c0.3,0.9,0.5,1.9,0.5,3.1v1.9h5.9V68.6z M76.7,57.7H55.2v5.5h7.9v38.9h5.8V63.2h7.9V57.7z M103.9,102.1l-6.5-19.9c0,0,0.1,0,0.1,0
		c1.7-0.8,3-2,3.9-3.6c0.9-1.6,1.3-3.4,1.3-5.6v-5.2c0-2.1-0.4-3.9-1.3-5.4c-0.9-1.5-2.2-2.7-3.9-3.4c-1.7-0.8-3.7-1.2-6.1-1.2h-4.6
		h-3.1H81v44.4h5.8V83.3h4.6c0.1,0,0.3,0,0.4,0l5.8,18.8H103.9z M127.6,96.6H115V57.7h-5.8v44.3h3.1h2.7h12.6V96.6z M94.6,63.8
		c-0.7-0.4-1.6-0.6-2.7-0.6h-5.1v14.6h5.1c1,0,1.9-0.2,2.7-0.6c0.7-0.4,1.3-0.9,1.7-1.7c0.4-0.7,0.6-1.6,0.6-2.7v-4.5
		c0-1.1-0.2-2-0.6-2.8C95.9,64.8,95.3,64.2,94.6,63.8z"/>
</g>
</svg>
