<svg width="297" height="20" viewBox="0 0 297 20" fill="none" xmlns="http://www.w3.org/2000/svg">
<path d="M11.3485 0.805364C12.5644 1.34227 13.7803 2.01341 14.5909 2.81878C15.5366 3.62415 16.2122 4.69797 16.7526 5.90602C17.293 7.11407 17.4281 8.45635 17.4281 9.93285C17.4281 11.4094 17.1579 12.6174 16.7526 13.9597C16.2122 15.1677 15.5366 16.2415 14.5909 17.0469C13.6452 17.8523 12.5644 18.5234 11.2134 19.0603C9.86239 19.5972 8.51138 19.7315 6.89016 19.7315H0V0H7.02527C8.51138 0.134228 9.99749 0.402681 11.3485 0.805364ZM6.89016 17.3154C7.97097 17.3154 9.05178 17.1811 9.99749 16.7785C10.9432 16.51 11.7538 15.9731 12.4293 15.302C13.1048 14.6308 13.6452 13.9597 14.0505 13.0201C14.4558 12.0805 14.5909 11.1409 14.5909 9.93285C14.5909 7.51675 13.9154 5.77179 12.5644 4.56374C11.2134 3.35569 9.32199 2.68455 6.89016 2.68455H2.97223V17.1811H6.89016V17.3154Z" fill="white"/>
<path d="M49.7172 2.81888H38.3687V8.45645H48.3662V11.0068H38.3687V17.3155H50.2576V20H35.3965V0.268555H49.7172V2.81888Z" fill="white"/>
<path d="M85.7889 19.8652H82.8167L71.3331 4.83175V19.8652H68.3608V0.133789H71.0629L82.8167 15.4357V0.133789H85.6538V19.8652H85.7889Z" fill="white"/>
<path d="M121.32 2.81834H114.025V19.8652H111.053V2.81834H103.757V0.133789H121.32V2.81834Z" fill="white"/>
<path d="M155.772 19.8652H152.394L150.638 15.4357H140.64L138.884 19.8652H135.506L143.748 0.133789H147.26L155.772 19.8652ZM149.557 12.8854L145.774 3.22103H145.369L141.451 12.8854H149.557Z" fill="white"/>
<path d="M184.818 0.805364C186.034 1.34227 187.25 2.01341 188.061 2.81878C189.006 3.62415 189.682 4.69797 190.222 5.90602C190.763 7.11407 190.898 8.45635 190.898 9.93285C190.898 11.4094 190.627 12.6174 190.222 13.9597C189.682 15.1677 189.006 16.2415 188.061 17.0469C187.115 17.8523 186.034 18.5234 184.683 19.0603C183.332 19.5972 181.981 19.7315 180.36 19.7315H173.334V0H180.36C181.981 0.134228 183.467 0.402681 184.818 0.805364ZM180.36 17.3154C181.441 17.3154 182.521 17.1811 183.467 16.7785C184.413 16.51 185.223 15.9731 185.899 15.302C186.574 14.6308 187.115 13.9597 187.52 13.0201C187.925 12.0805 188.061 11.1409 188.061 9.93285C188.061 7.51675 187.385 5.77179 186.034 4.56374C184.683 3.35569 182.792 2.68455 180.36 2.68455H176.442V17.1811H180.36V17.3154Z" fill="white"/>
<path d="M223.187 2.81888H211.838V8.45645H221.836V11.0068H211.838V17.3155H223.727V20H208.866V0.268555H223.187V2.81888Z" fill="white"/>
<path d="M253.451 0.671138C254.396 0.939594 255.207 1.4765 255.747 2.01342C256.423 2.55033 256.963 3.22146 257.234 4.02683C257.639 4.8322 257.774 5.77179 257.774 6.71138C257.774 8.18789 257.369 9.39593 256.558 10.3355C255.747 11.4093 254.667 12.0805 253.316 12.4832L258.449 19.7315H254.802L250.343 13.1543H244.939V19.7315H241.832V0H250.343C251.559 0.134228 252.64 0.268455 253.451 0.671138ZM250.208 10.7382C251.694 10.7382 252.775 10.3355 253.586 9.66439C254.396 8.99325 254.802 7.91943 254.802 6.71138C254.802 5.36911 254.396 4.42952 253.586 3.75838C252.775 3.08724 251.694 2.81878 250.343 2.81878H244.939V10.7382H250.208Z" fill="white"/>
<path d="M286.28 10.4693L293.035 0.133789H296.277V19.8652H293.305V4.69753H293.035L286.955 13.9592H285.469L279.39 4.69753H279.119V19.8652H276.282V0.133789H279.66L286.28 10.4693Z" fill="white"/>
</svg>
