<?xml version="1.0" encoding="utf-8"?>
<!-- Generator: Adobe Illustrator 27.1.1, SVG Export Plug-In . SVG Version: 6.00 Build 0)  -->
<svg version="1.1" id="Слой_1" xmlns="http://www.w3.org/2000/svg" xmlns:xlink="http://www.w3.org/1999/xlink" x="0px" y="0px"
	 viewBox="0 0 52 40" style="enable-background:new 0 0 52 40;" xml:space="preserve">
<style type="text/css">
	.st0{fill-rule:evenodd;clip-rule:evenodd;fill:#FFFFFF;}
</style>
<path class="st0" d="M41.3,35.5c8.9-5.8,12-17.2,7.8-26.6c-0.5-1.1-1.9-1.6-3-0.9l-2,1.3c-1.7,1.1-4,0.8-5.3-0.8
	C31.8,0.4,19.8-1.5,10.7,4.5c-8.9,5.9-12,17.2-7.8,26.6l0,0c0.5,1.1,1.9,1.5,3,0.9l2-1.3c1.7-1.1,4-0.8,5.3,0.8
	C20.1,39.6,32.2,41.5,41.3,35.5z M12.5,32.1c-1-1.2-2.7-1.4-4-0.6l-2,1.3c-1.6,1-3.7,0.4-4.4-1.3c-4.5-9.8-1.2-21.7,8.1-27.9
	c9.6-6.3,22.2-4.3,29.4,4.3c1,1.2,2.7,1.4,4,0.6l2-1.3c1.6-1,3.7-0.4,4.4,1.3c4.5,9.8,1.2,21.8-8.1,27.9
	C32.3,42.6,19.7,40.6,12.5,32.1z"/>
</svg>
