<svg xmlns="http://www.w3.org/2000/svg" fill="none" viewBox="0 0 120 92"><path fill="#fff" d="M96.672 83.46c-22.108 14.41-51.227 9.84-67.883-9.766a7.075 7.075 0 0 0-9.273-1.364l-4.674 3.059c-3.598 2.359-8.532.958-10.275-2.948-10.312-22.629-2.782-49.938 18.77-64.017 22.108-14.41 51.227-9.803 67.882 9.767a7.075 7.075 0 0 0 9.274 1.364l4.673-3.06c3.599-2.358 8.495-.958 10.276 2.949 10.312 22.592 2.782 49.974-18.77 64.016z"/><path fill="#000" d="M21.927 42.958c.333.147.667.331.89.552.26.221.445.516.593.848.149.332.186.7.186 1.106 0 .405-.075.737-.186 1.105-.148.332-.334.627-.593.848-.26.221-.557.405-.928.553-.37.147-.741.184-1.187.184H18.81v-5.418h1.93c.408.037.816.11 1.187.222zm-1.225 4.532c.297 0 .594-.036.853-.147.26-.074.483-.221.668-.405.186-.184.334-.369.445-.627.112-.258.149-.516.149-.847 0-.664-.186-1.143-.557-1.475-.37-.331-.89-.516-1.558-.516h-1.075v3.98h1.075v.037zM32.461 43.51h-3.116v1.549h2.745v.7h-2.745v1.732h3.265v.737h-4.08V42.81h3.931v.7zM42.365 48.191h-.816l-3.153-4.128v4.128h-.816v-5.418h.742l3.227 4.202v-4.202h.78v5.418h.036zM52.121 43.51h-2.003v4.681h-.816v-4.68h-2.003v-.738h4.822v.737zM61.58 48.191h-.928l-.482-1.216h-2.745l-.482 1.216h-.927l2.262-5.418h.965l2.337 5.418zm-1.707-1.916-1.038-2.654h-.111l-1.076 2.654h2.225zM69.555 42.958c.334.147.668.331.89.552.26.221.446.516.594.848.148.332.186.7.186 1.106 0 .405-.075.737-.186 1.105-.148.332-.334.627-.593.848-.26.221-.557.405-.928.553-.37.147-.742.184-1.187.184h-1.929v-5.418h1.93c.444.037.852.11 1.223.222zm-1.224 4.532c.297 0 .594-.036.853-.147.26-.074.483-.221.668-.405.186-.184.334-.369.445-.627.112-.258.149-.516.149-.847 0-.664-.186-1.143-.557-1.475-.37-.331-.89-.516-1.558-.516h-1.076v3.98h1.076v.037zM80.09 43.51h-3.116v1.549h2.745v.7h-2.745v1.732h3.265v.737h-4.08V42.81h3.931v.7zM88.4 42.92c.259.074.481.222.63.37.185.147.334.33.408.552.111.221.148.48.148.737 0 .405-.111.737-.334.995-.222.295-.52.48-.89.59l1.41 1.99H88.77l-1.224-1.806h-1.484v1.806h-.853v-5.418h2.337c.334.037.63.074.853.185zm-.891 2.765c.408 0 .705-.11.927-.295.223-.184.334-.48.334-.811 0-.368-.111-.627-.334-.81-.222-.185-.52-.259-.89-.259h-1.484v2.175h1.447zM97.413 45.611l1.855-2.838h.89v5.418h-.816v-4.165h-.074l-1.67 2.543h-.408l-1.669-2.543h-.074v4.165h-.779v-5.418h.927l1.818 2.838z"/></svg>