<svg width="94" height="72" viewBox="0 0 94 72" fill="none" xmlns="http://www.w3.org/2000/svg">
<g clip-path="url(#clip0_4548_5565)">
<path d="M75.7229 65.3889C58.4048 76.6768 35.5949 73.097 22.5483 57.7386C20.7467 55.6023 17.6376 55.1404 15.284 56.6704L11.6228 59.0666C8.80422 60.9142 4.93961 59.8172 3.57393 56.757C-4.50397 39.0313 1.39464 17.6391 18.2769 6.61108C35.5949 -4.67682 58.4048 -1.06815 71.4515 14.2614C73.2531 16.3978 76.3622 16.8597 78.7158 15.3296L82.377 12.9334C85.1955 11.0858 89.0311 12.1828 90.4258 15.243C98.5037 32.9399 92.6051 54.3897 75.7229 65.3889Z" fill="black"/>
<path d="M17.1727 33.6616C17.4343 33.7771 17.6958 33.9214 17.8701 34.0946C18.0735 34.2678 18.2188 34.4988 18.335 34.7586C18.4513 35.0184 18.4803 35.3071 18.4803 35.6247C18.4803 35.9423 18.4222 36.2021 18.335 36.4908C18.2188 36.7506 18.0735 36.9816 17.8701 37.1548C17.6667 37.328 17.4343 37.4723 17.1437 37.5878C16.8531 37.7033 16.5625 37.7322 16.2139 37.7322H14.7319V33.4884H16.2429C16.5625 33.5172 16.8822 33.575 17.1727 33.6616ZM16.2139 37.2125C16.4463 37.2125 16.6788 37.1836 16.8822 37.097C17.0856 37.0393 17.2599 36.9238 17.4052 36.7795C17.5505 36.6351 17.6667 36.4908 17.7539 36.2887C17.8411 36.0866 17.8701 35.8845 17.8701 35.6247C17.8701 35.1051 17.7248 34.7298 17.4343 34.4699C17.1437 34.2101 16.7369 34.0658 16.2139 34.0658H15.3712V37.1836H16.2139V37.2125Z" fill="white"/>
<path d="M25.4248 34.0946H22.984V35.3071H25.1342V35.8557H22.984V37.2125H25.541V37.7899H22.3447V33.5461H25.4248V34.0946Z" fill="white"/>
<path d="M33.1834 37.761H32.5442L30.0743 34.5277V37.761H29.4351V33.5172H30.0162L32.5442 36.8083V33.5172H33.1544V37.761H33.1834Z" fill="white"/>
<path d="M40.8253 34.0946H39.2562V37.761H38.6169V34.0946H37.0479V33.5172H40.8253V34.0946Z" fill="white"/>
<path d="M48.235 37.761H47.5086L47.1309 36.8083H44.9806L44.6029 37.761H43.8765L45.649 33.5172H46.4044L48.235 37.761ZM46.8984 36.2598L46.0848 34.1812H45.9976L45.155 36.2598H46.8984Z" fill="white"/>
<path d="M54.4821 33.6616C54.7436 33.7771 55.0051 33.9214 55.1794 34.0946C55.3828 34.2678 55.5281 34.4988 55.6444 34.7586C55.7606 35.0184 55.7896 35.3071 55.7896 35.6247C55.7896 35.9423 55.7315 36.2021 55.6444 36.4908C55.5281 36.7506 55.3828 36.9816 55.1794 37.1548C54.976 37.328 54.7436 37.4723 54.453 37.5878C54.1624 37.7033 53.8719 37.7322 53.5232 37.7322H52.0122V33.4884H53.5232C53.8719 33.5172 54.1915 33.575 54.4821 33.6616ZM53.5232 37.2125C53.7556 37.2125 53.9881 37.1836 54.1915 37.097C54.3949 37.0393 54.5692 36.9238 54.7145 36.7795C54.8598 36.6351 54.976 36.4908 55.0632 36.2887C55.1504 36.0866 55.1794 35.8845 55.1794 35.6247C55.1794 35.1051 55.0342 34.7298 54.7436 34.4699C54.453 34.2101 54.0462 34.0658 53.5232 34.0658H52.6805V37.1836H53.5232V37.2125Z" fill="white"/>
<path d="M62.7344 34.0946H60.2936V35.3071H62.4438V35.8557H60.2936V37.2125H62.8506V37.7899H59.6543V33.5461H62.7344V34.0946Z" fill="white"/>
<path d="M69.2431 33.6327C69.4465 33.6905 69.6208 33.8059 69.737 33.9214C69.8823 34.0369 69.9985 34.1812 70.0567 34.3545C70.1438 34.5277 70.1729 34.7298 70.1729 34.9318C70.1729 35.2494 70.0857 35.5092 69.9114 35.7113C69.737 35.9423 69.5046 36.0866 69.214 36.1732L70.3182 37.7322H69.5336L68.5747 36.3176H67.4125V37.7322H66.7441V33.4884H68.5747C68.8363 33.5172 69.0687 33.5461 69.2431 33.6327ZM68.5457 35.7979C68.8653 35.7979 69.0978 35.7113 69.2721 35.567C69.4465 35.4226 69.5336 35.1917 69.5336 34.9318C69.5336 34.6431 69.4465 34.4411 69.2721 34.2967C69.0978 34.1524 68.8653 34.0946 68.5747 34.0946H67.4125V35.7979H68.5457Z" fill="white"/>
<path d="M76.304 35.7402L77.7569 33.5172H78.4543V37.761H77.815V34.4988H77.7569L76.4493 36.4908H76.1297L74.8221 34.4988H74.764V37.761H74.1538V33.5172H74.8802L76.304 35.7402Z" fill="white"/>
</g>
<defs>
<clipPath id="clip0_4548_5565">
<rect width="94" height="72" fill="white"/>
</clipPath>
</defs>
</svg>
