<svg width="52" height="40" viewBox="0 0 52 40" fill="none" xmlns="http://www.w3.org/2000/svg">
<path fill-rule="evenodd" clip-rule="evenodd" d="M41.3075 35.4919C50.2209 29.6536 53.3351 18.2674 49.0715 8.87696C48.555 7.73756 47.1294 7.32598 46.0836 8.01517L44.0568 9.34876C42.3324 10.4757 40.0512 10.1358 38.7301 8.56273C31.8408 0.426243 19.7959 -1.48805 10.6525 4.50305C1.73777 10.3578 -1.37561 21.713 2.88807 31.119L2.89129 31.1262C3.39108 32.252 4.82473 32.6729 5.87575 31.9803L7.90256 30.6467C9.62704 29.5196 11.9084 29.8597 13.2295 31.433C20.118 39.5843 32.163 41.4842 41.3075 35.4919ZM12.4648 32.0773C11.469 30.8902 9.75055 30.6335 8.44965 31.4838L6.42603 32.8153C4.86816 33.8419 2.73211 33.2323 1.97727 31.5319C-2.48755 21.6821 0.772734 9.79503 10.1039 3.667C19.6759 -2.60541 32.2834 -0.600162 39.4946 7.91812C40.4903 9.10523 42.2088 9.3619 43.5097 8.51167L45.5333 7.18019C47.0912 6.15351 49.2112 6.7631 49.9821 8.46355C54.4469 18.2973 51.1866 30.2165 41.8555 36.3284C32.2834 42.6009 19.6759 40.6116 12.4648 32.0773Z" fill="#6D6D6D"/>
</svg>
