<?xml version="1.0" encoding="utf-8"?>
<!-- Generator: Adobe Illustrator 27.1.1, SVG Export Plug-In . SVG Version: 6.00 Build 0)  -->
<svg version="1.1" id="Слой_1" xmlns="http://www.w3.org/2000/svg" xmlns:xlink="http://www.w3.org/1999/xlink" x="0px" y="0px"
	 viewBox="0 0 71 22.6" style="enable-background:new 0 0 71 22.6;" xml:space="preserve">
<style type="text/css">
	.st0{opacity:0.5;fill:#AFAFAF;enable-background:new    ;}
	.st1{fill:#FFFFFF;}
</style>
<path class="st0" d="M1.6,6.8v0.8H0.9V0h0.7v3.7h0C1.8,3.4,2.1,3.2,2.4,3c0.3-0.2,0.6-0.2,1-0.2c0.4,0,0.7,0.1,1,0.2
	c0.3,0.1,0.6,0.3,0.8,0.5C5.4,3.7,5.5,4,5.6,4.2c0.1,0.3,0.2,0.6,0.2,1s-0.1,0.7-0.2,1C5.5,6.5,5.4,6.7,5.1,7
	C4.9,7.2,4.7,7.4,4.4,7.5c-0.3,0.1-0.6,0.2-1,0.2c-0.3,0-0.7-0.1-1-0.2C2.1,7.3,1.8,7.1,1.6,6.8L1.6,6.8z M5.1,5.2
	c0-0.3,0-0.5-0.1-0.7C4.9,4.3,4.8,4.1,4.6,3.9C4.5,3.7,4.3,3.6,4.1,3.5C3.8,3.4,3.6,3.3,3.3,3.3c-0.3,0-0.5,0-0.7,0.1
	C2.4,3.6,2.2,3.7,2,3.9C1.9,4,1.7,4.2,1.6,4.5C1.6,4.7,1.5,5,1.5,5.2s0,0.5,0.1,0.8C1.7,6.2,1.9,6.4,2,6.6S2.4,6.9,2.6,7
	c0.2,0.1,0.5,0.1,0.7,0.1c0.3,0,0.5,0,0.8-0.1c0.2-0.1,0.4-0.2,0.5-0.4C4.8,6.4,4.9,6.2,5,6C5.1,5.7,5.1,5.5,5.1,5.2z M8.9,6.8
	L8.9,6.8l1.5-4h0.7L8.8,8.8C8.6,9.1,8.4,9.4,8.2,9.6C8,9.9,7.7,10,7.3,10c-0.2,0-0.4,0-0.6-0.1l0.1-0.6c0.2,0.1,0.3,0.1,0.5,0.1
	c0.2,0,0.4-0.1,0.6-0.2C7.9,9,8,8.8,8.1,8.5l0.4-1l-2-4.7h0.8L8.9,6.8z"/>
<path class="st1" d="M17.2,12.3c-0.1,0-0.1-0.1,0-0.1h0.2c0.7,0,0.8-0.1,0.8-3.5V6.3c0-3.4-0.1-3.5-0.8-3.5h-0.3
	c-0.1,0-0.1-0.1,0-0.1c0.4,0,0.9,0,1.9,0c3.5,0,4.4,0,4.8,0c0.3,0,0.6,0,0.7,0c0,0.1,0,0.9,0.4,3.2L25,6.8c0,0.1-0.1,0.1-0.2,0
	l-0.1-0.9c-0.3-1.9-1.2-3.1-2.8-3.1h-2.2c-0.6,0-0.5,0-0.5,3.4v1.2h1.1c1.7,0,2.1-0.7,2.1-1.8V5.5c0-0.1,0.1-0.1,0.1,0
	c0,0.4-0.1,1.9-0.1,2.1c0,0.2,0.1,1.9,0.1,2.1c0,0.1-0.1,0.1-0.1,0V9.5c0-1.1-0.4-1.8-2.1-1.8h-1.1v1.1c0,3.4,0.1,3.5,0.7,3.5h0.5
	c0.1,0,0.1,0.1,0,0.1c-0.4,0-1.6,0-1.8,0C18.5,12.3,17.6,12.3,17.2,12.3z"/>
<path class="st1" d="M31.8,8.9c-0.7,0-2.1,0-2.5,0l-0.3,0.6c-0.2,0.6-0.5,1.4-0.5,2.1c0,0.5,0.3,0.7,0.8,0.7c0.1,0,0.3,0,0.4,0
	c0.1,0,0.1,0,0.1,0.1c0,0,0,0.1-0.2,0.1c-0.3,0-1.4,0-1.6,0c-0.2,0-0.8,0-1.1,0c0,0-0.1,0-0.1-0.1c0,0,0,0,0.1,0h0
	c0.4,0,0.7-0.3,1-0.8c0.3-0.6,0.7-1.4,0.9-2l2.7-6.7c0,0,0,0,0.1,0h0.2c0.1,0,0.1,0,0.1,0l2.5,6c1.4,3.3,1.6,3.5,2.2,3.5h0.1
	c0.1,0,0.1,0,0.1,0c0,0,0,0-0.1,0c-0.4,0-1.2,0-1.4,0s-1.3,0-1.7,0c-0.1,0-0.2-0.1,0-0.1H34c0.6,0,0.7-0.3-0.6-3.3L31.8,8.9z
	 M31.3,3.9l-2,4.9h2.4h1.7L31.3,3.9z"/>
<path class="st1" d="M38.4,2.8c-0.1,0-0.1-0.1,0-0.1c1.4,0,2,0,2.1,0c0.1,0,0.1,0,0.1,0.1c0.1,0.2,0.3,0.5,0.6,0.7l5.8,7.2V6.3
	c0-3.4-0.9-3.5-1.6-3.5h-0.2c-0.1,0-0.1-0.1,0-0.1c0.4,0,1.7,0,1.9,0c0.2,0,0.7,0,1.1,0c0.1,0,0.1,0.1,0,0.1H48
	c-0.7,0-0.9,0.1-0.9,3.5v5.9c0,0.1,0,0.1-0.1,0.1c-0.1,0-0.3-0.2-0.3-0.3l-6.7-8.4v5c0,3.4,0.8,3.5,1.4,3.5h0.2c0.1,0,0.1,0.1,0,0.1
	c-0.4,0-1.6,0-1.8,0c-0.2,0-0.8,0-1.1,0c-0.1,0-0.1-0.1,0-0.1h0.1c0.6,0,1-0.2,1-3.5v-5c0-0.1,0-0.3-0.2-0.4
	C39.2,2.9,38.9,2.8,38.4,2.8L38.4,2.8L38.4,2.8z"/>
<path class="st1" d="M55.7,12.3c2.3,0,3.4-1.5,3.6-3.7h0.1l-0.2,3.2c-0.8,0.3-2,0.6-3.5,0.6c-3,0-5.3-2.1-5.3-5
	c0-2.9,2.5-4.9,5.3-4.9c1.1,0,2.7,0.3,3.5,0.6l0.2,3h-0.1C59.1,4,58,2.6,55.8,2.6c-2.5,0-4.1,2-4.1,4.8
	C51.7,10.4,53.2,12.3,55.7,12.3z"/>
<path class="st1" d="M66.7,7.9v0.8c0,3.4,0.1,3.5,0.8,3.5h0.3c0.1,0,0.1,0.1,0,0.1c-0.4,0-1.3,0-1.5,0c-0.2,0-1.1,0-1.5,0
	c-0.1,0-0.1-0.1,0-0.1h0.3c0.7,0,0.8-0.1,0.8-3.5V8l-1.5-2.7c-1.1-2-1.4-2.4-2.1-2.4h-0.1c-0.1,0-0.1,0-0.1,0c0,0,0-0.1,0.1-0.1
	c0.4,0,1.1,0,1.4,0c0.2,0,1.3,0,1.7,0c0.1,0,0.2,0.1,0,0.1h-0.3c-0.7,0-0.5,0.6,0.6,2.5l1.3,2.4l1.5-2.5c0.3-0.6,1.2-2.4-0.2-2.4
	c-0.1,0-0.3,0-0.4,0c-0.1,0-0.1,0-0.1-0.1c0,0,0-0.1,0.2-0.1c0.3,0,1.2,0,1.4,0c0.2,0,1.2,0,1.5,0c0.1,0,0.1,0.1,0,0.1h0
	c-0.8,0-2,1.9-2.3,2.4L66.7,7.9z"/>
<path class="st1" d="M21.3,22.3c-0.3,0-0.8,0-1.2,0c-0.3,0-0.6,0-0.9,0l-2,0c-0.2,0-0.2-0.1,0-0.1c0.8,0,0.9-0.1,1.1-1.9
	c0.1-0.9,0-2.9,0-3.5c0-0.6,0-2,0-2.8c0-1.3,0-1.3-0.9-1.3c-0.1,0-0.1-0.1,0-0.1c0.1,0,1.5,0,1.7,0c0.2,0,1.9,0,2.2,0
	c2.8,0,5.3,2,5.3,4.8C26.5,20.4,24.2,22.3,21.3,22.3z M21.2,12.8h-0.9c-0.9,0-1,0.1-1,3.5v3.8c0,1.1,0,1.8-0.1,2c0.3,0,1.4,0,2.1,0
	c2.5,0,4-1.8,4-4.7C25.3,14.7,23.7,12.8,21.2,12.8z"/>
<path class="st1" d="M29.6,17.3h1.1c1.7,0,2.1-0.6,2.1-1.6v-0.3c0-0.1,0.1-0.1,0.1,0c0,0.4-0.1,1.8-0.1,2c0,0.2,0.1,1.7,0.1,1.9
	c0,0.1-0.1,0.1-0.1,0V19c0-1-0.4-1.6-2.1-1.6h-1.1v2.7c0,1.1,0,1.8-0.1,2c0.4,0,2.2,0,2.6,0c1.6,0,2.8-1.4,2.9-2.8l0.1-0.7
	c0-0.1,0.2-0.1,0.2,0l-0.1,0.8c-0.3,2.3-0.3,2.8-0.4,2.9c0,0-0.9,0-1.9,0c-0.5,0-1.4,0-2.1,0c-0.4,0-0.9,0-1.4,0l-2,0
	c-0.2,0-0.2-0.1,0-0.1c0.8,0,0.9-0.1,1.1-1.9c0.1-1,0-2.8,0-4.1c0-3.4-0.1-3.5-0.8-3.5h-0.3c-0.1,0-0.1-0.1,0-0.1c0.4,0,1.3,0,1.5,0
	c0.2,0,4.4,0,4.9,0c0.3,0,0.6,0,0.6,0c0.1,0,0.2,1.1,0.4,2.5l0,0.5c0,0.1-0.1,0.1-0.1,0l-0.1-0.5c-0.3-1.6-1.3-2.4-2.9-2.5h-1.8
	c-0.6,0-0.5,0-0.5,3.4L29.6,17.3L29.6,17.3z"/>
<path class="st1" d="M42.4,13c0.1,0,0.1,0,0.2,0.2c0,0.3-0.1,1.2-0.1,3.4c0,0.2-0.1,0.2-0.1,0c0-2.2-0.4-3.8-3-3.8
	c-1.7,0-2.4,0.8-2.4,1.9c0,1.3,1.4,1.9,2.8,2.5c1.4,0.6,2.9,1.2,2.9,2.8c0,1.6-1.4,2.7-3,2.7c-1.5,0-2.2-0.2-3.2-0.4
	c-0.1,0-0.1,0-0.1-0.1c0-0.6,0-2.9,0-3.6c0-0.2,0.2-0.2,0.2,0c0,2.6,0.9,4,3.2,4c1.5,0,2.2-0.8,2.2-1.9c0-1.4-1.4-1.9-2.8-2.5
	c-1.5-0.6-3-1.3-3-2.8c0-1.7,1.5-2.6,3.3-2.6C40.8,12.6,41.6,12.8,42.4,13z"/>
<path class="st1" d="M44.8,16.3c0-3.4-0.1-3.5-0.8-3.5h-0.3c-0.1,0-0.1-0.1,0-0.1c0.4,0,1.4,0,1.6,0c0.2,0,1.2,0,1.6,0
	c0.1,0,0.1,0.1,0,0.1h-0.3c-0.7,0-0.8,0.1-0.8,3.5v2.4c0,3.4,0.1,3.5,0.8,3.5h0.3c0.1,0,0.1,0.1,0,0.1c-0.4,0-1.4,0-1.6,0
	c-0.2,0-1.2,0-1.6,0c-0.1,0-0.1-0.1,0-0.1H44c0.7,0,0.8-0.1,0.8-3.5V16.3z"/>
<path class="st1" d="M49.1,17.6c0,2.8,1.4,4.8,4,4.8c1.2,0,2-0.3,2.8-0.8c0-0.1,0-0.3,0-1.8c0-0.7,0-1.4,0-1.6
	c-0.3-0.1-0.6-0.1-1.1-0.1c-0.6,0-2,0-3,0c-0.1,0-0.1-0.1,0-0.1c1,0,3.1,0,5.1-0.2c0,0,0.1,0,0.1,0.1c0,1.3,0,2.8,0,4.5
	c0,0.1,0,0.1-0.1,0c-0.2-0.2-0.6-0.4-0.8-0.4c-0.6,0-1.6,0.5-2.9,0.5c-3,0-5.3-2.1-5.3-5c0-2.9,2.5-5,5.3-5c1.1,0,2.7,0.3,3.5,0.6
	l0.2,3c0,0.1-0.1,0.1-0.1,0c-0.2-2.3-1.4-3.4-3.5-3.4C50.6,12.7,49.1,14.7,49.1,17.6z"/>
<path class="st1" d="M57.9,12.8c-0.1,0-0.1-0.1,0-0.1c1.4,0,2,0,2.1,0c0.1,0,0.1,0,0.1,0.1c0.1,0.2,0.3,0.5,0.6,0.7l5.8,7.2v-4.3
	c0-3.4-0.9-3.5-1.6-3.5h-0.2c-0.1,0-0.1-0.1,0-0.1c0.4,0,1.7,0,1.9,0c0.2,0,0.7,0,1.1,0c0.1,0,0.1,0.1,0,0.1h-0.1
	c-0.7,0-0.9,0.1-0.9,3.5v5.9c0,0.1,0,0.1-0.1,0.1c-0.1,0-0.3-0.2-0.3-0.3l-6.7-8.4v5c0,3.4,0.8,3.5,1.4,3.5h0.2c0.1,0,0.1,0.1,0,0.1
	c-0.4,0-1.6,0-1.8,0c-0.2,0-0.7,0-1.1,0c-0.1,0-0.1-0.1,0-0.1h0.1c0.6,0,1-0.2,1-3.5v-5c0-0.1,0-0.3-0.2-0.4
	C58.7,13,58.4,12.8,57.9,12.8L57.9,12.8L57.9,12.8z"/>
</svg>
