<?xml version="1.0" encoding="UTF-8"?>
<svg id="_Слой_2" data-name="Слой 2" xmlns="http://www.w3.org/2000/svg" xmlns:xlink="http://www.w3.org/1999/xlink" viewBox="0 0 1376.13 1379.91">
  <defs>
    <style>
      .cls-1 {
        stroke: #cfdce7;
      }

      .cls-1, .cls-2, .cls-3, .cls-4, .cls-5, .cls-6, .cls-7, .cls-8, .cls-9, .cls-10 {
        fill: none;
      }

      .cls-1, .cls-2, .cls-3, .cls-4, .cls-6, .cls-7, .cls-8, .cls-9, .cls-10 {
        stroke-miterlimit: 10;
      }

      .cls-2 {
        stroke: #d7e2eb;
      }

      .cls-3 {
        stroke: #cad8e3;
      }

      .cls-4 {
        stroke: #dfeaf2;
      }

      .cls-11 {
        clip-path: url(#clippath);
      }

      .cls-6 {
        stroke: #d8e4ec;
      }

      .cls-7 {
        stroke: #dae6ef;
      }

      .cls-8 {
        stroke: #d3dfea;
      }

      .cls-9 {
        stroke: #d2dee9;
      }

      .cls-10 {
        stroke: #dce7f0;
      }

      .cls-12 {
        fill: #e4eff7;
      }
    </style>
    <clipPath id="clippath">
      <rect class="cls-5" width="1376.13" height="1379.91"/>
    </clipPath>
  </defs>
  <g id="_Слой_1-2" data-name="Слой 1">
    <g>
      <rect class="cls-12" width="1376.13" height="1379.91"/>
      <g class="cls-11">
        <g>
          <path class="cls-4" d="m699.87,1379.91c-52.05,0-104.21-5.85-155.03-17.38-27.36-6.21-54.61-14.15-81.14-23.65-22.83-5.73-45.44-12.75-67.36-20.92-46.97-17.51-91.89-40.6-133.49-68.64-98.28-66.24-175.92-158.34-224.54-266.34h0C-29.54,832.41-41.84,662.01,3.67,503.15,49.77,342.21,152.25,202.95,292.23,111.02l.49-.32C407.02,35.8,539.63-3.79,676.22-3.79c52.03,0,104.17,5.84,154.96,17.37,27.35,6.2,54.6,14.14,81.13,23.63,22.7,5.7,45.19,12.67,67,20.79,46.85,17.42,91.65,40.4,133.16,68.29,98.13,65.93,175.8,157.64,224.6,265.21h0c68.49,150.9,81.07,321.85,35.41,481.34-46.16,161.28-148.87,300.72-289.22,392.65-114.22,74.85-246.81,114.42-383.4,114.42Z"/>
          <path class="cls-10" d="m699.87,1215.2c-39.81,0-79.7-4.47-118.58-13.3-23.6-5.36-47-12.37-69.72-20.89-19.59-4.57-38.95-10.4-57.71-17.39-34.82-12.98-68.12-30.1-98.96-50.89-72.85-49.1-130.4-117.37-166.43-197.42-51.86-115.09-61.25-245.35-26.47-366.8,35.25-123.04,113.6-229.52,220.64-299.81l.36-.24c87.4-57.27,188.79-87.54,293.21-87.54,39.79,0,79.67,4.47,118.53,13.28,23.59,5.35,46.99,12.36,69.71,20.88,19.49,4.54,38.77,10.34,57.45,17.29,34.72,12.91,67.94,29.95,98.72,50.63,72.75,48.88,130.31,116.84,166.47,196.57h0c52.34,115.33,61.95,246,27.05,367.94-35.29,123.3-113.82,229.91-221.12,300.2-87.34,57.24-188.72,87.5-293.15,87.5Z"/>
          <path class="cls-7" d="m699.87,1088.45c-30.38,0-60.84-3.42-90.52-10.15-20.76-4.71-41.24-11.08-61.03-18.97-17.06-3.55-33.9-8.41-50.19-14.48-25.46-9.49-49.82-22.01-72.38-37.22-53.27-35.91-95.35-85.81-121.68-144.33h0c-39.58-87.8-46.75-187.2-20.2-279.88,26.89-93.88,86.69-175.12,168.36-228.76l.25-.17c66.7-43.71,144.06-66.81,223.73-66.81,30.37,0,60.81,3.41,90.49,10.14,20.76,4.71,41.24,11.07,61.02,18.96,16.99,3.54,33.76,8.36,49.99,14.4,25.4,9.45,49.69,21.91,72.21,37.04,53.21,35.75,95.3,85.45,121.74,143.74h0c39.92,87.96,47.24,187.64,20.61,280.68-26.93,94.07-86.84,175.42-168.71,229.04-66.66,43.68-144.01,66.77-223.69,66.77Z"/>
          <path class="cls-6" d="m699.87,991.18c-23.15,0-46.36-2.6-68.99-7.74-18.68-4.24-36.96-10.2-54.5-17.77-15.08-2.61-29.93-6.62-44.27-11.96-18.29-6.82-35.78-15.81-51.99-26.74-38.26-25.79-68.47-61.63-87.36-103.64-30.13-66.85-35.59-142.54-15.37-213.13,20.48-71.5,66.03-133.38,128.25-174.24l.17-.11c50.81-33.3,109.74-50.9,170.42-50.9,23.14,0,46.35,2.6,68.97,7.73,18.68,4.24,36.96,10.2,54.49,17.76,15.03,2.6,29.82,6.59,44.13,11.91,18.24,6.78,35.69,15.74,51.87,26.61,38.21,25.67,68.44,61.36,87.41,103.2h0c30.39,66.95,35.95,142.85,15.67,213.71-20.51,71.65-66.14,133.6-128.5,174.44-50.78,33.28-109.71,50.87-170.4,50.87Z"/>
          <path class="cls-2" d="m699.87,916.28c-35.35,0-70.39-7.97-102.1-23.15-27.07-3.27-53.03-12.93-75.8-28.27-26.7-18-47.77-42.99-60.94-72.29-22.86-50.72-27-108.16-11.66-161.74,15.55-54.27,50.12-101.24,97.36-132.26l.11-.07c38.58-25.28,83.31-38.64,129.37-38.64,35.35,0,70.37,7.97,102.08,23.13,26.98,3.26,52.88,12.87,75.61,28.14,26.67,17.92,47.75,42.81,60.97,71.99,23.05,50.78,27.26,108.36,11.86,162.14-15.56,54.38-50.2,101.4-97.53,132.4-38.56,25.27-83.29,38.63-129.36,38.63Z"/>
          <path class="cls-8" d="m699.87,858.66c-30.28,0-59.71-7.57-85.97-21.99-43.4-1.74-82.43-27.93-100.31-67.72-17.3-38.33-20.43-81.74-8.82-122.26,11.75-41.01,37.89-76.52,73.6-99.97l.07-.04c29.17-19.11,62.98-29.22,97.79-29.22,30.27,0,59.7,7.56,85.96,21.98,43.26,1.73,82.26,27.81,100.23,67.45,17.4,38.33,20.59,81.85,8.95,122.51-11.76,41.09-37.94,76.63-73.71,100.06-29.16,19.11-62.97,29.21-97.79,29.21Z"/>
          <path class="cls-9" d="m699.87,814.27c-26.57,0-52.29-7.81-74.12-22.27-2.39.24-4.81.37-7.25.37-27.79,0-53.08-16.34-64.43-41.63-12.99-28.77-15.35-61.38-6.63-91.82,8.82-30.8,28.46-57.47,55.29-75.09l.03-.02c21.92-14.36,47.32-21.96,73.45-21.96s52.29,7.81,74.12,22.25c2.4-.24,4.82-.37,7.26-.37,27.68,0,52.95,16.28,64.37,41.47,13.06,28.76,15.45,61.43,6.71,91.96-8.83,30.86-28.49,57.54-55.35,75.14-21.91,14.36-47.31,21.95-73.46,21.95Z"/>
          <path class="cls-1" d="m699.87,780.04c-24.7,0-48.21-9.02-66.34-25.14-4.69,2.13-9.8,3.24-15.02,3.24-14.35,0-27.38-8.42-33.21-21.45-9.68-21.4-11.43-45.67-4.94-68.34,6.57-22.92,21.19-42.78,41.17-55.9,16.34-10.71,35.24-16.36,54.69-16.36,24.7,0,48.22,9.02,66.37,25.13,4.69-2.13,9.8-3.24,15.02-3.24,14.28,0,27.31,8.39,33.19,21.37,9.71,21.39,11.48,45.69,4.98,68.42-6.57,22.97-21.2,42.83-41.2,55.92-16.32,10.7-35.24,16.35-54.7,16.35Z"/>
          <path class="cls-3" d="m740.08,741.57c-31.37,20.55-72.68,14.04-96.31-13.93-3.26-3.89-8.89-4.73-13.16-1.95l-6.63,4.36c-5.11,3.36-12.1,1.37-14.58-4.21-14.63-32.28-3.95-71.23,26.63-91.31,31.37-20.55,72.68-13.98,96.31,13.93,3.26,3.89,8.89,4.73,13.16,1.95l6.63-4.36c5.1-3.36,12.05-1.37,14.58,4.21,14.63,32.22,3.95,71.28-26.63,91.31Z"/>
        </g>
      </g>
    </g>
  </g>
</svg>