<?xml version="1.0" encoding="utf-8"?>
<!-- Generator: Adobe Illustrator 27.1.1, SVG Export Plug-In . SVG Version: 6.00 Build 0)  -->
<svg version="1.1" id="_Слой_2" xmlns="http://www.w3.org/2000/svg" xmlns:xlink="http://www.w3.org/1999/xlink" x="0px"
	 y="0px" viewBox="0 0 1379.1 1379.9" style="enable-background:new 0 0 1379.1 1379.9;" xml:space="preserve">
<style type="text/css">
	.st0{clip-path:url(#SVGID_00000044894010543191640970000000451091742930928799_);}
	.st1{fill:url(#SVGID_00000082357756811736938510000003539565646325181320_);}
	.st2{fill:url(#SVGID_00000075147088434948561730000001732498100098722995_);}
	.st3{clip-path:url(#SVGID_00000029031995751550011810000002195502930795801262_);}
	.st4{fill:#FFFFFF;filter:url(#Adobe_OpacityMaskFilter);}
	.st5{mask:url(#mask0_5142_11977_00000115474277935862891360000011437119717886322592_);}
	.st6{fill:none;stroke:#FFFFFF;stroke-miterlimit:10;stroke-opacity:0.2;}
</style>
<g>
	<defs>
		<rect id="SVGID_1_" x="-2" y="0" width="1381" height="1380"/>
	</defs>
	<clipPath id="SVGID_00000152963933937408966460000010436893787276387493_">
		<use xlink:href="#SVGID_1_"  style="overflow:visible;"/>
	</clipPath>
	<g style="clip-path:url(#SVGID_00000152963933937408966460000010436893787276387493_);">
		
			<linearGradient id="SVGID_00000003803593050545365070000000525907905451672501_" gradientUnits="userSpaceOnUse" x1="-17.8115" y1="1599.589" x2="879.7914" y2="-46.699" gradientTransform="matrix(1 0 0 -1 262.01 1466.4)">
			<stop  offset="0" style="stop-color:#B0F3F0"/>
			<stop  offset="0.37" style="stop-color:#80E2C6"/>
			<stop  offset="1" style="stop-color:#188396"/>
		</linearGradient>
		<rect y="0" style="fill:url(#SVGID_00000003803593050545365070000000525907905451672501_);" width="1386" height="1380"/>
		
			<radialGradient id="SVGID_00000018204679096927880540000008225748767795813803_" cx="4.9363" cy="1073.9514" r="1" gradientTransform="matrix(453.0118 834.3266 895.8619 -486.4235 -964098.3125 518743.875)" gradientUnits="userSpaceOnUse">
			<stop  offset="0" style="stop-color:#FA64E6;stop-opacity:0.51"/>
			<stop  offset="1" style="stop-color:#FA64E6;stop-opacity:0"/>
		</radialGradient>
		<path style="fill:url(#SVGID_00000018204679096927880540000008225748767795813803_);" d="M-202.9-367.1
			C291.9-635.8,895.8-480,1146-19.2s51.9,1052.1-442.9,1320.8S-395.5,1414.4-645.7,953.6S-697.7-98.5-202.9-367.1z"/>
		<g>
			<defs>
				<rect id="SVGID_00000043444638031222330740000017592262081531212723_" y="0" width="1376.1" height="1379.9"/>
			</defs>
			<clipPath id="SVGID_00000003808312834701200390000008010661047675367040_">
				<use xlink:href="#SVGID_00000043444638031222330740000017592262081531212723_"  style="overflow:visible;"/>
			</clipPath>
			<g style="clip-path:url(#SVGID_00000003808312834701200390000008010661047675367040_);">
				<defs>
					<filter id="Adobe_OpacityMaskFilter" filterUnits="userSpaceOnUse" x="-23.8" y="-4.3" width="1423.8" height="1384.7">
						<feColorMatrix  type="matrix" values="1 0 0 0 0  0 1 0 0 0  0 0 1 0 0  0 0 0 1 0"/>
					</filter>
				</defs>
				
					<mask maskUnits="userSpaceOnUse" x="-23.8" y="-4.3" width="1423.8" height="1384.7" id="mask0_5142_11977_00000115474277935862891360000011437119717886322592_">
					<path class="st4" d="M1376.1,0H0v1379.9h1376.1V0z"/>
				</mask>
				<g class="st5">
					<path class="st6" d="M699.9,1379.9c-52,0-104.2-5.8-155-17.4c-27.4-6.2-54.6-14.2-81.1-23.7c-22.8-5.7-45.4-12.8-67.4-20.9
						c-47-17.5-91.9-40.6-133.5-68.6C164.6,1183,86.9,1090.9,38.3,982.9C-29.5,832.4-41.8,662,3.7,503.1
						C49.8,342.2,152.2,202.9,292.2,111l0.5-0.3C407,35.8,539.6-3.8,676.2-3.8c52,0,104.2,5.8,155,17.4
						c27.4,6.2,54.6,14.1,81.1,23.6c22.7,5.7,45.2,12.7,67,20.8c46.9,17.4,91.6,40.4,133.2,68.3c98.1,65.9,175.8,157.6,224.6,265.2
						c68.5,150.9,81.1,321.8,35.4,481.3c-46.2,161.3-148.9,300.7-289.2,392.7C969,1340.3,836.5,1379.9,699.9,1379.9L699.9,1379.9z"
						/>
					<path class="st6" d="M699.9,1215.2c-39.8,0-79.7-4.5-118.6-13.3c-23.6-5.4-47-12.4-69.7-20.9c-19.6-4.6-39-10.4-57.7-17.4
						c-34.8-13-68.1-30.1-99-50.9c-72.9-49.1-130.4-117.4-166.4-197.4c-51.9-115.1-61.2-245.3-26.5-366.8
						c35.2-123,113.6-229.5,220.6-299.8l0.4-0.2c87.4-57.3,188.8-87.5,293.2-87.5c39.8,0,79.7,4.5,118.5,13.3
						c23.6,5.4,47,12.4,69.7,20.9c19.5,4.5,38.8,10.3,57.5,17.3c34.7,12.9,67.9,30,98.7,50.6c72.8,48.9,130.3,116.8,166.5,196.6
						c52.3,115.3,62,246,27.1,367.9c-35.3,123.3-113.8,229.9-221.1,300.2C905.7,1184.9,804.3,1215.2,699.9,1215.2L699.9,1215.2z"/>
					<path class="st6" d="M699.9,1088.4c-30.4,0-60.8-3.4-90.5-10.1c-20.8-4.7-41.2-11.1-61-19c-17.1-3.5-33.9-8.4-50.2-14.5
						c-25.5-9.5-49.8-22-72.4-37.2c-53.3-35.9-95.4-85.8-121.7-144.3c-39.6-87.8-46.8-187.2-20.2-279.9
						c26.9-93.9,86.7-175.1,168.4-228.8l0.2-0.2c66.7-43.7,144.1-66.8,223.7-66.8c30.4,0,60.8,3.4,90.5,10.1
						c20.8,4.7,41.2,11.1,61,19c17,3.5,33.8,8.4,50,14.4c25.4,9.5,49.7,21.9,72.2,37c53.2,35.8,95.3,85.5,121.7,143.7
						c39.9,88,47.2,187.6,20.6,280.7c-26.9,94.1-86.8,175.4-168.7,229C856.9,1065.3,779.6,1088.4,699.9,1088.4z"/>
					<path class="st6" d="M699.9,991.1c-23.2,0-46.4-2.6-69-7.7c-18.7-4.2-37-10.2-54.5-17.8c-15.1-2.6-29.9-6.6-44.3-12
						c-18.3-6.8-35.8-15.8-52-26.7c-38.3-25.8-68.5-61.6-87.4-103.6c-30.1-66.9-35.6-142.5-15.4-213.1
						c20.5-71.5,66-133.4,128.2-174.2l0.2-0.1c50.8-33.3,109.7-50.9,170.4-50.9c23.1,0,46.4,2.6,69,7.7c18.7,4.2,37,10.2,54.5,17.8
						c15,2.6,29.8,6.6,44.1,11.9c18.2,6.8,35.7,15.7,51.9,26.6c38.2,25.7,68.4,61.4,87.4,103.2c30.4,67,36,142.9,15.7,213.7
						c-20.5,71.7-66.1,133.6-128.5,174.4C819.5,973.5,760.6,991.1,699.9,991.1z"/>
					<path class="st6" d="M699.9,916.2c-35.3,0-70.4-8-102.1-23.2c-27.1-3.3-53-12.9-75.8-28.3c-26.7-18-47.8-43-60.9-72.3
						c-22.9-50.7-27-108.2-11.7-161.7c15.6-54.3,50.1-101.2,97.4-132.3l0.1-0.1c38.6-25.3,83.3-38.6,129.4-38.6
						c35.3,0,70.4,8,102.1,23.1c27,3.3,52.9,12.9,75.6,28.1c26.7,17.9,47.7,42.8,61,72c23,50.8,27.3,108.4,11.9,162.1
						c-15.6,54.4-50.2,101.4-97.5,132.4C790.6,902.9,745.9,916.2,699.9,916.2L699.9,916.2z"/>
					<path class="st6" d="M699.9,858.6c-30.3,0-59.7-7.6-86-22c-43.4-1.7-82.4-27.9-100.3-67.7c-17.3-38.3-20.4-81.7-8.8-122.3
						c11.8-41,37.9-76.5,73.6-100l0.1,0c29.2-19.1,63-29.2,97.8-29.2c30.3,0,59.7,7.6,86,22c43.3,1.7,82.3,27.8,100.2,67.5
						c17.4,38.3,20.6,81.8,8.9,122.5c-11.8,41.1-37.9,76.6-73.7,100.1C768.5,848.5,734.7,858.6,699.9,858.6L699.9,858.6z"/>
					<path class="st6" d="M699.9,814.2c-26.6,0-52.3-7.8-74.1-22.3c-2.4,0.2-4.8,0.4-7.2,0.4c-27.8,0-53.1-16.3-64.4-41.6
						c-13-28.8-15.4-61.4-6.6-91.8c8.8-30.8,28.5-57.5,55.3-75.1l0,0c21.9-14.4,47.3-22,73.5-22s52.3,7.8,74.1,22.2
						c2.4-0.2,4.8-0.4,7.3-0.4c27.7,0,52.9,16.3,64.4,41.5c13.1,28.8,15.4,61.4,6.7,92c-8.8,30.9-28.5,57.5-55.3,75.1
						C751.4,806.6,726,814.2,699.9,814.2L699.9,814.2z"/>
					<path class="st6" d="M699.9,780c-24.7,0-48.2-9-66.3-25.1c-4.7,2.1-9.8,3.2-15,3.2c-14.3,0-27.4-8.4-33.2-21.5
						c-9.7-21.4-11.4-45.7-4.9-68.3c6.6-22.9,21.2-42.8,41.2-55.9c16.3-10.7,35.2-16.4,54.7-16.4c24.7,0,48.2,9,66.4,25.1
						c4.7-2.1,9.8-3.2,15-3.2c14.3,0,27.3,8.4,33.2,21.4c9.7,21.4,11.5,45.7,5,68.4c-6.6,23-21.2,42.8-41.2,55.9
						C738.3,774.3,719.3,780,699.9,780L699.9,780z"/>
					<path class="st6" d="M740.1,741.5c-31.4,20.5-72.7,14-96.3-13.9c-3.3-3.9-8.9-4.7-13.2-2L624,730c-5.1,3.4-12.1,1.4-14.6-4.2
						c-14.6-32.3-4-71.2,26.6-91.3c31.4-20.6,72.7-14,96.3,13.9c3.3,3.9,8.9,4.7,13.2,1.9l6.6-4.4c5.1-3.4,12-1.4,14.6,4.2
						C781.3,682.4,770.7,721.5,740.1,741.5z"/>
				</g>
			</g>
		</g>
	</g>
</g>
</svg>
