<?xml version="1.0" encoding="utf-8"?>
<!-- Generator: Adobe Illustrator 27.1.1, SVG Export Plug-In . SVG Version: 6.00 Build 0)  -->
<svg version="1.1" id="Слой_1" xmlns="http://www.w3.org/2000/svg" xmlns:xlink="http://www.w3.org/1999/xlink" x="0px" y="0px"
	 viewBox="0 0 20 20" style="enable-background:new 0 0 20 20;" xml:space="preserve">
<style type="text/css">
	.st0{fill:#FFFFFF;}
</style>
<path class="st0" d="M10,19c-0.2,0-0.3-0.1-0.4-0.2l-5.3-7c-0.8-1.2-1.2-2.5-1.2-3.9C3.1,4.1,6.2,1,10,1c3.8,0,6.9,3.1,6.9,6.9
	c0,1.4-0.4,2.7-1.2,3.9l-5.3,7C10.3,18.9,10.2,19,10,19L10,19z M10,2C6.7,2,4.1,4.6,4.1,7.9c0,1.2,0.3,2.3,1,3.3l4.9,6.5l4.9-6.5
	c0.7-1,1-2.1,1-3.3C15.9,4.6,13.2,2,10,2z M10,10.5c-1.4,0-2.6-1.2-2.6-2.6S8.6,5.3,10,5.3s2.6,1.2,2.6,2.6S11.4,10.5,10,10.5z
	 M10,6.3C9.1,6.3,8.4,7,8.4,7.9c0,0.9,0.7,1.6,1.6,1.6c0.9,0,1.6-0.7,1.6-1.6C11.6,7,10.9,6.3,10,6.3z"/>
</svg>
