<?xml version="1.0" encoding="utf-8"?>
<!-- Generator: Adobe Illustrator 27.1.1, SVG Export Plug-In . SVG Version: 6.00 Build 0)  -->
<svg version="1.1" id="_Слой_2" xmlns="http://www.w3.org/2000/svg" xmlns:xlink="http://www.w3.org/1999/xlink" x="0px"
	 y="0px" viewBox="0 0 18 18" style="enable-background:new 0 0 18 18;" xml:space="preserve">
<style type="text/css">
	.st0{fill:#FFFFFF;}
</style>
<path class="st0" d="M12.7,0H5.3C2.4,0,0,2.4,0,5.3v5c0,2.9,2.4,5.3,5.3,5.3h1.6c0.4,0,0.7,0.2,0.9,0.5l0.9,1.6
	C8.8,17.9,8.9,18,9,18s0.2-0.1,0.3-0.2l0.9-1.6c0.2-0.3,0.5-0.5,0.9-0.5h1.6c2.9,0,5.3-2.4,5.3-5.3v-5C18,2.4,15.6,0,12.7,0z"/>
<path d="M12.5,11.4c-2.1,1.4-4.9,1-6.5-0.9c-0.2-0.3-0.6-0.3-0.9-0.1l-0.4,0.3c-0.3,0.2-0.8,0.1-1-0.3c-1-2.2-0.3-4.8,1.8-6.2
	c2.1-1.4,4.9-0.9,6.5,0.9c0.2,0.3,0.6,0.3,0.9,0.1L13.3,5c0.3-0.2,0.8-0.1,1,0.3C15.3,7.4,14.6,10.1,12.5,11.4z"/>
</svg>
