<svg width="20" height="20" viewBox="0 0 20 20" fill="none" xmlns="http://www.w3.org/2000/svg">
<path d="M12.7233 18.2344C12.5733 18.2344 12.4233 18.2177 12.2733 18.1677C11.8816 18.0511 11.54 17.7927 11.3316 17.4427C11.3066 17.4011 11.2899 17.3594 11.2733 17.3094L9.18995 10.7511L2.58162 8.61774C2.53162 8.60107 2.48995 8.58441 2.44828 8.55941C1.68162 8.10107 1.43995 7.09274 1.89828 6.33441C2.11495 5.98441 2.44828 5.72607 2.84828 5.60941L16.2483 1.73441C16.665 1.60941 17.0983 1.65941 17.4816 1.86774C17.8649 2.07607 18.14 2.41774 18.265 2.83441C18.3566 3.14274 18.3566 3.45941 18.265 3.76774L14.2899 17.0677C14.0816 17.7761 13.4316 18.2344 12.7316 18.2344H12.7233ZM12.4316 16.8511C12.4816 16.9094 12.54 16.9511 12.615 16.9761C12.815 17.0261 13.0233 16.9177 13.0816 16.7177L17.0566 3.40941C17.0816 3.33441 17.0816 3.25941 17.0566 3.19274C17.0316 3.09274 16.965 3.01774 16.8733 2.96774C16.7816 2.91774 16.6816 2.90941 16.59 2.93441L3.18995 6.80941C3.09828 6.83441 3.01495 6.89274 2.96495 6.97607C2.86495 7.13441 2.90662 7.34274 3.04828 7.45941L9.88162 9.66774C10.0733 9.72607 10.2233 9.88441 10.2816 10.0761L12.4316 16.8511Z" fill="black"/>
</svg>
