<?xml version="1.0" encoding="utf-8"?>
<!-- Generator: Adobe Illustrator 27.1.1, SVG Export Plug-In . SVG Version: 6.00 Build 0)  -->
<svg version="1.1" id="Слой_1" xmlns="http://www.w3.org/2000/svg" xmlns:xlink="http://www.w3.org/1999/xlink" x="0px" y="0px"
	 viewBox="0 0 20 20" style="enable-background:new 0 0 20 20;" xml:space="preserve">
<path d="M4.5,18.4c-0.3,0-0.7-0.1-1-0.3c-0.6-0.4-1-1-1-1.7V2.8c0-0.7,0.4-1.4,1-1.7c0.6-0.4,1.4-0.4,2,0l11.8,6.8
	c0.6,0.4,1,1,1,1.7c0,0.7-0.4,1.4-1,1.7L5.5,18.2C5.2,18.3,4.8,18.4,4.5,18.4z M4.5,2.1c-0.2,0-0.3,0.1-0.4,0.1
	C4,2.3,3.8,2.4,3.8,2.8v13.6c0,0.4,0.3,0.6,0.4,0.6c0.1,0.1,0.4,0.2,0.7,0l11.8-6.8C17,10.1,17,9.8,17,9.6s0-0.4-0.4-0.6L4.8,2.2
	C4.7,2.1,4.6,2.1,4.5,2.1z"/>
</svg>
