<svg xmlns="http://www.w3.org/2000/svg" xmlns:xlink="http://www.w3.org/1999/xlink">
  <defs>
    <symbol viewBox="0 0 20 20" id="cancel">
      <path d="M15.85 15.16C16.05 15.36 16.05 15.67 15.85 15.87C15.75 15.97 15.62 16.02 15.5 16.02C15.38 16.02 15.24 15.97 15.15 15.87L9.50004 10.22L3.85001 15.87C3.75001 15.97 3.62004 16.02 3.50004 16.02C3.38004 16.02 3.24 15.97 3.15 15.87C2.95 15.67 2.95 15.36 3.15 15.16L8.80002 9.51L3.15 3.86C2.95 3.66 2.95 3.35 3.15 3.15C3.35 2.95 3.66002 2.95 3.86002 3.15L9.51005 8.8L15.16 3.15C15.36 2.95 15.67 2.95 15.87 3.15C16.07 3.35 16.07 3.66 15.87 3.86L10.22 9.51L15.87 15.16H15.85Z"/>
    </symbol>
    <symbol viewBox="0 0 20 20" id="check">
      <path d="M7.19004 15.33C7.06004 15.33 6.93 15.28 6.84 15.18L2.15 10.49C1.95 10.29 1.95 9.98 2.15 9.78C2.35 9.58 2.66002 9.58 2.86002 9.78L7.19004 14.11L17.15 4.15C17.35 3.95 17.66 3.95 17.86 4.15C18.06 4.35 18.06 4.66 17.86 4.86L7.55002 15.17C7.45002 15.27 7.32005 15.32 7.20005 15.32L7.19004 15.33Z"/>
    </symbol>
    <symbol viewBox="0 0 20 20" id="check-sm">
      <path fill-rule="evenodd" clip-rule="evenodd" d="M14.7211 7.27337C15.093 7.63786 15.093 8.22881 14.7211 8.5933L9.48295 13.7266C9.30435 13.9017 9.06211 14 8.80952 14C8.55693 14 8.31469 13.9017 8.13608 13.7266L5.27894 10.9266C4.90702 10.5621 4.90702 9.97118 5.27895 9.6067C5.65088 9.24221 6.25389 9.24221 6.62582 9.6067L8.80952 11.7467L13.3742 7.27337C13.7461 6.90888 14.3491 6.90888 14.7211 7.27337Z"/>
    </symbol>
    <symbol viewBox="0 0 20 20" id="star">
      <path d="M5.03195 18.09C4.82195 18.09 4.62192 18.03 4.44192 17.9C4.13192 17.67 3.9819 17.3 4.0419 16.92L4.89193 11.98L1.3019 8.48C1.0219 8.21 0.931905 7.82 1.0519 7.45C1.1719 7.09 1.4819 6.83 1.8619 6.77L6.82192 6.05L9.04189 1.56C9.21189 1.22 9.55192 1 9.94192 1C10.3219 1 10.6719 1.21 10.8419 1.56L13.0619 6.05L18.0219 6.77C18.4019 6.82 18.7119 7.09 18.8319 7.45C18.9519 7.81 18.8519 8.21 18.5819 8.48L14.9919 11.98L15.8419 16.92C15.9019 17.3 15.7519 17.67 15.4419 17.9C15.1319 18.12 14.7319 18.15 14.3919 17.98L9.96194 15.65L5.53195 17.98C5.38195 18.06 5.22191 18.1 5.06191 18.1L5.03195 18.09ZM9.93191 14.64C10.0919 14.64 10.2519 14.68 10.3919 14.75L14.8219 17.08L13.9719 12.14C13.9119 11.82 14.0219 11.48 14.2619 11.25L17.852 7.76L12.8919 7.04C12.5719 6.99 12.2819 6.79 12.1419 6.49L9.9219 2L7.71194 6.49C7.56194 6.79 7.28194 6.99 6.96194 7.04L2.00192 7.76L5.59194 11.26C5.83194 11.49 5.93192 11.82 5.88192 12.14L5.03195 17.08L9.46194 14.75C9.61194 14.67 9.7619 14.63 9.9219 14.63L9.93191 14.64Z"/>
    </symbol>
    <symbol viewBox="0 0 20 20" id="star-filled">
      <path d="M5.03219 18.0906C4.82219 18.0906 4.62216 18.0306 4.44216 17.9006C4.13216 17.6706 3.98214 17.3006 4.04214 16.9206L4.89218 11.9806L1.30215 8.4806C1.02215 8.2106 0.932149 7.8206 1.05215 7.4506C1.17215 7.0906 1.48215 6.8306 1.86215 6.7706L6.82217 6.0506L9.04214 1.5606C9.21214 1.2206 9.55216 1.0006 9.94216 1.0006C10.3222 1.0006 10.6722 1.2106 10.8422 1.5606L13.0622 6.0506L18.0222 6.7706C18.4022 6.8206 18.7122 7.0906 18.8322 7.4506C18.9522 7.8106 18.8522 8.2106 18.5822 8.4806L14.9922 11.9806L15.8422 16.9206C15.9022 17.3006 15.7522 17.6706 15.4422 17.9006C15.1322 18.1206 14.7322 18.1506 14.3922 17.9806L9.96218 15.6506L5.53219 17.9806C5.38219 18.0606 5.22216 18.1006 5.06216 18.1006L5.03219 18.0906Z"/>
    </symbol>
    <symbol viewBox="0 0 20 20" id="map-marker">
      <path d="M9.89996 19C9.73996 19 9.6 18.93 9.5 18.8L4.20996 11.8C3.40996 10.63 3 9.29 3 7.9C3 4.1 6.08996 1 9.89996 1C13.71 1 16.8 4.09 16.8 7.9C16.8 9.29 16.38 10.64 15.6 11.79L10.3 18.81C10.21 18.93 10.06 19.01 9.89996 19.01V19ZM9.89996 2C6.64996 2 4 4.65 4 7.9C4 9.09 4.34997 10.24 5.02997 11.22L9.89996 17.67L14.79 11.2C15.45 10.24 15.8 9.09 15.8 7.9C15.8 4.65 13.15 2 9.89996 2ZM9.89996 10.52C8.44996 10.52 7.27997 9.34 7.27997 7.9C7.27997 6.46 8.45996 5.28 9.89996 5.28C11.34 5.28 12.52 6.46 12.52 7.9C12.52 9.34 11.34 10.52 9.89996 10.52ZM9.89996 6.28C9.00996 6.28 8.27997 7.01 8.27997 7.9C8.27997 8.79 9.00996 9.52 9.89996 9.52C10.79 9.52 11.52 8.79 11.52 7.9C11.52 7.01 10.79 6.28 9.89996 6.28Z"/>
    </symbol>
    <symbol viewBox="0 0 20 20" id="file-document">
      <path d="M11.81 10.04C11.81 10.32 11.59 10.54 11.31 10.54H6.84003C6.56003 10.54 6.34003 10.32 6.34003 10.04C6.34003 9.76 6.56003 9.54 6.84003 9.54H11.31C11.59 9.54 11.81 9.76 11.81 10.04ZM11.31 11.55H6.84003C6.56003 11.55 6.34003 11.77 6.34003 12.05C6.34003 12.33 6.56003 12.55 6.84003 12.55H11.31C11.59 12.55 11.81 12.33 11.81 12.05C11.81 11.77 11.59 11.55 11.31 11.55ZM10.21 13.56H6.84003C6.56003 13.56 6.34003 13.78 6.34003 14.06C6.34003 14.34 6.56003 14.56 6.84003 14.56H10.21C10.49 14.56 10.71 14.34 10.71 14.06C10.71 13.78 10.49 13.56 10.21 13.56ZM17.42 7.26V16.14C17.42 17.71 16.15 18.98 14.58 18.98H5.84003C4.27003 18.98 3 17.71 3 16.14V3.84C3 2.27 4.27003 1 5.84003 1H11.14C11.21 1 11.27 1.01 11.33 1.04C11.39 1.07 11.45 1.1 11.49 1.15L17.26 6.92C17.26 6.92 17.34 7.02 17.37 7.08C17.4 7.14 17.41 7.21 17.41 7.27L17.42 7.26ZM11.65 4.92C11.65 5.94 12.48 6.76 13.49 6.76H15.72L11.65 2.69V4.91V4.92ZM16.42 16.15V7.77H13.49C11.92 7.77 10.65 6.5 10.65 4.93V2H5.85004C4.83004 2 4.01001 2.83 4.01001 3.84V16.16C4.01001 17.18 4.84004 18 5.85004 18H14.59C15.61 18 16.43 17.17 16.43 16.16L16.42 16.15Z"/>
    </symbol>
    <symbol viewBox="0 0 20 20" id="facebook">
      <path d="M10.63 19.01C10.51 19.01 10.39 18.97 10.3 18.88C10.19 18.79 10.13 18.65 10.13 18.51V12.3C10.13 12.02 10.35 11.8 10.63 11.8H12.66L12.98 10.04H10.63C10.35 10.04 10.13 9.82 10.13 9.54V8.56C10.13 6.82 10.92 6.04 12.68 6.04C12.88 6.04 13.06 6.04 13.22 6.04V4.47C12.78 4.4 12.15 4.34 11.76 4.34C9.02001 4.34 7.84998 5.54 7.84998 8.34V9.53C7.84998 9.81 7.62998 10.03 7.34998 10.03H5.98999V11.79H7.34998C7.62998 11.79 7.84998 12.01 7.84998 12.29V18.3C7.84998 18.45 7.77997 18.6 7.65997 18.69C7.53997 18.78 7.37998 18.82 7.22998 18.78C2.96998 17.72 0 13.92 0 9.53C0 4.27 4.28003 0 9.53003 0C14.78 0 19.06 4.28 19.06 9.53C19.06 14.35 15.46 18.42 10.68 18.99C10.66 18.99 10.64 18.99 10.62 18.99L10.63 19.01ZM11.13 12.8V17.92C15.12 17.17 18.07 13.66 18.07 9.54C18.07 4.83 14.24 1.01 9.53998 1.01C4.83998 1.01 1.01001 4.84 1.01001 9.54C1.01001 13.25 3.38999 16.5 6.85999 17.64V12.8H5.48999C5.20999 12.8 4.98999 12.58 4.98999 12.3V9.54C4.98999 9.26 5.20999 9.04 5.48999 9.04H6.84998V8.35C6.84998 4.99 8.46001 3.35 11.76 3.35C12.39 3.35 13.4 3.47 13.85 3.59C14.07 3.65 14.22 3.85 14.22 4.07V6.57C14.22 6.71 14.16 6.85 14.05 6.94C13.95 7.03 13.8 7.08 13.67 7.07C13.47 7.05 13.11 7.04 12.68 7.04C11.48 7.04 11.13 7.38 11.13 8.56V9.04H13.58C13.73 9.04 13.87 9.11 13.96 9.22C14.06 9.33 14.09 9.48 14.07 9.63L13.56 12.39C13.52 12.63 13.31 12.8 13.07 12.8H11.13Z"/>
    </symbol>
    <symbol viewBox="0 0 20 20" id="facebook-filled">
      <path d="M9.50999 1C4.25999 1 0 5.26 0 10.51C0 14.97 3.07001 18.71 7.21001 19.74V13.42H5.25V10.51H7.21001V9.26C7.21001 6.02 8.67001 4.53 11.85 4.53C12.45 4.53 13.49 4.65 13.92 4.77V7.4C13.7 7.38 13.3 7.37 12.82 7.37C11.26 7.37 10.66 7.96 10.66 9.5V10.53H13.77L13.24 13.44H10.67V19.97C15.38 19.4 19.03 15.39 19.03 10.53C19.03 5.28 14.77 1.02 9.52 1.02L9.50999 1Z"/>
    </symbol>
    <symbol viewBox="0 0 20 20" id="instagram">
      <path d="M13.47 1H5.54004C3.04004 1 1 3.04 1 5.54V13.47C1 15.97 3.04004 18.01 5.54004 18.01H13.47C15.97 18.01 18.01 15.98 18.01 13.47V5.54C18.01 3.04 15.97 1 13.47 1ZM17.01 13.46C17.01 15.41 15.42 17 13.47 17H5.54004C3.59004 17 2 15.41 2 13.46V5.53C2 3.58 3.59004 1.99 5.54004 1.99H13.47C15.42 1.99 17.01 3.58 17.01 5.53V13.46ZM9.51001 5.2C7.14001 5.2 5.22003 7.13 5.22003 9.49C5.22003 11.85 7.15001 13.78 9.51001 13.78C11.87 13.78 13.8 11.85 13.8 9.49C13.8 7.13 11.87 5.2 9.51001 5.2ZM9.51001 12.79C7.69001 12.79 6.22003 11.31 6.22003 9.5C6.22003 7.69 7.70001 6.21 9.51001 6.21C11.32 6.21 12.8 7.69 12.8 9.5C12.8 11.31 11.32 12.79 9.51001 12.79ZM14.23 3.43C13.49 3.43 12.89 4.03 12.89 4.77C12.89 5.51 13.49 6.11 14.23 6.11C14.97 6.11 15.57 5.51 15.57 4.77C15.57 4.03 14.97 3.43 14.23 3.43ZM14.23 5.12C14.04 5.12 13.89 4.97 13.89 4.78C13.89 4.59 14.04 4.44 14.23 4.44C14.42 4.44 14.57 4.59 14.57 4.78C14.57 4.97 14.42 5.12 14.23 5.12Z"/>
    </symbol>
    <symbol viewBox="0 0 20 20" id="instagram-filled">
      <path d="M14.59 2H6.25C3.9 2 2 3.9 2 6.25V14.59C2 16.94 3.9 18.84 6.25 18.84H14.59C16.94 18.84 18.84 16.94 18.84 14.59V6.25C18.84 3.9 16.94 2 14.59 2ZM10.42 14.41C8.21 14.41 6.43 12.62 6.43 10.42C6.43 8.22 8.22 6.43 10.42 6.43C12.62 6.43 14.41 8.22 14.41 10.42C14.41 12.62 12.62 14.41 10.42 14.41ZM15.39 6.33C14.9 6.33 14.5 5.93 14.5 5.44C14.5 4.95 14.9 4.55 15.39 4.55C15.88 4.55 16.28 4.95 16.28 5.44C16.28 5.93 15.88 6.33 15.39 6.33Z"/>
    </symbol>
    <symbol viewBox="0 0 20 20" id="viber">
      <path d="M19.135 4.5325C18.995 2.2625 16.945 0.2425 14.665 0.1125C11.645 -0.0375 8.595 -0.0375 5.575 0.1125C3.295 0.2425 1.255 2.2625 1.105 4.5325C0.965 7.0025 0.965 9.5125 1.105 11.9925C1.245 14.2525 3.295 16.2725 5.575 16.4025H5.90502V18.5025C5.90502 18.6825 5.99502 18.8425 6.15502 18.9325C6.23502 18.9725 6.31502 19.0025 6.40502 19.0025C6.49502 19.0025 6.57502 18.9825 6.65502 18.9325L10.865 16.5125C12.155 16.5025 13.435 16.4625 14.665 16.4025C16.945 16.2725 18.985 14.2525 19.135 11.9825C19.275 9.5125 19.275 7.0025 19.135 4.5225V4.5325ZM18.135 11.9325C18.025 13.6825 16.375 15.3125 14.615 15.4125C13.355 15.4725 12.045 15.5125 10.725 15.5225C10.635 15.5225 10.555 15.5425 10.475 15.5925L6.90502 17.6525V15.9525C6.90502 15.6825 6.69501 15.4625 6.42501 15.4525L5.62502 15.4225C3.85502 15.3225 2.21502 13.6925 2.09502 11.9525C1.96502 9.5125 1.96502 7.0425 2.09502 4.6125C2.20502 2.8625 3.85501 1.2325 5.61501 1.1325C7.10501 1.0625 8.61501 1.0225 10.115 1.0225C11.615 1.0225 13.115 1.0625 14.605 1.1325C16.375 1.2325 18.015 2.8525 18.135 4.6125C18.265 7.0525 18.265 9.5225 18.135 11.9525V11.9325ZM12.765 9.4525C12.195 8.8725 11.255 8.8825 10.675 9.4525L10.535 9.5925C10.195 9.9325 9.59501 9.9325 9.24501 9.5925L8.355 8.7025C8.005 8.3525 8.005 7.7725 8.355 7.4125L8.49501 7.2725C9.07501 6.6925 9.07501 5.7625 8.49501 5.1825L7.37502 4.0625C6.81502 3.5025 5.84502 3.5025 5.28502 4.0625L4.71502 4.6325C4.17502 5.1725 3.39501 8.7225 6.30501 11.6325C7.94501 13.2725 9.78502 13.7425 11.185 13.7425C12.265 13.7425 13.075 13.4625 13.315 13.2225L13.885 12.6525C14.165 12.3725 14.315 12.0025 14.315 11.6125C14.315 11.2225 14.165 10.8425 13.885 10.5725L12.765 9.4525ZM13.185 11.9525L12.645 12.5025C12.355 12.6925 9.53501 13.4425 7.02501 10.9325C4.51501 8.4225 5.26502 5.6025 5.43502 5.3425L6.00502 4.7725C6.09502 4.6825 6.21502 4.6325 6.34502 4.6325C6.47502 4.6325 6.59502 4.6825 6.68502 4.7725L7.80501 5.8925C7.99501 6.0825 7.99501 6.3825 7.80501 6.5625L7.665 6.7025C6.915 7.4425 6.915 8.6625 7.665 9.4025L8.55501 10.2925C9.27501 11.0125 10.535 11.0125 11.255 10.2925L11.395 10.1525C11.585 9.9625 11.885 9.9625 12.065 10.1525L13.185 11.2725C13.275 11.3625 13.325 11.4825 13.325 11.6125C13.325 11.7425 13.275 11.8625 13.185 11.9525ZM12.875 7.8625C12.965 7.0825 12.705 6.3225 12.155 5.7725C11.605 5.2225 10.845 4.9525 10.065 5.0425C9.79502 5.0725 9.54503 4.8825 9.51503 4.6025C9.48503 4.3325 9.68504 4.0825 9.95504 4.0525C11.035 3.9325 12.105 4.2925 12.875 5.0625C13.645 5.8325 14.015 6.8925 13.885 7.9825C13.855 8.2325 13.635 8.4225 13.385 8.4225C13.365 8.4225 13.345 8.4225 13.325 8.4225C13.055 8.3925 12.855 8.1425 12.885 7.8725L12.875 7.8625ZM14.005 3.9125C15.075 4.9725 15.615 6.4525 15.495 7.9625C15.475 8.2225 15.255 8.4225 14.995 8.4225C14.985 8.4225 14.965 8.4225 14.955 8.4225C14.675 8.4025 14.475 8.1625 14.495 7.8825C14.595 6.6625 14.155 5.4725 13.295 4.6225C12.435 3.7625 11.245 3.3325 10.035 3.4225C9.78499 3.4425 9.51501 3.2425 9.49501 2.9625C9.47501 2.6825 9.67504 2.4425 9.95504 2.4225C11.455 2.3025 12.945 2.8425 14.005 3.9125ZM9.855 5.7325C10.505 5.5625 11.215 5.7525 11.695 6.2225C12.175 6.7025 12.365 7.4025 12.185 8.0625C12.125 8.2925 11.925 8.4325 11.705 8.4325C11.665 8.4325 11.625 8.4325 11.575 8.4125C11.305 8.3425 11.145 8.0725 11.215 7.8025C11.295 7.4925 11.215 7.1525 10.985 6.9225C10.755 6.6925 10.425 6.6025 10.105 6.6925C9.835 6.7625 9.56501 6.6025 9.49501 6.3325C9.42501 6.0625 9.585 5.7925 9.855 5.7225V5.7325Z"/>
    </symbol>
    <symbol viewBox="0 0 20 20" id="viber-filled">
      <path d="M19.045 5.27C18.915 3.15 16.965 1.24 14.835 1.12C11.665 0.96 8.495 0.96 5.315 1.12C3.195 1.24 1.245 3.15 1.105 5.27C0.965 7.87 0.965 10.46 1.105 13.06C1.235 15.18 3.185 17.09 5.315 17.21C5.595 17.22 5.885 17.24 6.165 17.25V19.95L10.715 17.33C12.085 17.33 13.455 17.28 14.835 17.22C16.955 17.1 18.905 15.19 19.045 13.07C19.185 10.47 19.185 7.88 19.045 5.28V5.27ZM12.325 6.43C11.715 5.82 10.855 5.52 9.995 5.62C9.775 5.64 9.605 5.5 9.575 5.29C9.555 5.08 9.695 4.9 9.905 4.87C11.005 4.75 12.075 5.12 12.855 5.89C13.635 6.67 14.005 7.74 13.875 8.84C13.855 9.03 13.695 9.17 13.505 9.17C13.495 9.17 13.475 9.17 13.465 9.17C13.255 9.15 13.115 8.96 13.135 8.75C13.235 7.88 12.945 7.03 12.325 6.42V6.43ZM9.835 6.65C10.475 6.48 11.155 6.67 11.625 7.13C12.085 7.59 12.275 8.28 12.105 8.92C12.065 9.09 11.905 9.2 11.745 9.2C11.715 9.2 11.685 9.2 11.645 9.19C11.445 9.14 11.325 8.93 11.375 8.73C11.475 8.35 11.375 7.94 11.085 7.66C10.805 7.38 10.395 7.27 10.015 7.37C9.805 7.42 9.605 7.3 9.555 7.1C9.505 6.9 9.625 6.69 9.825 6.64L9.835 6.65ZM13.675 13.43L13.075 14.03C12.745 14.36 9.355 15.26 6.445 12.36C3.535 9.45 4.435 6.07 4.775 5.73L5.375 5.13C5.775 4.73 6.425 4.73 6.825 5.13L8.005 6.31C8.405 6.71 8.405 7.36 8.005 7.76L7.855 7.91C7.275 8.49 7.275 9.43 7.855 10.01L8.325 10.48L8.795 10.95C9.375 11.53 10.315 11.53 10.895 10.95L11.045 10.8C11.445 10.4 12.095 10.4 12.495 10.8L13.675 11.98C14.075 12.38 14.075 13.03 13.675 13.43ZM15.575 8.85C15.555 9.05 15.395 9.2 15.205 9.2C15.205 9.2 15.185 9.2 15.175 9.2C14.965 9.18 14.815 9 14.835 8.8C14.945 7.47 14.465 6.18 13.535 5.24C12.605 4.31 11.305 3.83 9.975 3.94C9.775 3.96 9.585 3.8 9.575 3.6C9.555 3.39 9.715 3.21 9.915 3.2C11.465 3.08 12.965 3.63 14.055 4.72C15.145 5.81 15.695 7.32 15.575 8.87V8.85Z"/>
    </symbol>
    <symbol viewBox="0 0 20 20" id="telegram">
      <path d="M15.6023 17.9834C15.3223 17.9834 15.0422 17.9034 14.7922 17.7534L9.06226 14.1634C8.65226 13.9034 8.38227 13.4734 8.32227 12.9834C8.26227 12.4834 8.42225 11.9934 8.77225 11.6434L11.9023 8.4134L7.16227 11.6934C6.50227 12.1434 5.70225 12.2634 4.95225 12.0334L1.80225 11.0334C1.34225 10.8834 1.03227 10.4734 1.00227 9.9834C0.972265 9.4834 1.24227 9.0434 1.69227 8.8434L16.9723 2.1334C17.4923 1.9034 18.0622 1.9734 18.5122 2.3234C18.9822 2.6834 19.2123 3.2834 19.1223 3.8734L17.1423 16.6434C17.0623 17.1834 16.7222 17.6434 16.2322 17.8634C16.0322 17.9534 15.8123 18.0034 15.6023 18.0034V17.9834ZM14.1023 5.8234C14.3023 5.8234 14.4922 5.9134 14.6422 6.0734C14.8822 6.3634 14.8723 6.7834 14.6123 7.0534L9.49226 12.3234C9.36226 12.4634 9.29227 12.6534 9.32227 12.8534C9.34227 13.0434 9.44227 13.2134 9.60227 13.3034L15.3323 16.8934C15.5423 17.0234 15.7323 16.9734 15.8223 16.9234C16.0023 16.8434 16.1223 16.6734 16.1623 16.4634L18.1423 3.6934C18.1823 3.4534 18.0923 3.2234 17.9123 3.0834C17.8423 3.0234 17.6323 2.9034 17.3823 3.0134L2.10227 9.7234C2.01227 9.7634 2.01224 9.8534 2.01224 9.8934C2.01224 9.9434 2.03225 10.0234 2.11225 10.0434L5.26224 11.0434C5.72224 11.1834 6.20227 11.1134 6.60227 10.8334L13.7123 5.9234C13.8323 5.8334 13.9723 5.7934 14.1123 5.7934L14.1023 5.8234Z"/>
    </symbol>
    <symbol viewBox="0 0 20 20" id="telegram-filled">
      <path d="M19.0333 3.36461C19.1733 2.45461 18.3133 1.73461 17.5033 2.09461L1.41329 9.15461C0.833294 9.40461 0.873294 10.2846 1.47329 10.4746L4.79329 11.5346C5.42329 11.7346 6.11329 11.6346 6.66329 11.2546L14.1433 6.08461C14.3733 5.92461 14.6133 6.24461 14.4233 6.44461L9.04329 11.9946C8.52329 12.5346 8.62329 13.4446 9.25329 13.8446L15.2833 17.6246C15.9633 18.0446 16.8333 17.6246 16.9533 16.8046L19.0333 3.36461Z"/>
    </symbol>
    <symbol viewBox="0 0 20 20" id="arrow-left">
      <path d="M17.9875 9.99C17.9875 10.27 17.7675 10.49 17.4875 10.49H3.6975L10.3475 17.14C10.5475 17.34 10.5475 17.65 10.3475 17.85C10.2475 17.95 10.1175 18 9.99752 18C9.87752 18 9.73752 17.95 9.64752 17.85L2.14752 10.35C2.14752 10.35 2.0675 10.25 2.0375 10.19C1.9875 10.07 1.9875 9.93 2.0375 9.81C2.0675 9.75 2.09752 9.69 2.14752 9.65L9.64752 2.15C9.84752 1.95 10.1575 1.95 10.3575 2.15C10.5575 2.35 10.5575 2.66 10.3575 2.86L3.70751 9.51H17.4975C17.7775 9.51 17.9975 9.73 17.9975 10.01L17.9875 9.99Z"/>
    </symbol>
    <symbol viewBox="0 0 20 20" id="arrow-top">
      <path d="M17.86 10.3575C17.76 10.4575 17.63 10.5075 17.51 10.5075C17.39 10.5075 17.25 10.4575 17.16 10.3575L10.51 3.7075V17.4975C10.51 17.7775 10.29 17.9975 10.01 17.9975C9.73002 17.9975 9.51002 17.7775 9.51002 17.4975V3.7075L2.86002 10.3575C2.66002 10.5575 2.35 10.5575 2.15 10.3575C1.95 10.1575 1.95 9.8475 2.15 9.6475L9.65 2.1475C9.65 2.1475 9.75 2.0675 9.81 2.0375C9.93 1.9875 10.07 1.9875 10.19 2.0375C10.25 2.0675 10.31 2.0975 10.35 2.1475L17.85 9.6475C18.05 9.8475 18.05 10.1575 17.85 10.3575H17.86Z"/>
    </symbol>
    <symbol viewBox="0 0 20 20" id="arrow-right">
      <path d="M17.84 10.37L10.34 17.87C10.24 17.97 10.11 18.02 9.99002 18.02C9.87002 18.02 9.73001 17.97 9.64001 17.87C9.44001 17.67 9.44001 17.36 9.64001 17.16L16.29 10.51H2.5C2.22 10.51 2 10.29 2 10.01C2 9.73 2.22 9.51 2.5 9.51H16.29L9.64001 2.86C9.44001 2.66 9.44001 2.35 9.64001 2.15C9.84001 1.95 10.15 1.95 10.35 2.15L17.85 9.65C17.85 9.65 17.93 9.75 17.96 9.81C18.01 9.93 18.01 10.07 17.96 10.19C17.93 10.25 17.9 10.31 17.85 10.35L17.84 10.37Z"/>
    </symbol>
    <symbol viewBox="0 0 20 20" id="arrow-bottom">
      <path d="M17.85 10.35L10.35 17.85C10.35 17.85 10.25 17.93 10.19 17.96C10.13 17.99 10.06 18 10 18C9.94001 18 9.87 17.99 9.81 17.96C9.75 17.93 9.69 17.9 9.65 17.85L2.15 10.35C1.95 10.15 1.95 9.84 2.15 9.64C2.35 9.44 2.65999 9.44 2.85999 9.64L9.50999 16.29V2.5C9.50999 2.22 9.72998 2 10.01 2C10.29 2 10.51 2.22 10.51 2.5V16.29L17.16 9.64C17.36 9.44 17.67 9.44 17.87 9.64C18.07 9.84 18.07 10.15 17.87 10.35H17.85Z"/>
    </symbol>
    <symbol viewBox="0 0 20 20" id="arrow-left-sm">
      <path d="M17.9875 9.99C17.9875 10.27 17.7675 10.49 17.4875 10.49H3.6975L5.3475 12.14C5.5475 12.34 5.5475 12.65 5.3475 12.85C5.2475 12.95 5.11752 13 4.99752 13C4.87752 13 4.73752 12.95 4.64752 12.85L2.14752 10.35C2.14752 10.35 2.0675 10.25 2.0375 10.19C1.9875 10.07 1.9875 9.93 2.0375 9.81C2.0675 9.75 2.09752 9.69 2.14752 9.65L4.64752 7.15C4.84752 6.95 5.15751 6.95 5.35751 7.15C5.55751 7.35 5.55751 7.66 5.35751 7.86L3.70751 9.51H17.4975C17.7775 9.51 17.9975 9.73 17.9975 10.01L17.9875 9.99Z"/>
    </symbol>
    <symbol viewBox="0 0 20 20" id="arrow-top-sm">
      <path d="M12.86 5.3575C12.76 5.4575 12.63 5.5075 12.51 5.5075C12.39 5.5075 12.25 5.4575 12.16 5.3575L10.51 3.7075V17.4975C10.51 17.7775 10.29 17.9975 10.01 17.9975C9.73002 17.9975 9.51002 17.7775 9.51002 17.4975V3.7075L7.86002 5.3575C7.66002 5.5575 7.35 5.5575 7.15 5.3575C6.95 5.1575 6.95 4.8475 7.15 4.6475L9.65 2.1475C9.65 2.1475 9.75 2.0675 9.81 2.0375C9.93 1.9875 10.07 1.9875 10.19 2.0375C10.25 2.0675 10.31 2.0975 10.35 2.1475L12.85 4.6475C13.05 4.8475 13.05 5.1575 12.85 5.3575H12.86Z"/>
    </symbol>
    <symbol viewBox="0 0 20 20" id="arrow-right-sm">
      <path d="M17.84 10.37L15.34 12.87C15.24 12.97 15.11 13.02 14.99 13.02C14.87 13.02 14.73 12.97 14.64 12.87C14.44 12.67 14.44 12.36 14.64 12.16L16.29 10.51H2.5C2.22 10.51 2 10.29 2 10.01C2 9.73 2.22 9.51 2.5 9.51H16.29L14.64 7.86C14.44 7.66 14.44 7.35 14.64 7.15C14.84 6.95 15.15 6.95 15.35 7.15L17.85 9.65C17.85 9.65 17.93 9.75 17.96 9.81C18.01 9.93 18.01 10.07 17.96 10.19C17.93 10.25 17.9 10.31 17.85 10.35L17.84 10.37Z"/>
    </symbol>
    <symbol viewBox="0 0 20 20" id="arrow-bottom-sm">
      <path d="M12.85 15.35L10.35 17.85C10.35 17.85 10.25 17.93 10.19 17.96C10.13 17.99 10.06 18 10 18C9.94001 18 9.87 17.99 9.81 17.96C9.75 17.93 9.69 17.9 9.65 17.85L7.15 15.35C6.95 15.15 6.95 14.84 7.15 14.64C7.35 14.44 7.66001 14.44 7.86001 14.64L9.51 16.29V2.5C9.51 2.22 9.73 2 10.01 2C10.29 2 10.51 2.22 10.51 2.5V16.29L12.16 14.64C12.36 14.44 12.67 14.44 12.87 14.64C13.07 14.84 13.07 15.15 12.87 15.35H12.85Z"/>
    </symbol>
    <symbol viewBox="0 0 20 20" id="shevron-bottom">
      <path d="M10 14.51C9.87001 14.51 9.74 14.46 9.65 14.36L2.15 6.86C1.95 6.66 1.95 6.35 2.15 6.15C2.35 5.95 2.66001 5.95 2.86001 6.15L10.01 13.3L17.16 6.15C17.36 5.95 17.67 5.95 17.87 6.15C18.07 6.35 18.07 6.66 17.87 6.86L10.37 14.36C10.27 14.46 10.14 14.51 10.02 14.51H10Z"/>
    </symbol>
    <symbol viewBox="0 0 20 20" id="shevron-top">
      <path d="M17.51 14.51C17.38 14.51 17.25 14.46 17.16 14.36L10.01 7.21L2.86001 14.36C2.66001 14.56 2.35 14.56 2.15 14.36C1.95 14.16 1.95 13.85 2.15 13.65L9.65 6.15C9.85 5.95 10.16 5.95 10.36 6.15L17.86 13.65C18.06 13.85 18.06 14.16 17.86 14.36C17.76 14.46 17.63 14.51 17.51 14.51Z"/>
    </symbol>
    <symbol viewBox="0 0 20 20" id="shevron-left">
      <path d="M14 18.01C13.87 18.01 13.74 17.96 13.65 17.86L6.15 10.36C5.95 10.16 5.95 9.85 6.15 9.65L13.65 2.15C13.85 1.95 14.16 1.95 14.36 2.15C14.56 2.35 14.56 2.66 14.36 2.86L7.21 10.01L14.36 17.16C14.56 17.36 14.56 17.67 14.36 17.87C14.26 17.97 14.13 18.02 14.01 18.02L14 18.01Z"/>
    </symbol>
    <symbol viewBox="0 0 20 20" id="shevron-right">
      <path d="M6.5 18.02C6.37 18.02 6.24 17.97 6.15 17.87C5.95 17.67 5.95 17.36 6.15 17.16L13.3 10.01L6.15 2.86C5.95 2.66 5.95 2.35 6.15 2.15C6.35 1.95 6.66 1.95 6.86 2.15L14.36 9.65C14.56 9.85 14.56 10.16 14.36 10.36L6.86 17.86C6.76 17.96 6.63 18.01 6.51 18.01L6.5 18.02Z"/>
    </symbol>
    <symbol viewBox="0 0 20 20" id="shevron-bottom-sm">
      <path d="M10.25 12.76C10.12 12.76 9.99 12.71 9.9 12.61L6.15 8.86C5.95 8.66 5.95 8.35 6.15 8.15C6.35 7.95 6.66001 7.95 6.86001 8.15L10.26 11.55L13.66 8.15C13.86 7.95 14.17 7.95 14.37 8.15C14.57 8.35 14.57 8.66 14.37 8.86L10.62 12.61C10.52 12.71 10.39 12.76 10.27 12.76H10.25Z"/>
    </symbol>
    <symbol viewBox="0 0 20 20" id="shevron-top-sm">
      <path d="M14.01 12.76C13.88 12.76 13.75 12.71 13.66 12.61L10.26 9.21L6.86 12.61C6.66 12.81 6.35 12.81 6.15 12.61C5.95 12.41 5.95 12.1 6.15 11.9L9.9 8.15C10.1 7.95 10.41 7.95 10.61 8.15L14.36 11.9C14.56 12.1 14.56 12.41 14.36 12.61C14.26 12.71 14.13 12.76 14.01 12.76Z"/>
    </symbol>
    <symbol viewBox="0 0 20 20" id="shevron-right-sm">
      <path d="M8.5 14.52C8.37 14.52 8.24 14.47 8.15 14.37C7.95 14.17 7.95 13.86 8.15 13.66L11.55 10.26L8.15 6.86C7.95 6.66 7.95 6.35 8.15 6.15C8.35 5.95 8.66 5.95 8.86 6.15L12.61 9.9C12.81 10.1 12.81 10.41 12.61 10.61L8.86 14.36C8.76 14.46 8.63 14.51 8.51 14.51L8.5 14.52Z"/>
    </symbol>
    <symbol viewBox="0 0 20 20" id="shevron-left-sm">
      <path d="M12.25 14.51C12.12 14.51 11.99 14.46 11.9 14.36L8.15 10.61C7.95 10.41 7.95 10.1 8.15 9.9L11.9 6.15C12.1 5.95 12.41 5.95 12.61 6.15C12.81 6.35 12.81 6.66 12.61 6.86L9.21 10.26L12.61 13.66C12.81 13.86 12.81 14.17 12.61 14.37C12.51 14.47 12.38 14.52 12.26 14.52L12.25 14.51Z"/>
    </symbol>
    <symbol viewBox="0 0 20 20" id="calendar">
      <path d="M9.17502 10.8833C9.17502 10.5417 9.45002 10.2583 9.80002 10.2583C10.1417 10.2583 10.425 10.5417 10.425 10.8833C10.425 11.225 10.1417 11.5083 9.80002 11.5083C9.45835 11.5083 9.17502 11.225 9.17502 10.8833ZM13.5 14.75C13.8417 14.75 14.125 14.4667 14.125 14.125C14.125 13.7833 13.8417 13.5 13.5 13.5C13.1584 13.5 12.875 13.7833 12.875 14.125C12.875 14.4667 13.1584 14.75 13.5 14.75ZM13.5 11.5083C13.8417 11.5083 14.125 11.225 14.125 10.8833C14.125 10.5417 13.8417 10.2583 13.5 10.2583C13.1584 10.2583 12.875 10.5417 12.875 10.8833C12.875 11.225 13.1584 11.5083 13.5 11.5083ZM6.10002 11.5083C6.44169 11.5083 6.72502 11.225 6.72502 10.8833C6.72502 10.5417 6.44169 10.2583 6.10002 10.2583C5.75835 10.2583 5.47502 10.5417 5.47502 10.8833C5.47502 11.225 5.75835 11.5083 6.10002 11.5083ZM9.80835 14.75C10.15 14.75 10.4334 14.4667 10.4334 14.125C10.4334 13.7833 10.15 13.5 9.80835 13.5C9.46669 13.5 9.18335 13.7833 9.18335 14.125C9.18335 14.4667 9.46669 14.75 9.80835 14.75ZM6.10002 14.75C6.44169 14.75 6.72502 14.4667 6.72502 14.125C6.72502 13.7833 6.44169 13.5 6.10002 13.5C5.75835 13.5 5.47502 13.7833 5.47502 14.125C5.47502 14.4667 5.75835 14.75 6.10002 14.75ZM17.9167 6.65V14.25C17.9167 17.025 16.15 18.75 13.3167 18.75H6.26669C3.42502 18.75 1.66669 17 1.66669 14.1833V6.64167C1.66669 4.03333 3.25002 2.36667 5.80002 2.18333V1.45833C5.80002 1.11667 6.08335 0.833332 6.42502 0.833332C6.76669 0.833332 7.05002 1.11667 7.05002 1.45833V2.15H12.5334V1.45833C12.5334 1.11667 12.8167 0.833332 13.1584 0.833332C13.5 0.833332 13.7834 1.11667 13.7834 1.45833V2.18333C14.9917 2.26667 16.0167 2.66667 16.725 3.38333C17.5084 4.16667 17.9167 5.29167 17.9167 6.65ZM16.6667 8.25833H2.91669V14.1917C2.91669 16.3333 4.10835 17.5083 6.26669 17.5083H13.3167C15.475 17.5083 16.6667 16.35 16.6667 14.2583V8.26667V8.25833ZM16.6667 6.65C16.6667 5.625 16.3917 4.825 15.8417 4.275C15.3584 3.79167 14.65 3.51667 13.7834 3.44167V4.20833C13.7834 4.55 13.5 4.83333 13.1584 4.83333C12.8167 4.83333 12.5334 4.55 12.5334 4.20833V3.40833H7.05002V4.20833C7.05002 4.55 6.76669 4.83333 6.42502 4.83333C6.08335 4.83333 5.80002 4.55 5.80002 4.20833V3.44167C3.94169 3.6 2.91669 4.71667 2.91669 6.65V7.00833H16.6667V6.65Z"/>
    </symbol>
    <symbol viewBox="0 0 20 20" id="image">
      <path d="M7.46129 5.41612C6.37077 5.41612 5.47219 6.30501 5.47219 7.40305C5.47219 8.50109 6.36205 9.38998 7.46129 9.38998C8.56052 9.38998 9.45038 8.50109 9.45038 7.40305C9.45038 6.30501 8.56052 5.41612 7.46129 5.41612ZM7.46129 8.42266C6.89422 8.42266 6.43184 7.96078 6.43184 7.39434C6.43184 6.82789 6.89422 6.36601 7.46129 6.36601C8.02835 6.36601 8.49073 6.82789 8.49073 7.39434C8.49073 7.96078 8.02835 8.42266 7.46129 8.42266ZM16.7176 3.22876C15.9149 2.42702 14.8157 2 13.542 2H6.47546C3.79716 2 2 3.88235 2 6.67974V13.3203C2 14.4967 2.33152 15.4902 2.88986 16.2658C2.90731 16.2919 2.92475 16.3181 2.95093 16.3442C3.7361 17.3813 4.95747 18 6.47546 18H13.5245C16.2028 18 18 16.1176 18 13.3203V12.4749C18 12.4749 18 12.4227 18 12.3878V6.68845C18 5.30283 17.5463 4.07407 16.7088 3.23747L16.7176 3.22876ZM17.0491 13.3115C17.0491 15.5686 15.6707 17.0327 13.5333 17.0327H6.47546C5.38495 17.0327 4.49509 16.6492 3.87568 15.9695C4.4602 14.9935 5.15812 14.0959 5.96074 13.3377C6.44929 12.9368 6.97274 13.1285 7.84515 13.4946C8.41221 13.7386 9.0578 14.0087 9.75573 14.0087C10.7503 14.0087 11.4395 13.0414 12.1025 12.1089C12.6434 11.3508 13.2017 10.5577 13.7514 10.5577C15.0338 10.5577 16.325 11.8649 17.0403 12.6057V13.3115H17.0491ZM17.0491 11.2549C16.2028 10.4706 15.0425 9.59913 13.7601 9.59913C12.7132 9.59913 12.0153 10.5926 11.3261 11.5512C10.8026 12.2832 10.2617 13.0501 9.75573 13.0501C9.24973 13.0501 8.72628 12.8322 8.22028 12.6144C7.3217 12.2397 6.30971 11.8126 5.32388 12.6231C4.55616 13.3551 3.88441 14.1743 3.30861 15.0719C3.09051 14.5664 2.95965 13.9826 2.95965 13.3203V6.67974C2.95965 4.42266 4.33806 2.95861 6.47546 2.95861H13.5333C14.554 2.95861 15.4177 3.28976 16.0284 3.9085C16.6914 4.57952 17.0491 5.53813 17.0403 6.67974V11.2549H17.0491Z"/>
    </symbol>
    <symbol viewBox="0 0 20 20" id="map-marker-alt">
      <path d="M12.7233 18.2344C12.5733 18.2344 12.4233 18.2177 12.2733 18.1677C11.8816 18.0511 11.54 17.7927 11.3316 17.4427C11.3066 17.4011 11.2899 17.3594 11.2733 17.3094L9.18995 10.7511L2.58162 8.61774C2.53162 8.60107 2.48995 8.58441 2.44828 8.55941C1.68162 8.10107 1.43995 7.09274 1.89828 6.33441C2.11495 5.98441 2.44828 5.72607 2.84828 5.60941L16.2483 1.73441C16.665 1.60941 17.0983 1.65941 17.4816 1.86774C17.8649 2.07607 18.14 2.41774 18.265 2.83441C18.3566 3.14274 18.3566 3.45941 18.265 3.76774L14.2899 17.0677C14.0816 17.7761 13.4316 18.2344 12.7316 18.2344H12.7233ZM12.4316 16.8511C12.4816 16.9094 12.54 16.9511 12.615 16.9761C12.815 17.0261 13.0233 16.9177 13.0816 16.7177L17.0566 3.40941C17.0816 3.33441 17.0816 3.25941 17.0566 3.19274C17.0316 3.09274 16.965 3.01774 16.8733 2.96774C16.7816 2.91774 16.6816 2.90941 16.59 2.93441L3.18995 6.80941C3.09828 6.83441 3.01495 6.89274 2.96495 6.97607C2.86495 7.13441 2.90662 7.34274 3.04828 7.45941L9.88162 9.66774C10.0733 9.72607 10.2233 9.88441 10.2816 10.0761L12.4316 16.8511Z" />
    </symbol>
    <symbol viewBox="0 0 50 50" id="teeth-research">
      <path d="M45.86 43.53L47.27 42.12L39.63 34.48C41.22 32.57 42.18 30.12 42.18 27.45C42.18 24.78 41.2 22.29 39.58 20.37L42.43 13.67L42.39 12.8L38.15 4.93L37.7 4.5L32.82 2.21L32.52 2.07L31.84 2L22.73 4.31L13.91 2.09L13.59 2.01L12.91 2.08L8 4.39L7.72 4.52L7.27 4.95L3.25 12.41L3.04 12.8L3 13.67L7.13 23.37L11.23 42.3L11.45 42.88L15.29 48.01L17.08 47.56L18.96 34.83L20.92 31.26C21.97 34.08 24.13 36.37 26.89 37.55L28.37 47.57L30.16 48.02L33.88 43.06L34.18 42.5L35.23 37.67C36.33 37.24 37.35 36.64 38.24 35.89L45.88 43.53H45.86ZM38.05 18.88C37.04 18.07 35.88 17.43 34.62 17.02L32.75 13.58H40.3L38.04 18.88H38.05ZM20.5 25.02L13.53 13.58H22.46V20.83C21.53 22.05 20.85 23.47 20.5 25.02ZM22.71 12.97L17.59 7.68L22.71 9.08L27.83 7.68L22.71 12.97ZM28.6 7.6L31.91 13.08H23.3L28.6 7.6ZM22.12 13.08H13.53L16.83 7.61L22.12 13.08ZM22.96 13.58H31.91L30.12 16.52C27.28 16.8 24.76 18.18 22.97 20.22V13.58H22.96ZM32.33 13.84L33.95 16.83C33.07 16.6 32.15 16.47 31.2 16.47C31.04 16.47 30.88 16.49 30.71 16.49L32.33 13.84ZM40.26 13.08H32.79L36.69 6.46L40.26 13.08ZM32.35 12.84L29.06 7.39L36.13 6.43L32.36 12.84H32.35ZM31.98 4.03L36.05 5.94L28.83 6.92L28.34 4.95L31.98 4.03ZM17.56 5.07L22.48 6.31H22.97L27.85 5.07L28.33 7.02L22.7 8.56L17.07 7.02L17.55 5.07H17.56ZM13.45 4.04L17.08 4.95L16.59 6.92L9.4 5.94L13.46 4.04H13.45ZM16.37 7.4L13.08 12.84L9.3 6.43L16.37 7.39V7.4ZM8.73 6.46L12.64 13.08H5.16L8.73 6.46ZM5.12 13.58H12.66L8.43 21.38L5.13 13.58H5.12ZM17.11 34.03L17 34.36L15.44 44.9L13.17 41.87L9.05 22.86L8.67 21.96L13.09 13.82L20.36 25.74C20.27 26.3 20.21 26.86 20.21 27.44C20.21 27.72 20.23 28 20.25 28.28L17.1 34.01L17.11 34.03ZM32.25 41.87L29.98 44.9L28.99 38.22C29.7 38.37 30.44 38.44 31.19 38.44C31.82 38.44 32.43 38.38 33.03 38.27L32.25 41.87ZM31.19 36.44C26.24 36.44 22.21 32.41 22.21 27.45C22.21 22.49 26.24 18.46 31.19 18.46C36.14 18.46 40.17 22.49 40.17 27.45C40.17 32.41 36.14 36.44 31.19 36.44Z" />
    </symbol>
    <symbol viewBox="0 0 50 50" id="teeth-treatment">
      <path d="M44.51 27V47.17H32.29L31.95 47.62L30.16 47.17H24.33V29.26H23.73L20.83 34.54L18.97 47.17L17.18 47.63L13.39 42.57L13.16 41.99L9.09 23.2L5 13.58L5.05 12.71L5.27 12.32L9.25 4.94L9.69 4.51L9.96 4.37L14.86 2.07L15.52 2.01L24.59 4.29L33.63 2L34.29 2.06L39.45 4.5L39.89 4.93L40.03 5.19L44.09 12.71L44.14 13.58L43.97 13.99L40.05 23.2L39.23 27H44.51ZM42.03 13.45H34.5L38.72 21.22L42.03 13.45ZM34.1 13.74L26.02 26.99H37.2L38.18 22.5L38.48 21.8L34.1 13.74ZM38.42 6.42L34.58 12.95H41.94L38.42 6.42ZM38.03 6.1L30.86 7.35L34.12 12.75L38.03 6.1ZM30.41 7.55L25.18 12.95H33.67L30.41 7.55ZM30.14 4.95L30.62 6.88L37.34 5.71L33.75 4.03L30.14 4.95ZM18.99 6.98L24.56 8.51L30.13 6.98L29.65 5.06L24.81 6.29H24.32L19.47 5.07L18.99 6.98ZM18.72 7.57L15.47 12.95H23.93L18.72 7.57ZM12.12 5.57L18.5 6.88L18.98 4.95L15.36 4.04L12.12 5.57ZM11.06 6.06L15 12.74L18.26 7.34L11.37 5.92L11.06 6.06ZM7.2 12.95H14.54L10.71 6.45L7.2 12.95ZM10.39 21.22L14.61 13.45H7.1L10.39 21.22ZM23.3 27.28L15.04 13.74L10.65 21.81L11.02 22.69L15.1 41.52L17.34 44.52L18.88 34.09L18.99 33.75L22.26 27.8L23.14 27.28H23.3ZM24.3 13.45H15.44L23.87 27.28H24.3V13.45ZM24.56 12.86L29.63 7.64L24.57 9.03L19.52 7.65L24.56 12.86ZM25.42 27L33.69 13.44H24.8V27H25.42ZM42.52 29.01H26.34V45.19H42.52V29.01ZM33.44 41.64H35.44V38.09H38.98V36.09H35.44V32.55H33.44V36.09H29.89V38.09H33.44V41.64Z" />
    </symbol>
    <symbol viewBox="0 0 50 50" id="teeth-surgery">
      <path d="M43.97 13.99H43.98L44.15 13.58L44.1 12.71L40.04 5.19L39.9 4.93L39.46 4.5L34.28 2.06L33.62 2L24.58 4.29L15.52 2.01L14.86 2.07L9.96 4.37L9.69 4.51L9.25 4.94L5.27 12.32L5.05 12.71L5 13.58L9.09 23.2L13.16 41.99L13.39 42.57L17.18 47.63L18.97 47.18L20.83 34.55L23.57 29.56V48.03H44.1V17.82H42.34L43.97 13.99ZM34.1 13.76L36.32 17.83H31.62L34.1 13.76ZM34.51 13.44H42.04L40.18 17.82H36.89L34.51 13.44ZM41.95 12.95H34.59L38.43 6.42L41.95 12.95ZM34.13 12.75L30.87 7.35L38.04 6.1L34.13 12.75ZM30.42 7.56L33.68 12.95H25.19L30.42 7.56ZM33.76 4.03L37.35 5.71L30.62 6.88L30.14 4.95L33.76 4.03ZM19.48 5.07L24.33 6.29H24.82L29.66 5.06L30.14 6.98L24.57 8.51L19 6.98L19.48 5.07ZM15.37 4.04L18.98 4.95L18.5 6.87L12.34 5.46L15.37 4.04ZM23.94 12.95H15.48L18.73 7.56L23.94 12.95ZM11.61 5.81L18.28 7.33L15.01 12.74L11.07 6.06L11.61 5.81ZM10.71 6.43L14.55 12.95H7.2L10.71 6.43ZM7.11 13.45H14.62L10.4 21.22L7.11 13.45ZM23.16 27.29H23.15L22.27 27.8L19 33.75L18.89 34.09L17.35 44.52L15.11 41.53L11.03 22.7L10.66 21.82L15.05 13.75L23.31 27.29H23.16ZM24.31 17.83H23.58V26.79L15.45 13.45H24.31V17.83ZM19.51 7.65L24.57 9.04L29.63 7.65L24.56 12.88L19.51 7.65ZM24.81 13.45H33.7L31.03 17.83H24.81V13.45ZM42.12 46.04H25.59V19.82H42.12V46.04ZM29.35 23.83L28.64 23.12C29.11 22.64 29.74 22.38 30.41 22.38C31.79 22.38 32.92 23.51 32.92 24.89C32.92 26.1 32.06 27.12 30.91 27.35V28.64H31.42V42.98H29.42V28.64H29.91V26.4H30.41C31.24 26.4 31.92 25.72 31.92 24.89C31.92 24.06 31.24 23.38 30.41 23.38H30.42C30.01 23.39 29.64 23.54 29.35 23.83ZM36.2 27.35V28.64H35.7V42.98H37.7V28.64H37.2V27.35C38.35 27.12 39.21 26.1 39.21 24.89C39.21 23.51 38.08 22.38 36.7 22.38C35.32 22.38 34.19 23.51 34.19 24.89C34.19 26.1 35.06 27.12 36.2 27.35ZM36.7 23.38C37.53 23.38 38.21 24.06 38.21 24.89C38.21 25.72 37.53 26.4 36.7 26.4C35.87 26.4 35.19 25.72 35.19 24.89C35.19 24.06 35.87 23.38 36.7 23.38Z"/>
    </symbol>
    <symbol viewBox="0 0 50 50" id="teeth-brackets">
      <path d="M44.1 12.71L40.04 5.19L39.9 4.93L39.46 4.5L34.29 2.06L33.63 2L24.59 4.29L15.52 2.01L14.86 2.07L9.96 4.37L9.69 4.51L9.25 4.94L5.27 12.32L5.05 12.71L5 13.58L9.09 23.2L13.16 41.99L13.39 42.57L17.18 47.63L18.97 47.17L20.83 34.54L23.73 29.26H25.39L28.29 34.54L30.16 47.17L31.95 47.62L35.62 42.72L35.93 42.17L40.05 23.19L43.97 13.98L44.14 13.57L44.09 12.7L44.1 12.71ZM33.77 4.03L38.08 6.05L35 11.29V8.56H31.62L30.69 7.02H30.68L30.16 4.94L33.78 4.02L33.77 4.03ZM16.24 21.06V10.56H32.99V21.06H16.24ZM18.12 8.56L18.79 7.45L22.84 8.56H18.12ZM26.29 8.56L30.35 7.45L31.02 8.56H26.29ZM19.47 5.07L24.33 6.29H24.82L29.66 5.06L30.14 6.98L24.57 8.51L19 6.98L19.48 5.06L19.47 5.07ZM15.37 4.04L18.99 4.95L18.47 7.03L17.54 8.57H14.24V11.44L11.07 6.06L15.37 4.04ZM10.71 6.44L14.24 12.42V12.98H7.18L10.71 6.43V6.44ZM7.12 13.49H14.23V14.16L10.39 21.23L7.11 13.49H7.12ZM23.14 27.29L22.26 27.81L18.99 33.76L18.88 34.1L17.34 44.53L15.1 41.54L11.02 22.71L10.65 21.83L14.24 15.22V23.09H20.72L23.29 27.31H23.14V27.29ZM23.87 27.29L21.3 23.07H24.3V27.29H23.87ZM25.25 27.29H24.79V23.07H27.82L25.25 27.29ZM38.17 22.52L34.03 41.53L31.78 44.54L30.24 34.1L30.13 33.76L26.86 27.81L25.98 27.29H25.84L28.41 23.07H34.98V15.39L38.47 21.82L38.17 22.52ZM38.72 21.23L34.98 14.34V13.57H41.98L38.72 21.23ZM34.98 13.07V12.28L38.42 6.43L42 13.07H34.98ZM21.82 12.77H23.82V19.14H21.82V12.77ZM25.75 12.77H27.75V19.14H25.75V12.77Z" />
    </symbol>
    <symbol viewBox="0 0 50 50" id="teeth-prosthesis">
      <path d="M44.1 12.71L40.04 5.19L39.9 4.93L39.46 4.5L34.29 2.06L33.63 2L24.59 4.29L15.52 2.01L14.86 2.07L9.96 4.37L9.69 4.51L9.25 4.94L5.27 12.32L5.05 12.71L5 13.58L9.08 23.18L10.23 29.93L11.22 30.76H16.42L17.77 45.25L18.03 45.84L19.78 47.72L20.51 48.04H28.65L29.38 47.72L31.12 45.84L31.38 45.25L32.74 30.76H37.81L38.79 29.95L40.07 23.19L43.99 13.99L44.16 13.58L44.11 12.71H44.1ZM41.95 12.95H34.59L38.43 6.42L41.95 12.95ZM11.62 5.8L18.29 7.33L15.02 12.75V12.74L11.08 6.06L11.62 5.81V5.8ZM18.74 7.56L23.94 12.95H15.48L18.73 7.56H18.74ZM33.68 12.95H25.19L30.43 7.55L33.69 12.95H33.68ZM30.88 7.34L38.05 6.1L34.14 12.75L30.88 7.35V7.34ZM24.56 12.87L19.51 7.64L24.57 9.03L29.63 7.64L24.56 12.87ZM24.31 13.45V28.03L15.45 13.45H24.31ZM19.26 39.74L29.78 40.91L29.51 43.75L19.53 42.64L19.26 39.74ZM19.21 39.23L18.94 36.32L30.09 37.56L29.82 40.41L19.21 39.22V39.23ZM18.89 35.82L18.62 32.92L30.4 34.23L30.13 37.08L18.89 35.83V35.82ZM18.57 32.41L18.42 30.77H30.72L30.44 33.72L18.56 32.4L18.57 32.41ZM24.8 13.46H33.69L24.8 28.03V13.46ZM33.77 4.03L37.36 5.71L30.64 6.88L30.16 4.95L33.78 4.03H33.77ZM24.83 6.3L29.67 5.07L30.15 6.99L24.58 8.52L19.01 6.99L19.49 5.07L24.35 6.29H24.84L24.83 6.3ZM15.38 4.05L19 4.96L18.52 6.88L12.36 5.47L15.38 4.05ZM10.72 6.44L14.56 12.96H7.2L10.71 6.44H10.72ZM7.12 13.46H14.63L10.41 21.24L7.12 13.46ZM11.04 22.75L10.65 21.83L15.04 13.75L24.12 28.68H16.62V28.78H15.56H12.06L11.03 22.75H11.04ZM28.22 46.05H20.95L19.73 44.74L19.58 43.16L29.47 44.26L29.42 44.74L28.21 46.05H28.22ZM36.99 28.78H34.42H33.57V28.68H25.01L34.11 13.76L38.49 21.83L38.19 22.53L36.99 28.79V28.78ZM38.74 21.24L34.52 13.46H42.05L38.74 21.24Z"/>
    </symbol>
    <symbol viewBox="0 0 50 50" id="face-injection">
      <path d="M25.98 45.1L21.29 46.46L16.68 45.12L7.61 35.88L7.36 29.66L6.69 25.92L14.62 16.83L21.88 13.99L32.47 19.2L35.87 25.97L35.04 30.58L37.01 30.93L37.98 25.54L39.46 26.32L38.43 31.25L40.39 31.66L41.57 25.99L41.06 24.9L38.35 23.47L39.27 18.36V17.96L37.35 9.79L37.06 9.29L30.42 3.06L29.95 2.81L21.5 1H21.08L12.63 2.81L12.16 3.06L5.52 9.29L5.23 9.79L3.34 17.96V18.36L4.24 23.47L1.51 24.9L1 25.99L2.69 34.07L3.16 34.73L5.63 36.19V36.34L5.92 37L15.44 46.7L15.88 46.96L21.02 48.45H21.58L26.72 46.96L27.05 46.8L32.79 42.46L31.58 40.87L25.99 45.1H25.98ZM7.1 10.54L13.32 4.71L21.29 3L29.26 4.71L35.48 10.54L37.27 18.22L36.02 25.15L32.84 18.83L22.51 13.75L27.69 11.73L27.51 11.26L14.38 16.39L6.89 24.93L13 12.77L23.55 5.6L23.27 5.19L12.66 12.4L12.61 12.44L6.46 24.68L5.31 18.24L7.09 10.56L7.1 10.54ZM4.55 33.23L3.1 26.32L4.6 25.53L5.36 29.79L5.52 33.8L4.55 33.22V33.23ZM18.57 25.92L13.49 25.1L10.2 26.67L9.77 25.77L13.34 24.07L18.73 24.94L18.57 25.93V25.92ZM14.16 29.5L16.1 29.12L16.2 29.61L14.16 30.01L12.14 29.61L12.24 29.12L14.17 29.5H14.16ZM32.38 26.66L29.11 25.1L23 26.6V34.95H22V25.81L29.22 24.04L32.81 25.75L32.38 26.65V26.66ZM28.42 29.5L30.36 29.12L30.46 29.61L28.42 30.01L26.38 29.61L26.48 29.12L28.42 29.5ZM24.72 39.47H18.2L17.22 38.95L17.69 38.07L18.45 38.48H24.47L25.24 38.07L25.71 38.95L24.72 39.47ZM20.63 42.2V41.7H22.28V42.2H20.63ZM49.61 43.71L46.74 47.63C46.64 47.76 46.49 47.83 46.34 47.83C46.24 47.83 46.13 47.8 46.05 47.73C45.83 47.57 45.78 47.25 45.94 47.03L47.08 45.48L44.37 43.49L43.46 44.73L42.76 44.84L34.31 38.66L34.11 38.3L33.87 35.81L30.11 33.05C29.89 32.89 29.84 32.57 30 32.35C30.16 32.13 30.48 32.08 30.7 32.24L34.46 35L36.9 34.47L37.3 34.55L45.75 40.73L45.86 41.43L44.95 42.67L47.66 44.66L48.8 43.1C48.96 42.88 49.28 42.83 49.5 42.99C49.72 43.15 49.77 43.47 49.61 43.69V43.71Z"/>
    </symbol>
    <symbol viewBox="0 0 40 40" id="hygiene">
      <path d="M29.93 22.62C28.96 22.31 27.92 21.88 26.91 21.39L26.82 21.35L26.73 21.39C25.7 21.89 24.69 22.3 23.71 22.62C23.02 22.84 22.29 23.03 21.55 23.17L21.38 23.2V23.37C21.53 26.49 22.42 32.12 26.71 34.71L26.81 34.77L26.91 34.71C31.21 32.12 32.09 26.49 32.24 23.37V23.2L32.08 23.17C31.24 22.99 30.53 22.81 29.92 22.62H29.93ZM26.82 34.32C22.85 31.85 21.96 26.59 21.8 23.54C22.49 23.4 23.18 23.22 23.83 23.01C24.8 22.7 25.81 22.29 26.82 21.8C27.82 22.28 28.85 22.7 29.81 23.01C30.39 23.2 31.06 23.37 31.84 23.54C31.68 26.59 30.79 31.85 26.82 34.33V34.32ZM35.33 21.16L35.27 20.48L34.59 20.43C34.59 20.43 32.73 20.28 30.87 19.68C31.19 19.78 31.51 19.87 31.82 19.95L32.03 18.99L35.3 11.29L35.26 10.59L32.01 4.56L31.89 4.36L31.54 4.02L27.41 2.05L26.89 2L19.66 3.83L12.65 2.07L12.4 2.01L11.88 2.06L7.96 3.9L7.74 4.01L7.39 4.35L4.03 10.58L4 11.28L7.27 18.98L10.53 34.03L10.71 34.46L13.74 38.52L15.17 38.16L16.65 28.06L18.37 24.94C18.76 29.07 20.39 35.44 26.49 38.1L26.81 38.24L27.13 38.1C36.32 34.1 35.36 21.68 35.32 21.16H35.33ZM27.23 18.07L26.82 17.83L26.41 18.07C26.41 18.07 24.75 19.04 22.76 19.68C22.54 19.75 22.33 19.81 22.11 19.87L27.27 11.41L30.77 17.85L30.53 18.42L30.3 19.47C28.58 18.85 27.24 18.07 27.22 18.06L27.23 18.07ZM19.05 20.43L18.38 20.49L18.34 21L12.35 11.18H19.45V20.39C19.21 20.42 19.06 20.43 19.05 20.43ZM9.09 5.14L14.61 6.28L11.99 10.61L8.84 5.27L9.1 5.15L9.09 5.14ZM26.92 10.77H20.13L24.32 6.46L26.93 10.77H26.92ZM24.67 6.29L30.41 5.29L27.29 10.6L24.68 6.28L24.67 6.29ZM19.63 10.71L15.58 6.53L19.64 7.64L23.68 6.53L19.63 10.7V10.71ZM14.96 6.47L19.14 10.78H12.35L14.96 6.47ZM19.83 11.18H26.94L21.56 20C20.89 20.16 20.28 20.26 19.83 20.33V11.18ZM30.97 17.38L27.6 11.18H33.6L30.96 17.38H30.97ZM33.55 10.78H27.66L30.73 5.55L33.55 10.78ZM26.99 3.63L29.87 4.98L24.49 5.92L24.1 4.37L26.99 3.64V3.63ZM19.85 5.44L23.71 4.46L24.1 6L19.64 7.22L15.18 6L15.57 4.46L19.46 5.44H19.85ZM12.3 3.64L15.19 4.37L14.8 5.92L9.7 4.87L12.3 3.65V3.64ZM8.56 5.58L11.62 10.78H5.76L8.56 5.58ZM5.7 11.18H11.69L8.33 17.38L5.71 11.18H5.7ZM15.2 27.42L15.11 27.69L13.88 36.02L12.09 33.62L8.83 18.57L8.52 17.84L12.02 11.4L18.29 21.68C18.29 21.87 18.28 22.11 18.27 22.38L17.81 22.65L15.19 27.41L15.2 27.42ZM18.33 24.19C18.33 24.19 18.33 24.21 18.33 24.23C18.33 24.22 18.33 24.21 18.33 24.19ZM26.83 36.49C20.12 33.3 19.83 24.42 19.89 21.95C20.65 21.85 21.94 21.63 23.26 21.21C24.83 20.71 26.18 20.03 26.83 19.68C27.48 20.03 28.83 20.7 30.39 21.21C31.72 21.64 33 21.86 33.77 21.96C33.83 24.44 33.55 33.31 26.83 36.5V36.49Z"/>
    </symbol>
    <symbol viewBox="0 0 40 40" id="gnathology">
      <path d="M40.44 11.57L39.7 8.26L39.18 7.65L33.4 5.34L33.11 5.28L24.75 5L24.42 5.07L20.22 6.81L16.02 5.07L15.66 5L7.38 5.27L7.09 5.33L1.26 7.65L0.74 8.26L0 11.57L0.04 12.06L1.09 14.78L0.97 16.25L1.01 16.58L2.21 20.3L2.69 20.83L2.99 20.96L2.3 23.18L2.26 23.49L2.33 25.01L1.38 26.21L1.2 26.67L0.98 29.57L1.11 30.1L2.96 32.99L3.43 33.35L7.75 34.68L16.26 34.72L16.68 34.61L20.23 32.58L23.75 34.6L23.94 34.68L32.45 34.72L37.04 33.36L37.51 33L39.36 30.11L39.49 29.58L39.27 26.68L39.09 26.22L38.14 25.02L38.21 23.5L38.17 23.21L37.51 21.05L37.48 20.97L37.78 20.84L38.26 20.31L39.45 16.61H39.43L39.5 16.26L39.38 14.79L40.43 12.07L40.47 11.58L40.44 11.57ZM5.79 19.72L5.66 19.93L4.61 20.1L4.47 19.73L3.71 19.41L2.69 16.23L2.81 14.73L2.76 14.35V14.33H3.05L4.86 15.99V17.74L5.78 19.72H5.79ZM31.42 16.69L31.44 16.79L31.04 18.77L28.8 19.13L28.62 19.1L28.46 19.07L28.2 19.02L26.73 18.77L26.59 16.37L27.54 13.26L29.02 12.43L30.62 13.4L31.42 16.7V16.69ZM31.54 15.34L33.43 12.71L34.62 12.56L35.16 13.33V17.7L34.29 19.52L32.45 19.42H32.44L32.34 19.36L31.47 18.85L31.89 16.78L31.87 16.69L31.55 15.35L31.54 15.34ZM35.57 23.49L35.59 23.35L34.55 20.32L35.67 20.51L35.53 20.88L35.87 21.61L36.47 23.57L36.42 24.71L35.46 24.16L35.56 23.49H35.57ZM32 23.91V24.53L31.23 25.34L30.31 25.22L28.54 23.36L28.62 19.5L28.81 19.53L31.19 19.15L31.24 19.18L31.32 19.23L32 21.32V23.89V23.91ZM28.12 23.55V23.79L27.34 25.16L26.44 25.35L25.72 24.75L24.48 21.76L24.69 19.98L26.56 19.18H26.6L28.19 19.46V19.66L28.11 23.56L28.12 23.55ZM12.29 19.69V19.45L13.92 19.17L14.48 19.41L15.79 19.97L16 21.75L14.76 24.75L14.04 25.35L13.15 25.16L12.37 23.79V23.55L12.29 19.69ZM5.01 24.17L4.05 24.72L4 23.56L4.59 21.63L4.94 20.9L4.8 20.53L5.93 20.34L4.89 23.37L5.01 24.17ZM5.32 23.4L6.51 19.93L8.12 19.84L8.61 19.58L8.07 21.25V22.05V23.74L6.33 25.36L5.62 25.24L5.33 23.4H5.32ZM8.48 23.92V21.35L9.16 19.26L9.29 19.18L11.68 19.56L11.86 19.53L11.93 23.39L10.17 25.24L9.25 25.36L8.48 24.55V23.93V23.92ZM16.23 20.03H19.24L19.99 19.61L19.61 23.31L18.86 24.55L17.62 24.64L16.66 23.57L16.45 21.8L16.24 20.02L16.23 20.03ZM21.25 20.03H24.26L24.05 21.8L23.84 23.58L22.88 24.65L21.64 24.56L20.89 23.32L20.51 19.62L21.26 20.04L21.25 20.03ZM32.44 21.31L31.89 19.58L31.95 19.62L32.28 19.81H32.29L33.98 19.93L35.17 23.4L35.15 23.52L34.88 25.24L34.17 25.36L32.43 23.74V21.32L32.44 21.31ZM37.78 16.22L36.76 19.41L36 19.73L35.86 20.1L34.81 19.93L34.68 19.72L35.58 17.83L35.6 15.98L37.41 14.32H37.71V14.34L37.65 14.72L37.77 16.21L37.78 16.22ZM26.32 18.8L24.46 19.6H21.36L20.47 19.11L20.5 18.84L20.46 18.86V14.35L22.19 11.96H24.33L26.04 13.97L26.17 16.31L26.31 18.8H26.32ZM20.03 18.86L19.99 18.84L20.02 19.11L19.13 19.6H16.03L14.41 18.91L14.17 18.81L14.31 16.32L14.44 13.97L16.15 11.96H18.29L20.02 14.35V18.86H20.03ZM13.75 18.75L12.28 19L12.02 19.04L11.85 19.07L11.67 19.11L9.43 18.75L9.03 16.77L9.85 13.38L11.45 12.41L12.93 13.24L13.87 16.35L13.73 18.75H13.75ZM8.6 16.77L9.02 18.84L8.05 19.41L6.19 19.51L5.32 17.69V13.32L5.86 12.55L7.05 12.7L8.94 15.33L8.6 16.77ZM37.6 27.07L37.78 29.42L36.26 31.8L32.34 33H24.44L20.68 30.84H19.83L16.05 33H8.14L4.24 31.8L2.71 29.42L2.89 27.07L3.88 25.82L4.06 25.25V25.18L5.07 24.6L5.23 25.59L6.45 25.79L8.05 24.3V24.7L9.09 25.79L10.37 25.63L11.99 23.93L12.87 25.52L14.16 25.8L15.08 25.03L16.11 22.6L16.25 23.76L17.44 25.09L19.11 24.97L20 23.5L20.24 21.27L20.46 23.41L21.38 24.97L23.05 25.09L24.24 23.76L24.38 22.61L25.35 24.95L26.33 25.8L27.62 25.52L28.52 23.95L30.12 25.63L31.4 25.79L32.44 24.7V24.3L34.04 25.79L35.26 25.59L35.42 24.6L36.43 25.18V25.25L36.61 25.82L37.6 27.07ZM37.89 13.9H37.25L35.59 15.41V13.18L34.84 12.09L33.21 12.3L31.42 14.79L31.01 13.11L29.04 11.92L27.19 12.95L26.53 15.11L26.45 13.79L24.52 11.52H21.96L20.23 13.9L18.5 11.52H15.94L14.01 13.79L13.93 15.11L13.27 12.95L11.42 11.92L9.45 13.11L9.04 14.79L7.25 12.3L5.62 12.09L4.86 13.18V15.4L3.21 13.89H2.58L1.73 11.68L2.31 9.06L7.58 6.97L15.53 6.71L19.89 8.52H20.55L24.91 6.71L32.91 6.98L38.13 9.06L38.71 11.68L37.86 13.89L37.89 13.9Z"/>
    </symbol>
    <symbol viewBox="0 0 40 40" id="aesthetic-dentistry">
      <path d="M37.44 31.11L38.92 28.45L38.24 27.77L35.58 29.25L32.91 27.76L32.23 28.44L33.72 31.11L32.23 33.78L32.91 34.46L35.58 32.97L38.25 34.46L38.93 33.78L37.44 31.11ZM35.82 31.96H35.33L33.95 32.73L34.72 31.35V30.86L33.96 29.49L35.33 30.25H35.82L37.19 29.49L36.43 30.86V31.35L37.19 32.72L35.82 31.96ZM36.55 11.53L36.51 10.83L33.23 4.75L33.1 4.54L32.75 4.2L28.58 2.24L28.03 2.2L20.76 4.05L14.52 2.48L15.08 1.7L14.38 1L8.54 5.21L2.71 1L2.01 1.7L6.22 7.54L2 13.39L2.7 14.09L5.28 12.23L8.29 19.3L11.57 34.42L11.75 34.92L14.81 39.01L16.24 38.65L17.75 28.46L20.09 24.2H21.43L23.77 28.46L25.28 38.65L26.71 39.01L29.67 35.05L29.92 34.58L33.23 19.29L36.53 11.53H36.55ZM34.81 11.05H28.82L31.95 5.75L34.82 11.05H34.81ZM28.46 10.87L25.82 6.51L31.48 5.74L28.45 10.88L28.46 10.87ZM28.1 11.05H21.21L25.45 6.67L28.1 11.05ZM28.18 3.82L31.42 5.34L25.64 6.13L25.25 4.56L28.18 3.82ZM16.64 4.66L20.57 5.65H20.96L24.86 4.66L25.25 6.22L20.75 7.45L16.25 6.22L16.64 4.66ZM12.01 9.11L10.99 7.38L11.98 6L15.69 6.51L13.16 10.7L12.02 9.11H12.01ZM16.05 6.68L20.27 11.04H13.41L16.05 6.68ZM16.25 4.56L15.86 6.13L12.24 5.64L13.51 3.88L16.25 4.57V4.56ZM7.23 7.82V7.24L4.61 3.6L8.25 6.22H8.83L12.47 3.6L9.85 7.24V7.82L12.48 11.46L8.84 8.83H8.26L4.62 11.46L7.25 7.82H7.23ZM8.54 9.86L10.18 11.04H6.9L8.54 9.86ZM6.68 11.44H10.73L12.14 12.46L9.31 17.67L6.67 11.44H6.68ZM19.61 22.59L18.91 23L16.27 27.8L14.93 36.5L13.12 34.08L9.82 18.87L9.51 18.14L12.47 12.69L14.39 14.07L14.48 13.98L19.73 22.58H19.62L19.61 22.59ZM20.53 22.59H20.19L14.76 13.7L15.08 13.38L13.68 11.44H20.52V22.59H20.53ZM16.65 6.74L20.68 7.85H20.73L24.79 6.75L20.72 10.96L16.64 6.75L16.65 6.74ZM21.29 22.59H20.93V11.44H28.1L21.3 22.59H21.29ZM31.73 18.73L28.39 34.09L26.58 36.51L25.33 28.08L25.24 27.81L22.6 23.01L21.9 22.6H21.76L28.43 11.67L31.97 18.19L31.74 18.74L31.73 18.73ZM28.76 11.44H34.83L32.16 17.71L28.76 11.44Z"/>
    </symbol>
    <symbol viewBox="0 0 40 40" id="periodontal-treatment">
      <path d="M25.6 25.39C25.05 25.39 24.6 25.84 24.6 26.39C24.6 26.94 25.05 27.39 25.6 27.39C26.15 27.39 26.6 26.94 26.6 26.39C26.6 25.84 26.15 25.39 25.6 25.39ZM38.44 26.05H34.59C34.42 23.05 32.76 20.45 30.33 18.99L30.52 17.98L33.79 10.29L33.76 9.59L30.49 3.58L30.38 3.36L30.02 3L25.87 1.05L25.35 1L18.11 2.83L11.11 1.07L10.86 1.01L10.34 1.06L6.42 2.9L6.2 3.01L5.85 3.35L2.67 9.27L2.5 9.58L2.47 10.28L5.73 17.96L6.05 19.8L3.51 20.61L3.16 20.85L1 23.36L2.21 24.4L4.23 22.06L6.9 21.17H18.78C17.73 22.54 17.07 24.21 16.97 26.04H13.11V27.04H16.97C17.22 31.52 20.81 35.11 25.29 35.36V39.22H26.29V35.36C30.76 35.11 34.35 31.52 34.6 27.04H38.45V26.04L38.44 26.05ZM26.28 17.73V13.88H25.28V17.73C23.43 17.83 21.73 18.5 20.36 19.57H20.13L25.73 10.39L29.25 16.87L29.02 17.42L28.86 18.27C28.05 17.97 27.19 17.78 26.29 17.73H26.28ZM29.45 16.4L26.06 10.16H32.1L29.45 16.4ZM32 9.76H26.13L29.19 4.54L32 9.76ZM25.76 9.6L23.14 5.27L28.89 4.27L25.76 9.59V9.6ZM25.39 9.76H18.59L22.78 5.44L25.39 9.76ZM25.46 2.61L28.34 3.96L22.96 4.9L22.57 3.35L25.47 2.61H25.46ZM17.93 4.42H18.32L22.18 3.44L22.57 4.98L18.11 6.2L13.65 4.98L14.04 3.44L17.93 4.42ZM10.77 2.62L13.65 3.35L13.26 4.89L8.34 3.76L10.77 2.62ZM17.61 9.76H10.83L13.44 5.45L17.61 9.76ZM7.74 4.05L13.07 5.27L10.45 9.6L7.31 4.26L7.75 4.05H7.74ZM7.01 4.57L10.07 9.77H4.22L7.02 4.57H7.01ZM6.76 16.37L4.14 10.17H10.12L6.75 16.37H6.76ZM7.62 19.58L7.28 17.6L6.96 16.84L10.46 10.39L16.05 19.58H7.62ZM17.88 19.58H16.51L10.79 10.17H17.88V19.58ZM14.04 5.52L18.09 6.63L22.14 5.52L18.08 9.7L14.04 5.52ZM18.28 10.16H25.39L19.65 19.57H18.28V10.16ZM26.27 33.76V30.92H25.27V33.76C21.67 33.51 18.8 30.64 18.55 27.04H21.33V26.04H18.55C18.8 22.44 21.67 19.57 25.27 19.32V22.12H26.27V19.32C29.86 19.57 32.73 22.44 32.98 26.04H30.17V27.04H32.98C32.73 30.63 29.86 33.51 26.27 33.76Z"/>
    </symbol>
    <symbol viewBox="0 0 160 122" id="logo-blank">
      <path d="M128.735 110.744C99.3547 129.825 60.6447 123.772 38.5037 97.8147C37.0224 96.0686 34.9525 94.9208 32.6864 94.5872C30.4203 94.2537 28.1052 94.7638 26.1824 96.0097L19.9727 100.061C15.1855 103.181 8.63244 101.327 6.31729 96.1568C-7.38718 66.1875 2.61895 30.0379 31.264 11.399C60.6447 -7.68128 99.3547 -1.5795 121.486 24.3285C122.967 26.0747 125.037 27.2225 127.303 27.556C129.569 27.8895 131.884 27.3794 133.807 26.1335L140.017 22.082C144.804 18.9625 151.308 20.8166 153.672 25.9864C167.377 55.8969 157.371 92.1446 128.726 110.734L128.735 110.744Z"/>
    </symbol>
    <symbol viewBox="0 0 66 66" id="teeth-scan">
      <path d="M62.38 41.51H63.38V63H2.38V41.51H3.38V62H62.38V41.51ZM3.38 3H62.38V23.49H63.38V2H2.38V23.49H3.38V3ZM66 31.5V33.5H47.54L44.1 49.39L43.81 49.94L40.18 54.79L38.39 54.34L36.55 41.92L33.7 36.73H32.09L29.24 41.92L27.4 54.34L25.61 54.79L21.87 49.79L21.65 49.21L18.25 33.51H0V31.51H17.82L17.65 30.75L13.63 21.28L13.67 20.42L17.8 12.76L18.27 12.31L23.33 9.93L23.99 9.87L32.9 12.11L41.79 9.86L42.45 9.92L47.51 12.3L47.98 12.75L48.12 13.03L52.11 20.42L52.15 21.28L51.98 21.68L48.12 30.75L47.95 31.51H65.98L66 31.5ZM38.64 15.34L33.49 20.67H41.87L38.65 15.34H38.64ZM42.3 20.43L45.97 14.2L39.09 15.13L42.29 20.43H42.3ZM37.87 15.42L32.88 16.78L32.81 16.76L27.92 15.42L32.89 20.56L37.87 15.41V15.42ZM23.95 20.67H32.3L27.17 15.36L23.96 20.67H23.95ZM26.71 15.14L19.83 14.21L23.51 20.44L26.71 15.15V15.14ZM23.93 21.17L30.23 31.5H32.63V21.17H23.93ZM31.45 33.5L32.2 34.73H32.63V33.5H31.45ZM33.58 34.73L34.33 33.5H33.13V34.73H33.58ZM35.55 31.5L41.85 21.17H33.13V31.5H35.55ZM36.14 31.5H45.94L46.26 30.04L46.56 29.33L42.28 21.43L36.14 31.5ZM50.03 21.17H42.7L46.81 28.74L50.03 21.17ZM46.52 14.25L42.74 20.67H49.98L46.52 14.25ZM38.38 12.77L38.85 14.66L45.85 13.71L41.93 11.87L38.38 12.77ZM32.66 14.1L27.86 12.89L27.4 14.77L32.88 16.27L38.36 14.77L37.9 12.9L33.15 14.1H32.66ZM19.95 13.72L26.9 14.66L27.37 12.77L23.85 11.88L19.95 13.72ZM15.8 20.67H23.06L19.26 14.24L15.79 20.67H15.8ZM18.96 28.74L23.07 21.17H15.76L18.96 28.74ZM19.86 31.5H29.64L23.49 21.42L19.2 29.33L19.58 30.22L19.86 31.5ZM31.49 34.73H31.61L30.86 33.5H20.29L23.59 48.76L25.77 51.67L27.28 41.45L27.39 41.11L30.61 35.25L31.49 34.73ZM45.49 33.5H34.9L34.15 34.73H34.27L35.15 35.25L38.37 41.11L38.48 41.45L39.99 51.67L42.17 48.76L45.49 33.5Z" />
    </symbol>
    <symbol viewBox="0 0 66 66" id="calculator">
      <path d="M57.33 18.23L55.05 15.93L54.34 15.63H45.97V4L44.97 3H18.35L17.64 3.3L9.29 11.71L9 12.41V49.86L10 50.86H26.26V59.3L26.55 60L28.83 62.3L29.54 62.6H54.34L55.05 62.3L57.33 60L57.62 59.3V18.93L57.33 18.23ZM55.62 19.35V33.07H28.25V19.35L29.95 17.64H53.92L55.62 19.35ZM28.25 33.57H37.27V42.32H28.25V33.57ZM28.25 42.82H37.27V51H28.25V42.82ZM37.77 51.59H46.07V60.62H37.77V51.59ZM46.06 51.01H37.77V42.83H46.06V51.01ZM37.77 42.23V33.58H46.06V42.23H37.77ZM46.56 42.23V33.58H55.61V42.33H46.56V42.23ZM18.1 5.67V12.17H11.66L18.11 5.67H18.1ZM26.25 48.87H11V12.83L11.16 12.67H18.6V5.17L18.77 5H43.98V15.63H29.54L28.83 15.93L26.55 18.23L26.26 18.93V48.86L26.25 48.87ZM28.25 58.9V51.5H37.27V60.61H29.95L28.25 58.9ZM53.92 60.61H46.56V51.31V42.82H55.61V58.9L53.91 60.61H53.92ZM29.96 31.33H53.88V21.24H29.96V31.33ZM30.46 21.74H53.38V30.83H30.46V21.74Z" />
    </symbol>
    <symbol viewBox="0 0 66 66" id="doctor-with-mask">
      <path d="M18.28 33.67L18.62 34.61L24.27 32.56L29.67 33.63L29.86 32.65L24.19 31.53L18.28 33.67ZM34.66 33.67L34.93 34.63L42.18 32.58L47.81 34.62L48.15 33.68L42.22 31.53L34.66 33.67ZM58.97 33.71L55.17 31.74L56.39 25V24.59L53.91 14.09L53.61 13.58L44.93 5.57L44.46 5.33L33.44 3H33.03L21.98 5.33L21.51 5.57L12.82 13.58L12.52 14.09L10.05 24.59V25L11.27 31.77L7.52 33.71L7 34.81L9.21 45.2L9.68 45.86L13.04 47.81V48.15L13.34 48.82L25.78 61.29L26.4 61.58L33.11 62.19H33.29L40.02 61.58L40.64 61.29L53.08 48.82L53.37 48.15V47.82L56.79 45.83L57.26 45.17L59.47 34.78L58.95 33.68L58.97 33.7V33.71ZM47.21 44.54L33.22 40.86L19.24 44.54L14.17 36.51L13.16 30.96L15.44 24.6L22.59 21.12L24.92 23.89L38.45 24.66L50.28 22.45L53.29 30.96L52.28 36.52L47.22 44.53H47.21V44.54ZM45.78 53.35L39.5 59.65L33.22 60.22L26.97 59.65L20.69 53.35L19.58 45.5L33.23 41.91L46.89 45.5L45.78 53.35ZM14.4 14.84L22.66 7.22L33.23 4.99L43.79 7.22L52.05 14.84L54.4 24.84L53.47 29.95L50.61 21.86L38.42 24.15L25.17 23.39L17.34 14.09L16.96 14.41L22.26 20.71L15.13 24.18L15.04 24.22L12.98 29.96L12.05 24.84L14.4 14.84ZM11.08 44.35L9.12 35.14L11.65 33.83L12.72 39.73L12.95 45.44L11.08 44.35ZM14.72 39.58L14.64 39.13L18.53 45.29L19.5 52.16L15.05 47.7L14.73 39.59H14.72V39.58ZM51.4 47.68L46.95 52.14L47.92 45.27L51.8 39.14L51.75 39.43L51.41 47.68H51.4ZM53.49 45.45L53.72 39.72L54.79 33.83L57.29 35.13L55.91 41.68H55.98L55.42 44.33L53.5 45.45H53.49ZM41.47 35.57L39.86 36.81L41.47 38.04L44.55 37.12L43.58 36.11L41.47 35.57ZM22.67 36.11L21.71 37.12L24.79 38.04L26.4 36.81L24.79 35.57L22.67 36.11Z" />
    </symbol>
    <symbol viewBox="0 0 66 66" id="glowing-face">
      <path d="M25.2 33.1L19.9 35.11L19.55 34.17L25.11 32.06L30.83 33.16L30.64 34.14L25.2 33.09V33.1ZM35.12 34.26V45.7H36.12V35.02L42.99 33.1L48.27 35.1L48.62 34.16L43.04 32.04L35.12 34.25V34.26ZM33.26 57.32H35.35V56.82H33.26V57.32ZM59.65 34.3L57.5 44.51L57.03 45.17L53.72 47.12V47.43L53.42 48.09L41.34 60.35L40.9 60.61L34.09 62.53L33.8 62.49L27.28 60.61L26.85 60.35L14.75 48.09L14.46 47.43V47.1L11.19 45.18L10.72 44.52L8.57 34.31L9.08 33.22L12.71 31.31L11.51 24.66V24.26L13.93 13.93L14.22 13.43L22.65 5.55L23.12 5.3L34.08 3L34.3 3.02L45.03 5.31L45.5 5.56L53.47 13.01L52.1 14.47L44.33 7.21L34.08 5.02L23.83 7.21L15.83 14.69L13.53 24.52L15.08 33.19L23.12 17.25L23.17 17.21L36.64 8.09L36.92 8.5L23.51 17.58L15.52 33.43L25.34 22.26L42.01 15.77L42.19 16.24L35.48 18.85L48.7 25.34L48.74 25.42L52.97 33.8L54.64 24.51L54.38 23.42L56.33 22.96L56.63 24.25V24.66L55.45 31.28L59.13 33.21L59.64 34.3H59.65ZM14.35 44.72L14.13 39.14L13.09 33.37L10.68 34.63L12.58 43.67L14.34 44.71L14.35 44.72ZM52.06 38.86L52.82 34.62L48.33 25.72L34.85 19.11L25.59 22.71L15.32 34.43L16.14 39L16.45 46.97L28.09 58.77L34.09 60.5L40.11 58.77L51.74 46.97L52.07 38.86H52.06ZM55.64 43.67L56.18 41.08H56.12L57.46 34.64L55.08 33.39L54.05 39.15L53.83 44.75L55.65 43.68L55.64 43.67ZM27.48 38.02L25.72 37.12L23.8 38.02L21.69 37.88L23.06 39.17L24.36 40.71L26.68 40.61L27.48 38.03V38.02ZM42.47 37.11L40.71 38.01L41.51 40.59L43.84 40.7L45.13 39.15L46.51 37.87L44.39 38.01L42.47 37.11ZM41.94 49.41L42.36 50.29L37.59 53.95L34.25 54.96H33.96L30.43 53.85L26.13 50.27L26.57 49.4L29.96 50.26H38.23L41.93 49.4L41.94 49.41ZM39.95 50.9L38.3 51.27L29.79 51.25L28.48 50.92L31.01 53.02L34.12 53.96L37.23 53.02L39.97 50.9H39.95ZM55.96 56.23H56.96V54.27H55.96V56.23ZM55.96 61.35H56.96V59.38H55.96V61.35ZM58.05 57.31V58.31H60.02V57.31H58.05ZM52.91 58.31H54.89V57.31H52.91V58.31ZM9.97 51.66H10.97V49.7H9.97V51.66ZM9.97 56.78H10.97V54.81H9.97V56.78ZM12.06 53.74H14.03V52.74H12.06V53.74ZM6.92 53.74H8.89V52.74H6.91V53.74H6.92ZM10.05 3.5H9.05V5.46H10.05V3.5ZM10.05 8.61H9.05V10.58H10.05V8.61ZM13.1 6.54H11.13V7.54H13.1V6.54ZM7.96 6.54H6V7.54H7.97V6.54H7.96ZM54.97 14.8H53.97V16.77H54.97V14.8ZM54.97 19.92H53.97V21.88H54.97V19.92ZM58.02 17.84H56.05V18.84H58.02V17.84ZM50.91 18.84H52.88V17.84H50.91V18.84Z" />
    </symbol>
    <symbol viewBox="0 0 66 66" id="dental-chair">
      <path d="M57.84 41.65L45.91 35.7V22.29H46.3C47.26 22.29 48.15 21.87 48.8 21.12C49.43 20.39 49.78 19.42 49.78 18.4V15.72L49.03 14.97H47.67V12.5C47.67 11.35 46.74 10.42 45.59 10.42C44.44 10.42 43.51 11.35 43.51 12.5H44.26C44.26 11.77 44.86 11.17 45.59 11.17C46.32 11.17 46.92 11.77 46.92 12.5V14.97H34.96V15.72H34.22V18.4C34.22 19.42 34.57 20.39 35.2 21.12C35.85 21.87 36.76 22.29 37.7 22.29H44.9V35.2L38.71 32.11L38.03 32.03L27.28 34.64V33.16C27.28 30.88 28.86 28.96 30.98 28.44L32.14 30.6H38.6L40.4 27.55H32.14C29.05 27.55 26.53 30.07 26.53 33.16V34.83L25.18 35.16C23.7 35.3 22.34 35.88 21.25 36.77L20.77 33.54H22.56L23.4 33.08L25.25 30.21L25.3 29.21L12.4 4.53L11.4 4L7.88 4.42L7 5.41V9.06L7.07 9.43L16.43 32.9L17.36 33.53H18.76L19.55 38.81C18.96 39.86 18.61 41.07 18.61 42.36C18.61 46.36 21.86 49.61 25.85 49.61C27.01 49.61 28.11 49.33 29.08 48.84L34.02 54.61L17.15 56.17L16.31 56.81L15.09 60.02L16.03 61.38H54.78L55.78 60.38V55.42L55.1 54.47L41.11 49.81L40.18 49.97L35.69 53.48L30.74 47.7C31.67 46.85 32.38 45.76 32.77 44.53L39.3 42.85L46.66 45.2L47.04 45.24L49.84 45.01L56.97 48.39L58.4 47.49V42.54L57.85 41.65H57.84ZM32.15 28.31H39.1L38.18 29.86H32.6L31.78 28.32C31.9 28.32 32.03 28.31 32.16 28.31H32.15ZM35.25 56.36L40.98 51.89L53.78 56.15V59.39H17.49L17.97 58.12L34.74 56.57L35.26 56.36H35.25ZM37.71 20.8C37.2 20.8 36.7 20.56 36.34 20.14C35.95 19.69 35.72 19.06 35.72 18.41V16.48H48.28V18.41C48.28 19.06 48.06 19.69 47.67 20.14C47.3 20.56 46.82 20.8 46.3 20.8H37.71ZM18.03 31.55L9 8.87V6.3L10.94 6.07L23.26 29.62L22.02 31.54H18.03V31.55ZM25.85 47.63C22.96 47.63 20.61 45.28 20.61 42.38C20.61 39.48 22.96 37.13 25.85 37.13C28.74 37.13 31.1 39.48 31.1 42.38C31.1 45.28 28.75 47.63 25.85 47.63ZM47.07 43.25L39.62 40.87L39.07 40.85L33.09 42.39C33.09 41.31 32.84 40.28 32.42 39.36L38.77 37.72L49.7 43.04L47.07 43.25ZM56.39 45.73L38.91 37.23L38.74 37.21L32.2 38.9C31.58 37.77 30.66 36.84 29.56 36.18L38.16 34.09L56.39 43.18V45.73Z"/>
    </symbol>
    <symbol viewBox="0 0 70 70" id="kiyv-location">
      <path d="M53.31 11.45H44.89L43.89 12.45V18.3C43.89 19.86 44.47 21.24 45.25 22.38L45.09 22.72L35.74 25.83L21.76 16.44L21.2 16.27H20.51H23.02V14.27H20.51V1H18.51V14.26H16V16.26H18.51V16.74L17.98 17.27V18.18L18.42 19.01L20.27 20.25V22.54L20.71 23.37L28.53 28.63V53.05H27.42L26.47 53.74L21.59 68.45L22.54 69.76H48.15L49.1 68.45L44.22 53.74L43.27 53.05H42.16V36.23L50.75 25.92L50.98 25.28V24.61C52.48 23.27 54.31 21.07 54.31 18.3V12.45L53.31 11.45ZM40.56 34.93L30.52 51.88V28.18L40.56 34.94V34.93ZM40.15 53.05H30.52V52.85L40.15 36.59V53.05ZM35.08 55.05V67.76H29.35L31.46 55.05H35.08ZM35.58 55.05H39.21L41.32 67.76H35.58V55.05ZM28.13 55.05H30.95L28.84 67.76H23.91L28.13 55.05ZM42.54 55.05L46.76 67.76H41.83L39.72 55.05H41.15H42.54ZM40.93 34.57L26.21 24.66L22.26 22.01V19.72L21.82 18.9L35.01 27.77L35.88 27.89L46.1 24.49L46.61 24.04C47.28 24.71 47.94 25.24 48.42 25.58L40.93 34.57ZM52.3 18.3C52.3 20.65 50.36 22.57 49.09 23.58C47.82 22.57 45.88 20.65 45.88 18.3V13.45H52.3V18.3ZM35.45 22.85C37.73 22.85 39.76 20.09 39.76 17.91V16.28C39.58 11.63 31.31 11.55 31.14 16.28V17.91C31.14 20.09 33.17 22.85 35.45 22.85ZM33.14 16.28C33.14 15.39 34.36 14.72 35.45 14.72C36.62 14.72 37.76 15.49 37.76 16.28V17.91C37.76 19.17 36.44 20.85 35.45 20.85C34.46 20.85 33.14 19.17 33.14 17.91V16.28Z" />
    </symbol>
    <symbol viewBox="0 0 70 70" id="irpin-location">
      <path d="M55.33 23.78H46.87L46.16 24.07L42.15 28.09V11.69L41.86 10.98L35.88 5H34.47L28.48 10.98L28.19 11.69V28.09L24.18 24.07L23.47 23.78H15L14 24.78V33.24L14.29 33.95L26 45.65L26.71 45.94H34.17V55.01C33.47 54.9 33.01 54.68 32.49 54.44C31.67 54.04 30.73 53.6 28.95 53.6C27.17 53.6 26.23 54.05 25.41 54.44C24.69 54.79 24.06 55.09 22.73 55.09V57.09C24.51 57.09 25.45 56.64 26.27 56.25C26.99 55.9 27.62 55.6 28.95 55.6C30.28 55.6 30.9 55.9 31.63 56.25C32.45 56.65 33.39 57.09 35.17 57.09C36.95 57.09 37.89 56.64 38.71 56.25C39.43 55.9 40.06 55.6 41.39 55.6C42.72 55.6 43.34 55.9 44.07 56.25C44.89 56.65 45.83 57.09 47.6 57.09V55.09C46.28 55.09 45.66 54.79 44.93 54.44C44.11 54.04 43.17 53.6 41.39 53.6C39.61 53.6 38.67 54.05 37.85 54.44C37.34 54.69 36.87 54.91 36.17 55.01V45.94H43.62L44.33 45.65L56.04 33.95L56.33 33.24V24.78L55.33 23.78ZM47.28 25.78H53.97L35.81 43.94H35.41V43.73V37.67L41.11 31.95L42.15 30.91L42.37 30.69L47.28 25.77V25.78ZM40.15 12.1V29.81V32.23L35.42 36.97V7.36L40.16 12.1H40.15ZM34.91 7.38V36.96L30.19 32.23V29.81H30.18V12.11L34.91 7.39V7.38ZM27.95 30.69L28.17 30.91L29.24 31.97L34.92 37.66V43.74V43.93H34.51L16.35 25.78H23.04L27.95 30.7V30.69ZM16 32.82V26.13L33.81 43.94H27.13L16 32.82ZM43.21 43.93H36.53L54.34 26.12V32.81L43.22 43.92L43.21 43.93ZM44.94 58.83C45.66 59.18 46.29 59.48 47.61 59.48V61.48C45.83 61.48 44.9 61.03 44.08 60.64C43.36 60.29 42.73 59.99 41.4 59.99C40.07 59.99 39.45 60.29 38.72 60.64C37.89 61.04 36.96 61.48 35.18 61.48C33.4 61.48 32.46 61.03 31.64 60.64C30.92 60.29 30.29 59.99 28.96 59.99C27.63 59.99 27.01 60.29 26.28 60.64C25.45 61.04 24.52 61.48 22.74 61.48V59.48C24.07 59.48 24.69 59.18 25.42 58.83C26.24 58.44 27.18 57.99 28.96 57.99C30.74 57.99 31.68 58.44 32.5 58.83C33.22 59.18 33.85 59.48 35.18 59.48C36.51 59.48 37.13 59.18 37.86 58.83C38.68 58.44 39.62 57.99 41.4 57.99C43.18 57.99 44.12 58.44 44.94 58.83ZM44.94 63.25C45.66 63.6 46.29 63.9 47.61 63.9V65.9C45.83 65.9 44.9 65.45 44.08 65.06C43.36 64.71 42.73 64.41 41.4 64.41C40.07 64.41 39.45 64.71 38.72 65.06C37.89 65.46 36.96 65.9 35.18 65.9C33.4 65.9 32.46 65.45 31.64 65.06C30.92 64.71 30.29 64.41 28.96 64.41C27.63 64.41 27.01 64.71 26.28 65.06C25.45 65.46 24.52 65.9 22.74 65.9V63.9C24.07 63.9 24.69 63.6 25.42 63.25C26.24 62.86 27.18 62.41 28.96 62.41C30.74 62.41 31.68 62.86 32.5 63.25C33.22 63.6 33.85 63.9 35.18 63.9C36.51 63.9 37.13 63.6 37.86 63.25C38.68 62.86 39.62 62.41 41.4 62.41C43.18 62.41 44.12 62.86 44.94 63.25Z" />
    </symbol>
    <symbol viewBox="0 0 26 26" id="drag-x">
      <path fill-rule="evenodd" clip-rule="evenodd" d="M2.17914 12.84L8.85914 20L8.12914 20.68L1.12914 13.18C0.949141 12.99 0.949141 12.69 1.12914 12.5L8.12914 5L8.85914 5.68L2.17914 12.84ZM23.8091 12.84L17.1391 5.68L17.8691 5L24.8691 12.5C25.0491 12.69 25.0491 12.99 24.8691 13.18L17.8691 20.68L17.1391 20L23.8191 12.84H23.8091Z" />
    </symbol>
    <symbol viewBox="0 0 18 18" id="show">
      <path d="M9 6.5C7.62 6.5 6.5 7.62 6.5 9C6.5 10.38 7.62 11.5 9 11.5C10.38 11.5 11.5 10.38 11.5 9C11.5 7.62 10.38 6.5 9 6.5ZM9 10.5C8.17 10.5 7.5 9.83 7.5 9C7.5 8.17 8.17 7.5 9 7.5C9.83 7.5 10.5 8.17 10.5 9C10.5 9.83 9.83 10.5 9 10.5ZM17.44 8.76C15.65 5.47 12.5 3.5 9 3.5C5.5 3.5 2.35 5.47 0.56 8.76C0.48 8.91 0.48 9.09 0.56 9.24C2.35 12.53 5.5 14.5 9 14.5C12.5 14.5 15.65 12.53 17.44 9.24C17.52 9.09 17.52 8.91 17.44 8.76ZM9 13.5C5.96 13.5 3.2 11.82 1.57 9C3.2 6.18 5.96 4.5 9 4.5C12.04 4.5 14.8 6.18 16.43 9C14.8 11.82 12.04 13.5 9 13.5Z"/>
    </symbol>
    <symbol viewBox="0 0 18 18" id="download">
      <path d="M5.97745 10.1035C5.77827 9.90437 5.77827 9.59564 5.97745 9.39646C6.17663 9.19728 6.48535 9.19728 6.68453 9.39646L8.49707 11.209V1.74795C8.49707 1.4691 8.71617 1.25 8.99502 1.25C9.27387 1.25 9.49297 1.4691 9.49297 1.74795V11.209L11.3055 9.39646C11.5047 9.19728 11.8134 9.19728 12.0126 9.39646C12.2118 9.59564 12.2118 9.90437 12.0126 10.1035L9.34359 12.7726C9.34359 12.7726 9.244 12.8522 9.18424 12.8821C9.12449 12.912 9.05477 12.9219 8.99502 12.9219C8.93527 12.9219 8.86555 12.912 8.8058 12.8821C8.74605 12.8522 8.68629 12.8223 8.64646 12.7726L5.97745 10.1035ZM16.9921 15.7005H0.99795C0.719098 15.7005 0.5 15.9196 0.5 16.1984C0.5 16.4773 0.719098 16.6964 0.99795 16.6964H17.0021C17.2809 16.6964 17.5 16.4773 17.5 16.1984C17.5 15.9196 17.2809 15.7005 17.0021 15.7005H16.9921Z"/>
    </symbol>
    <symbol viewBox="0 0 20 20" id="search">
      <path d="M19.16 18.2L14.56 13.6C15.68 12.27 16.35 10.55 16.35 8.68C16.36 4.44 12.91 1 8.68 1C4.45 1 1 4.44 1 8.68C1 12.92 4.44 16.36 8.68 16.36C10.55 16.36 12.27 15.68 13.6 14.57L18.2 19.17L19.16 18.21V18.2ZM8.68 15C5.19 15 2.36 12.16 2.36 8.68C2.36 5.2 5.19 2.36 8.68 2.36C12.17 2.36 15 5.2 15 8.68C15 12.16 12.16 15 8.68 15Z"/>
    </symbol>
    <symbol viewBox="0 0 24 24" id="alert-triangle">
      <path d="M11.0868 13.4379V9.68788C11.0868 9.27788 11.4268 8.93788 11.8368 8.93788C12.2468 8.93788 12.5868 9.27788 12.5868 9.68788V13.4379C12.5868 13.8479 12.2468 14.1879 11.8368 14.1879C11.4268 14.1879 11.0868 13.8479 11.0868 13.4379ZM11.8468 15.9979C11.3468 16.0079 10.9468 16.4079 10.9468 16.9079C10.9468 17.3979 11.3568 17.8079 11.8468 17.8079C12.3368 17.8079 12.7468 17.4079 12.7468 16.8879C12.7468 16.3679 12.3368 15.9879 11.8468 15.9879V15.9979ZM23.6868 19.2679C23.7768 21.0579 22.3968 22.5979 20.6168 22.6879H3.19682C3.19682 22.6879 3.14682 22.6879 3.12682 22.6879C3.11682 22.6879 3.10682 22.6879 3.09682 22.6879C2.72682 22.6679 2.37682 22.5979 2.02682 22.4479C0.366817 21.7779 -0.433183 19.8679 0.236817 18.1979L9.01682 2.67788C9.30682 2.14788 9.74682 1.70788 10.2768 1.41788C11.0268 0.997879 11.8968 0.887879 12.7268 1.11788C13.5668 1.35788 14.2668 1.90788 14.6868 2.67788L23.4068 18.0979C23.5868 18.5279 23.6668 18.8879 23.6868 19.2579V19.2679ZM22.1868 19.3379C22.1868 19.1379 22.1368 18.9379 22.0668 18.7579L13.3768 3.41788C13.1468 2.99788 12.7668 2.69788 12.3168 2.56788C12.1568 2.52788 12.0068 2.49788 11.8468 2.49788C11.5568 2.49788 11.2668 2.57788 11.0068 2.71788C10.7168 2.87788 10.4868 3.11788 10.3268 3.40788L1.58682 18.8379C1.26682 19.6579 1.69682 20.6879 2.59682 21.0579C2.78682 21.1379 2.96682 21.1779 3.16682 21.1879C3.17682 21.1879 3.19682 21.1879 3.20682 21.1879H20.5868C21.5068 21.1379 22.2568 20.3079 22.1968 19.3379H22.1868Z"/>
    </symbol>
    <symbol viewBox="0 0 20 20" id="external-source">
      <path d="M17.9811 12.4069V14.8034C17.9811 17.1177 16.0978 19 13.7822 19H5.19897C2.88336 19 1 17.1177 1 14.8034V6.23543C1 3.92114 2.88336 2.03886 5.19897 2.03886H7.59691C8.01887 2.03886 8.36878 2.38857 8.36878 2.81029C8.36878 3.232 8.01887 3.58171 7.59691 3.58171H5.19897C3.73756 3.58171 2.54374 4.77486 2.54374 6.23543V14.8034C2.54374 16.264 3.73756 17.4571 5.19897 17.4571H13.7719C15.2333 17.4571 16.4271 16.264 16.4271 14.8034V12.4069C16.4271 11.9851 16.777 11.6354 17.199 11.6354C17.6209 11.6354 17.9708 11.9851 17.9708 12.4069H17.9811ZM18.9485 1.48343C18.8662 1.29829 18.7221 1.144 18.5266 1.06171C18.434 1.02057 18.331 1 18.2281 1H12.0532C11.6312 1 11.2813 1.34971 11.2813 1.77143C11.2813 2.19314 11.6312 2.54286 12.0532 2.54286H16.3654L9.4494 9.45486C9.15094 9.75314 9.15094 10.2469 9.4494 10.5451C9.60377 10.6994 9.79931 10.7714 9.99485 10.7714C10.1904 10.7714 10.3859 10.6994 10.5403 10.5451L17.4563 3.63314V7.94286C17.4563 8.36457 17.8062 8.71429 18.2281 8.71429C18.6501 8.71429 19 8.36457 19 7.94286V1.78171C19 1.67886 18.9794 1.58629 18.9383 1.48343H18.9485Z"/>
    </symbol>
    <symbol viewBox="0 0 41 40" id="star-solid">
      <path d="M21.5262 1.61717L27.2413 12.8819L40.0203 14.6834C40.9576 14.8168 41.3348 15.94 40.649 16.5849L31.4019 25.3476L33.5851 37.7244C33.7451 38.6363 32.7621 39.3257 31.9277 38.892L20.4975 33.0428L9.06723 38.892C8.23282 39.3257 7.24982 38.6251 7.40984 37.7244L9.59302 25.3476L0.345952 16.5849C-0.328432 15.94 0.0373356 14.8168 0.974615 14.6834L13.7536 12.8819L19.4687 1.61717C19.8917 0.794277 21.1033 0.794277 21.5148 1.61717H21.5262Z"/>
    </symbol>
  </defs>
</svg>     