<svg xmlns="http://www.w3.org/2000/svg" xmlns:xlink="http://www.w3.org/1999/xlink">
  <defs>
    <symbol viewBox="0 0 20 20" id="cancel">
      <path d="M15.85 15.16C16.05 15.36 16.05 15.67 15.85 15.87C15.75 15.97 15.62 16.02 15.5 16.02C15.38 16.02 15.24 15.97 15.15 15.87L9.50004 10.22L3.85001 15.87C3.75001 15.97 3.62004 16.02 3.50004 16.02C3.38004 16.02 3.24 15.97 3.15 15.87C2.95 15.67 2.95 15.36 3.15 15.16L8.80002 9.51L3.15 3.86C2.95 3.66 2.95 3.35 3.15 3.15C3.35 2.95 3.66002 2.95 3.86002 3.15L9.51005 8.8L15.16 3.15C15.36 2.95 15.67 2.95 15.87 3.15C16.07 3.35 16.07 3.66 15.87 3.86L10.22 9.51L15.87 15.16H15.85Z"/>
    </symbol>
    <symbol viewBox="0 0 20 20" id="check">
      <path d="M7.19004 15.33C7.06004 15.33 6.93 15.28 6.84 15.18L2.15 10.49C1.95 10.29 1.95 9.98 2.15 9.78C2.35 9.58 2.66002 9.58 2.86002 9.78L7.19004 14.11L17.15 4.15C17.35 3.95 17.66 3.95 17.86 4.15C18.06 4.35 18.06 4.66 17.86 4.86L7.55002 15.17C7.45002 15.27 7.32005 15.32 7.20005 15.32L7.19004 15.33Z"/>
    </symbol>
    <symbol viewBox="0 0 20 20" id="check-sm">
      <path fill-rule="evenodd" clip-rule="evenodd" d="M14.7211 7.27337C15.093 7.63786 15.093 8.22881 14.7211 8.5933L9.48295 13.7266C9.30435 13.9017 9.06211 14 8.80952 14C8.55693 14 8.31469 13.9017 8.13608 13.7266L5.27894 10.9266C4.90702 10.5621 4.90702 9.97118 5.27895 9.6067C5.65088 9.24221 6.25389 9.24221 6.62582 9.6067L8.80952 11.7467L13.3742 7.27337C13.7461 6.90888 14.3491 6.90888 14.7211 7.27337Z"/>
    </symbol>
    <symbol viewBox="0 0 20 20" id="star">
      <path d="M5.03195 18.09C4.82195 18.09 4.62192 18.03 4.44192 17.9C4.13192 17.67 3.9819 17.3 4.0419 16.92L4.89193 11.98L1.3019 8.48C1.0219 8.21 0.931905 7.82 1.0519 7.45C1.1719 7.09 1.4819 6.83 1.8619 6.77L6.82192 6.05L9.04189 1.56C9.21189 1.22 9.55192 1 9.94192 1C10.3219 1 10.6719 1.21 10.8419 1.56L13.0619 6.05L18.0219 6.77C18.4019 6.82 18.7119 7.09 18.8319 7.45C18.9519 7.81 18.8519 8.21 18.5819 8.48L14.9919 11.98L15.8419 16.92C15.9019 17.3 15.7519 17.67 15.4419 17.9C15.1319 18.12 14.7319 18.15 14.3919 17.98L9.96194 15.65L5.53195 17.98C5.38195 18.06 5.22191 18.1 5.06191 18.1L5.03195 18.09ZM9.93191 14.64C10.0919 14.64 10.2519 14.68 10.3919 14.75L14.8219 17.08L13.9719 12.14C13.9119 11.82 14.0219 11.48 14.2619 11.25L17.852 7.76L12.8919 7.04C12.5719 6.99 12.2819 6.79 12.1419 6.49L9.9219 2L7.71194 6.49C7.56194 6.79 7.28194 6.99 6.96194 7.04L2.00192 7.76L5.59194 11.26C5.83194 11.49 5.93192 11.82 5.88192 12.14L5.03195 17.08L9.46194 14.75C9.61194 14.67 9.7619 14.63 9.9219 14.63L9.93191 14.64Z"/>
    </symbol>
    <symbol viewBox="0 0 20 20" id="star-filled">
      <path d="M5.03219 18.0906C4.82219 18.0906 4.62216 18.0306 4.44216 17.9006C4.13216 17.6706 3.98214 17.3006 4.04214 16.9206L4.89218 11.9806L1.30215 8.4806C1.02215 8.2106 0.932149 7.8206 1.05215 7.4506C1.17215 7.0906 1.48215 6.8306 1.86215 6.7706L6.82217 6.0506L9.04214 1.5606C9.21214 1.2206 9.55216 1.0006 9.94216 1.0006C10.3222 1.0006 10.6722 1.2106 10.8422 1.5606L13.0622 6.0506L18.0222 6.7706C18.4022 6.8206 18.7122 7.0906 18.8322 7.4506C18.9522 7.8106 18.8522 8.2106 18.5822 8.4806L14.9922 11.9806L15.8422 16.9206C15.9022 17.3006 15.7522 17.6706 15.4422 17.9006C15.1322 18.1206 14.7322 18.1506 14.3922 17.9806L9.96218 15.6506L5.53219 17.9806C5.38219 18.0606 5.22216 18.1006 5.06216 18.1006L5.03219 18.0906Z"/>
    </symbol>
    <symbol viewBox="0 0 20 20" id="map-marker">
      <path d="M9.89996 19C9.73996 19 9.6 18.93 9.5 18.8L4.20996 11.8C3.40996 10.63 3 9.29 3 7.9C3 4.1 6.08996 1 9.89996 1C13.71 1 16.8 4.09 16.8 7.9C16.8 9.29 16.38 10.64 15.6 11.79L10.3 18.81C10.21 18.93 10.06 19.01 9.89996 19.01V19ZM9.89996 2C6.64996 2 4 4.65 4 7.9C4 9.09 4.34997 10.24 5.02997 11.22L9.89996 17.67L14.79 11.2C15.45 10.24 15.8 9.09 15.8 7.9C15.8 4.65 13.15 2 9.89996 2ZM9.89996 10.52C8.44996 10.52 7.27997 9.34 7.27997 7.9C7.27997 6.46 8.45996 5.28 9.89996 5.28C11.34 5.28 12.52 6.46 12.52 7.9C12.52 9.34 11.34 10.52 9.89996 10.52ZM9.89996 6.28C9.00996 6.28 8.27997 7.01 8.27997 7.9C8.27997 8.79 9.00996 9.52 9.89996 9.52C10.79 9.52 11.52 8.79 11.52 7.9C11.52 7.01 10.79 6.28 9.89996 6.28Z"/>
    </symbol>
    <symbol viewBox="0 0 20 20" id="file-document">
      <path d="M11.81 10.04C11.81 10.32 11.59 10.54 11.31 10.54H6.84003C6.56003 10.54 6.34003 10.32 6.34003 10.04C6.34003 9.76 6.56003 9.54 6.84003 9.54H11.31C11.59 9.54 11.81 9.76 11.81 10.04ZM11.31 11.55H6.84003C6.56003 11.55 6.34003 11.77 6.34003 12.05C6.34003 12.33 6.56003 12.55 6.84003 12.55H11.31C11.59 12.55 11.81 12.33 11.81 12.05C11.81 11.77 11.59 11.55 11.31 11.55ZM10.21 13.56H6.84003C6.56003 13.56 6.34003 13.78 6.34003 14.06C6.34003 14.34 6.56003 14.56 6.84003 14.56H10.21C10.49 14.56 10.71 14.34 10.71 14.06C10.71 13.78 10.49 13.56 10.21 13.56ZM17.42 7.26V16.14C17.42 17.71 16.15 18.98 14.58 18.98H5.84003C4.27003 18.98 3 17.71 3 16.14V3.84C3 2.27 4.27003 1 5.84003 1H11.14C11.21 1 11.27 1.01 11.33 1.04C11.39 1.07 11.45 1.1 11.49 1.15L17.26 6.92C17.26 6.92 17.34 7.02 17.37 7.08C17.4 7.14 17.41 7.21 17.41 7.27L17.42 7.26ZM11.65 4.92C11.65 5.94 12.48 6.76 13.49 6.76H15.72L11.65 2.69V4.91V4.92ZM16.42 16.15V7.77H13.49C11.92 7.77 10.65 6.5 10.65 4.93V2H5.85004C4.83004 2 4.01001 2.83 4.01001 3.84V16.16C4.01001 17.18 4.84004 18 5.85004 18H14.59C15.61 18 16.43 17.17 16.43 16.16L16.42 16.15Z"/>
    </symbol>
    <symbol viewBox="0 0 20 20" id="facebook">
      <path d="M10.63 19.01C10.51 19.01 10.39 18.97 10.3 18.88C10.19 18.79 10.13 18.65 10.13 18.51V12.3C10.13 12.02 10.35 11.8 10.63 11.8H12.66L12.98 10.04H10.63C10.35 10.04 10.13 9.82 10.13 9.54V8.56C10.13 6.82 10.92 6.04 12.68 6.04C12.88 6.04 13.06 6.04 13.22 6.04V4.47C12.78 4.4 12.15 4.34 11.76 4.34C9.02001 4.34 7.84998 5.54 7.84998 8.34V9.53C7.84998 9.81 7.62998 10.03 7.34998 10.03H5.98999V11.79H7.34998C7.62998 11.79 7.84998 12.01 7.84998 12.29V18.3C7.84998 18.45 7.77997 18.6 7.65997 18.69C7.53997 18.78 7.37998 18.82 7.22998 18.78C2.96998 17.72 0 13.92 0 9.53C0 4.27 4.28003 0 9.53003 0C14.78 0 19.06 4.28 19.06 9.53C19.06 14.35 15.46 18.42 10.68 18.99C10.66 18.99 10.64 18.99 10.62 18.99L10.63 19.01ZM11.13 12.8V17.92C15.12 17.17 18.07 13.66 18.07 9.54C18.07 4.83 14.24 1.01 9.53998 1.01C4.83998 1.01 1.01001 4.84 1.01001 9.54C1.01001 13.25 3.38999 16.5 6.85999 17.64V12.8H5.48999C5.20999 12.8 4.98999 12.58 4.98999 12.3V9.54C4.98999 9.26 5.20999 9.04 5.48999 9.04H6.84998V8.35C6.84998 4.99 8.46001 3.35 11.76 3.35C12.39 3.35 13.4 3.47 13.85 3.59C14.07 3.65 14.22 3.85 14.22 4.07V6.57C14.22 6.71 14.16 6.85 14.05 6.94C13.95 7.03 13.8 7.08 13.67 7.07C13.47 7.05 13.11 7.04 12.68 7.04C11.48 7.04 11.13 7.38 11.13 8.56V9.04H13.58C13.73 9.04 13.87 9.11 13.96 9.22C14.06 9.33 14.09 9.48 14.07 9.63L13.56 12.39C13.52 12.63 13.31 12.8 13.07 12.8H11.13Z"/>
    </symbol>
    <symbol viewBox="0 0 20 20" id="facebook-filled">
      <path d="M9.50999 1C4.25999 1 0 5.26 0 10.51C0 14.97 3.07001 18.71 7.21001 19.74V13.42H5.25V10.51H7.21001V9.26C7.21001 6.02 8.67001 4.53 11.85 4.53C12.45 4.53 13.49 4.65 13.92 4.77V7.4C13.7 7.38 13.3 7.37 12.82 7.37C11.26 7.37 10.66 7.96 10.66 9.5V10.53H13.77L13.24 13.44H10.67V19.97C15.38 19.4 19.03 15.39 19.03 10.53C19.03 5.28 14.77 1.02 9.52 1.02L9.50999 1Z"/>
    </symbol>
    <symbol viewBox="0 0 20 20" id="instagram">
      <path d="M13.47 1H5.54004C3.04004 1 1 3.04 1 5.54V13.47C1 15.97 3.04004 18.01 5.54004 18.01H13.47C15.97 18.01 18.01 15.98 18.01 13.47V5.54C18.01 3.04 15.97 1 13.47 1ZM17.01 13.46C17.01 15.41 15.42 17 13.47 17H5.54004C3.59004 17 2 15.41 2 13.46V5.53C2 3.58 3.59004 1.99 5.54004 1.99H13.47C15.42 1.99 17.01 3.58 17.01 5.53V13.46ZM9.51001 5.2C7.14001 5.2 5.22003 7.13 5.22003 9.49C5.22003 11.85 7.15001 13.78 9.51001 13.78C11.87 13.78 13.8 11.85 13.8 9.49C13.8 7.13 11.87 5.2 9.51001 5.2ZM9.51001 12.79C7.69001 12.79 6.22003 11.31 6.22003 9.5C6.22003 7.69 7.70001 6.21 9.51001 6.21C11.32 6.21 12.8 7.69 12.8 9.5C12.8 11.31 11.32 12.79 9.51001 12.79ZM14.23 3.43C13.49 3.43 12.89 4.03 12.89 4.77C12.89 5.51 13.49 6.11 14.23 6.11C14.97 6.11 15.57 5.51 15.57 4.77C15.57 4.03 14.97 3.43 14.23 3.43ZM14.23 5.12C14.04 5.12 13.89 4.97 13.89 4.78C13.89 4.59 14.04 4.44 14.23 4.44C14.42 4.44 14.57 4.59 14.57 4.78C14.57 4.97 14.42 5.12 14.23 5.12Z"/>
    </symbol>
    <symbol viewBox="0 0 20 20" id="instagram-filled">
      <path d="M14.59 2H6.25C3.9 2 2 3.9 2 6.25V14.59C2 16.94 3.9 18.84 6.25 18.84H14.59C16.94 18.84 18.84 16.94 18.84 14.59V6.25C18.84 3.9 16.94 2 14.59 2ZM10.42 14.41C8.21 14.41 6.43 12.62 6.43 10.42C6.43 8.22 8.22 6.43 10.42 6.43C12.62 6.43 14.41 8.22 14.41 10.42C14.41 12.62 12.62 14.41 10.42 14.41ZM15.39 6.33C14.9 6.33 14.5 5.93 14.5 5.44C14.5 4.95 14.9 4.55 15.39 4.55C15.88 4.55 16.28 4.95 16.28 5.44C16.28 5.93 15.88 6.33 15.39 6.33Z"/>
    </symbol>
    <symbol viewBox="0 0 20 20" id="viber">
      <path d="M19.135 4.5325C18.995 2.2625 16.945 0.2425 14.665 0.1125C11.645 -0.0375 8.595 -0.0375 5.575 0.1125C3.295 0.2425 1.255 2.2625 1.105 4.5325C0.965 7.0025 0.965 9.5125 1.105 11.9925C1.245 14.2525 3.295 16.2725 5.575 16.4025H5.90502V18.5025C5.90502 18.6825 5.99502 18.8425 6.15502 18.9325C6.23502 18.9725 6.31502 19.0025 6.40502 19.0025C6.49502 19.0025 6.57502 18.9825 6.65502 18.9325L10.865 16.5125C12.155 16.5025 13.435 16.4625 14.665 16.4025C16.945 16.2725 18.985 14.2525 19.135 11.9825C19.275 9.5125 19.275 7.0025 19.135 4.5225V4.5325ZM18.135 11.9325C18.025 13.6825 16.375 15.3125 14.615 15.4125C13.355 15.4725 12.045 15.5125 10.725 15.5225C10.635 15.5225 10.555 15.5425 10.475 15.5925L6.90502 17.6525V15.9525C6.90502 15.6825 6.69501 15.4625 6.42501 15.4525L5.62502 15.4225C3.85502 15.3225 2.21502 13.6925 2.09502 11.9525C1.96502 9.5125 1.96502 7.0425 2.09502 4.6125C2.20502 2.8625 3.85501 1.2325 5.61501 1.1325C7.10501 1.0625 8.61501 1.0225 10.115 1.0225C11.615 1.0225 13.115 1.0625 14.605 1.1325C16.375 1.2325 18.015 2.8525 18.135 4.6125C18.265 7.0525 18.265 9.5225 18.135 11.9525V11.9325ZM12.765 9.4525C12.195 8.8725 11.255 8.8825 10.675 9.4525L10.535 9.5925C10.195 9.9325 9.59501 9.9325 9.24501 9.5925L8.355 8.7025C8.005 8.3525 8.005 7.7725 8.355 7.4125L8.49501 7.2725C9.07501 6.6925 9.07501 5.7625 8.49501 5.1825L7.37502 4.0625C6.81502 3.5025 5.84502 3.5025 5.28502 4.0625L4.71502 4.6325C4.17502 5.1725 3.39501 8.7225 6.30501 11.6325C7.94501 13.2725 9.78502 13.7425 11.185 13.7425C12.265 13.7425 13.075 13.4625 13.315 13.2225L13.885 12.6525C14.165 12.3725 14.315 12.0025 14.315 11.6125C14.315 11.2225 14.165 10.8425 13.885 10.5725L12.765 9.4525ZM13.185 11.9525L12.645 12.5025C12.355 12.6925 9.53501 13.4425 7.02501 10.9325C4.51501 8.4225 5.26502 5.6025 5.43502 5.3425L6.00502 4.7725C6.09502 4.6825 6.21502 4.6325 6.34502 4.6325C6.47502 4.6325 6.59502 4.6825 6.68502 4.7725L7.80501 5.8925C7.99501 6.0825 7.99501 6.3825 7.80501 6.5625L7.665 6.7025C6.915 7.4425 6.915 8.6625 7.665 9.4025L8.55501 10.2925C9.27501 11.0125 10.535 11.0125 11.255 10.2925L11.395 10.1525C11.585 9.9625 11.885 9.9625 12.065 10.1525L13.185 11.2725C13.275 11.3625 13.325 11.4825 13.325 11.6125C13.325 11.7425 13.275 11.8625 13.185 11.9525ZM12.875 7.8625C12.965 7.0825 12.705 6.3225 12.155 5.7725C11.605 5.2225 10.845 4.9525 10.065 5.0425C9.79502 5.0725 9.54503 4.8825 9.51503 4.6025C9.48503 4.3325 9.68504 4.0825 9.95504 4.0525C11.035 3.9325 12.105 4.2925 12.875 5.0625C13.645 5.8325 14.015 6.8925 13.885 7.9825C13.855 8.2325 13.635 8.4225 13.385 8.4225C13.365 8.4225 13.345 8.4225 13.325 8.4225C13.055 8.3925 12.855 8.1425 12.885 7.8725L12.875 7.8625ZM14.005 3.9125C15.075 4.9725 15.615 6.4525 15.495 7.9625C15.475 8.2225 15.255 8.4225 14.995 8.4225C14.985 8.4225 14.965 8.4225 14.955 8.4225C14.675 8.4025 14.475 8.1625 14.495 7.8825C14.595 6.6625 14.155 5.4725 13.295 4.6225C12.435 3.7625 11.245 3.3325 10.035 3.4225C9.78499 3.4425 9.51501 3.2425 9.49501 2.9625C9.47501 2.6825 9.67504 2.4425 9.95504 2.4225C11.455 2.3025 12.945 2.8425 14.005 3.9125ZM9.855 5.7325C10.505 5.5625 11.215 5.7525 11.695 6.2225C12.175 6.7025 12.365 7.4025 12.185 8.0625C12.125 8.2925 11.925 8.4325 11.705 8.4325C11.665 8.4325 11.625 8.4325 11.575 8.4125C11.305 8.3425 11.145 8.0725 11.215 7.8025C11.295 7.4925 11.215 7.1525 10.985 6.9225C10.755 6.6925 10.425 6.6025 10.105 6.6925C9.835 6.7625 9.56501 6.6025 9.49501 6.3325C9.42501 6.0625 9.585 5.7925 9.855 5.7225V5.7325Z"/>
    </symbol>
    <symbol viewBox="0 0 20 20" id="viber-filled">
      <path d="M19.045 5.27C18.915 3.15 16.965 1.24 14.835 1.12C11.665 0.96 8.495 0.96 5.315 1.12C3.195 1.24 1.245 3.15 1.105 5.27C0.965 7.87 0.965 10.46 1.105 13.06C1.235 15.18 3.185 17.09 5.315 17.21C5.595 17.22 5.885 17.24 6.165 17.25V19.95L10.715 17.33C12.085 17.33 13.455 17.28 14.835 17.22C16.955 17.1 18.905 15.19 19.045 13.07C19.185 10.47 19.185 7.88 19.045 5.28V5.27ZM12.325 6.43C11.715 5.82 10.855 5.52 9.995 5.62C9.775 5.64 9.605 5.5 9.575 5.29C9.555 5.08 9.695 4.9 9.905 4.87C11.005 4.75 12.075 5.12 12.855 5.89C13.635 6.67 14.005 7.74 13.875 8.84C13.855 9.03 13.695 9.17 13.505 9.17C13.495 9.17 13.475 9.17 13.465 9.17C13.255 9.15 13.115 8.96 13.135 8.75C13.235 7.88 12.945 7.03 12.325 6.42V6.43ZM9.835 6.65C10.475 6.48 11.155 6.67 11.625 7.13C12.085 7.59 12.275 8.28 12.105 8.92C12.065 9.09 11.905 9.2 11.745 9.2C11.715 9.2 11.685 9.2 11.645 9.19C11.445 9.14 11.325 8.93 11.375 8.73C11.475 8.35 11.375 7.94 11.085 7.66C10.805 7.38 10.395 7.27 10.015 7.37C9.805 7.42 9.605 7.3 9.555 7.1C9.505 6.9 9.625 6.69 9.825 6.64L9.835 6.65ZM13.675 13.43L13.075 14.03C12.745 14.36 9.355 15.26 6.445 12.36C3.535 9.45 4.435 6.07 4.775 5.73L5.375 5.13C5.775 4.73 6.425 4.73 6.825 5.13L8.005 6.31C8.405 6.71 8.405 7.36 8.005 7.76L7.855 7.91C7.275 8.49 7.275 9.43 7.855 10.01L8.325 10.48L8.795 10.95C9.375 11.53 10.315 11.53 10.895 10.95L11.045 10.8C11.445 10.4 12.095 10.4 12.495 10.8L13.675 11.98C14.075 12.38 14.075 13.03 13.675 13.43ZM15.575 8.85C15.555 9.05 15.395 9.2 15.205 9.2C15.205 9.2 15.185 9.2 15.175 9.2C14.965 9.18 14.815 9 14.835 8.8C14.945 7.47 14.465 6.18 13.535 5.24C12.605 4.31 11.305 3.83 9.975 3.94C9.775 3.96 9.585 3.8 9.575 3.6C9.555 3.39 9.715 3.21 9.915 3.2C11.465 3.08 12.965 3.63 14.055 4.72C15.145 5.81 15.695 7.32 15.575 8.87V8.85Z"/>
    </symbol>
    <symbol viewBox="0 0 20 20" id="telegram">
      <path d="M15.6023 17.9834C15.3223 17.9834 15.0422 17.9034 14.7922 17.7534L9.06226 14.1634C8.65226 13.9034 8.38227 13.4734 8.32227 12.9834C8.26227 12.4834 8.42225 11.9934 8.77225 11.6434L11.9023 8.4134L7.16227 11.6934C6.50227 12.1434 5.70225 12.2634 4.95225 12.0334L1.80225 11.0334C1.34225 10.8834 1.03227 10.4734 1.00227 9.9834C0.972265 9.4834 1.24227 9.0434 1.69227 8.8434L16.9723 2.1334C17.4923 1.9034 18.0622 1.9734 18.5122 2.3234C18.9822 2.6834 19.2123 3.2834 19.1223 3.8734L17.1423 16.6434C17.0623 17.1834 16.7222 17.6434 16.2322 17.8634C16.0322 17.9534 15.8123 18.0034 15.6023 18.0034V17.9834ZM14.1023 5.8234C14.3023 5.8234 14.4922 5.9134 14.6422 6.0734C14.8822 6.3634 14.8723 6.7834 14.6123 7.0534L9.49226 12.3234C9.36226 12.4634 9.29227 12.6534 9.32227 12.8534C9.34227 13.0434 9.44227 13.2134 9.60227 13.3034L15.3323 16.8934C15.5423 17.0234 15.7323 16.9734 15.8223 16.9234C16.0023 16.8434 16.1223 16.6734 16.1623 16.4634L18.1423 3.6934C18.1823 3.4534 18.0923 3.2234 17.9123 3.0834C17.8423 3.0234 17.6323 2.9034 17.3823 3.0134L2.10227 9.7234C2.01227 9.7634 2.01224 9.8534 2.01224 9.8934C2.01224 9.9434 2.03225 10.0234 2.11225 10.0434L5.26224 11.0434C5.72224 11.1834 6.20227 11.1134 6.60227 10.8334L13.7123 5.9234C13.8323 5.8334 13.9723 5.7934 14.1123 5.7934L14.1023 5.8234Z"/>
    </symbol>
    <symbol viewBox="0 0 20 20" id="telegram-filled">
      <path d="M19.0333 3.36461C19.1733 2.45461 18.3133 1.73461 17.5033 2.09461L1.41329 9.15461C0.833294 9.40461 0.873294 10.2846 1.47329 10.4746L4.79329 11.5346C5.42329 11.7346 6.11329 11.6346 6.66329 11.2546L14.1433 6.08461C14.3733 5.92461 14.6133 6.24461 14.4233 6.44461L9.04329 11.9946C8.52329 12.5346 8.62329 13.4446 9.25329 13.8446L15.2833 17.6246C15.9633 18.0446 16.8333 17.6246 16.9533 16.8046L19.0333 3.36461Z"/>
    </symbol>
    <symbol viewBox="0 0 20 20" id="arrow-left">
      <path d="M17.9875 9.99C17.9875 10.27 17.7675 10.49 17.4875 10.49H3.6975L10.3475 17.14C10.5475 17.34 10.5475 17.65 10.3475 17.85C10.2475 17.95 10.1175 18 9.99752 18C9.87752 18 9.73752 17.95 9.64752 17.85L2.14752 10.35C2.14752 10.35 2.0675 10.25 2.0375 10.19C1.9875 10.07 1.9875 9.93 2.0375 9.81C2.0675 9.75 2.09752 9.69 2.14752 9.65L9.64752 2.15C9.84752 1.95 10.1575 1.95 10.3575 2.15C10.5575 2.35 10.5575 2.66 10.3575 2.86L3.70751 9.51H17.4975C17.7775 9.51 17.9975 9.73 17.9975 10.01L17.9875 9.99Z"/>
    </symbol>
    <symbol viewBox="0 0 20 20" id="arrow-top">
      <path d="M17.86 10.3575C17.76 10.4575 17.63 10.5075 17.51 10.5075C17.39 10.5075 17.25 10.4575 17.16 10.3575L10.51 3.7075V17.4975C10.51 17.7775 10.29 17.9975 10.01 17.9975C9.73002 17.9975 9.51002 17.7775 9.51002 17.4975V3.7075L2.86002 10.3575C2.66002 10.5575 2.35 10.5575 2.15 10.3575C1.95 10.1575 1.95 9.8475 2.15 9.6475L9.65 2.1475C9.65 2.1475 9.75 2.0675 9.81 2.0375C9.93 1.9875 10.07 1.9875 10.19 2.0375C10.25 2.0675 10.31 2.0975 10.35 2.1475L17.85 9.6475C18.05 9.8475 18.05 10.1575 17.85 10.3575H17.86Z"/>
    </symbol>
    <symbol viewBox="0 0 20 20" id="arrow-right">
      <path d="M17.84 10.37L10.34 17.87C10.24 17.97 10.11 18.02 9.99002 18.02C9.87002 18.02 9.73001 17.97 9.64001 17.87C9.44001 17.67 9.44001 17.36 9.64001 17.16L16.29 10.51H2.5C2.22 10.51 2 10.29 2 10.01C2 9.73 2.22 9.51 2.5 9.51H16.29L9.64001 2.86C9.44001 2.66 9.44001 2.35 9.64001 2.15C9.84001 1.95 10.15 1.95 10.35 2.15L17.85 9.65C17.85 9.65 17.93 9.75 17.96 9.81C18.01 9.93 18.01 10.07 17.96 10.19C17.93 10.25 17.9 10.31 17.85 10.35L17.84 10.37Z"/>
    </symbol>
    <symbol viewBox="0 0 20 20" id="arrow-bottom">
      <path d="M17.85 10.35L10.35 17.85C10.35 17.85 10.25 17.93 10.19 17.96C10.13 17.99 10.06 18 10 18C9.94001 18 9.87 17.99 9.81 17.96C9.75 17.93 9.69 17.9 9.65 17.85L2.15 10.35C1.95 10.15 1.95 9.84 2.15 9.64C2.35 9.44 2.65999 9.44 2.85999 9.64L9.50999 16.29V2.5C9.50999 2.22 9.72998 2 10.01 2C10.29 2 10.51 2.22 10.51 2.5V16.29L17.16 9.64C17.36 9.44 17.67 9.44 17.87 9.64C18.07 9.84 18.07 10.15 17.87 10.35H17.85Z"/>
    </symbol>
    <symbol viewBox="0 0 20 20" id="arrow-left-sm">
      <path d="M17.9875 9.99C17.9875 10.27 17.7675 10.49 17.4875 10.49H3.6975L5.3475 12.14C5.5475 12.34 5.5475 12.65 5.3475 12.85C5.2475 12.95 5.11752 13 4.99752 13C4.87752 13 4.73752 12.95 4.64752 12.85L2.14752 10.35C2.14752 10.35 2.0675 10.25 2.0375 10.19C1.9875 10.07 1.9875 9.93 2.0375 9.81C2.0675 9.75 2.09752 9.69 2.14752 9.65L4.64752 7.15C4.84752 6.95 5.15751 6.95 5.35751 7.15C5.55751 7.35 5.55751 7.66 5.35751 7.86L3.70751 9.51H17.4975C17.7775 9.51 17.9975 9.73 17.9975 10.01L17.9875 9.99Z"/>
    </symbol>
    <symbol viewBox="0 0 20 20" id="arrow-top-sm">
      <path d="M12.86 5.3575C12.76 5.4575 12.63 5.5075 12.51 5.5075C12.39 5.5075 12.25 5.4575 12.16 5.3575L10.51 3.7075V17.4975C10.51 17.7775 10.29 17.9975 10.01 17.9975C9.73002 17.9975 9.51002 17.7775 9.51002 17.4975V3.7075L7.86002 5.3575C7.66002 5.5575 7.35 5.5575 7.15 5.3575C6.95 5.1575 6.95 4.8475 7.15 4.6475L9.65 2.1475C9.65 2.1475 9.75 2.0675 9.81 2.0375C9.93 1.9875 10.07 1.9875 10.19 2.0375C10.25 2.0675 10.31 2.0975 10.35 2.1475L12.85 4.6475C13.05 4.8475 13.05 5.1575 12.85 5.3575H12.86Z"/>
    </symbol>
    <symbol viewBox="0 0 20 20" id="arrow-right-sm">
      <path d="M17.84 10.37L15.34 12.87C15.24 12.97 15.11 13.02 14.99 13.02C14.87 13.02 14.73 12.97 14.64 12.87C14.44 12.67 14.44 12.36 14.64 12.16L16.29 10.51H2.5C2.22 10.51 2 10.29 2 10.01C2 9.73 2.22 9.51 2.5 9.51H16.29L14.64 7.86C14.44 7.66 14.44 7.35 14.64 7.15C14.84 6.95 15.15 6.95 15.35 7.15L17.85 9.65C17.85 9.65 17.93 9.75 17.96 9.81C18.01 9.93 18.01 10.07 17.96 10.19C17.93 10.25 17.9 10.31 17.85 10.35L17.84 10.37Z"/>
    </symbol>
    <symbol viewBox="0 0 20 20" id="arrow-bottom-sm">
      <path d="M12.85 15.35L10.35 17.85C10.35 17.85 10.25 17.93 10.19 17.96C10.13 17.99 10.06 18 10 18C9.94001 18 9.87 17.99 9.81 17.96C9.75 17.93 9.69 17.9 9.65 17.85L7.15 15.35C6.95 15.15 6.95 14.84 7.15 14.64C7.35 14.44 7.66001 14.44 7.86001 14.64L9.51 16.29V2.5C9.51 2.22 9.73 2 10.01 2C10.29 2 10.51 2.22 10.51 2.5V16.29L12.16 14.64C12.36 14.44 12.67 14.44 12.87 14.64C13.07 14.84 13.07 15.15 12.87 15.35H12.85Z"/>
    </symbol>
    <symbol viewBox="0 0 20 20" id="shevron-bottom">
      <path d="M10 14.51C9.87001 14.51 9.74 14.46 9.65 14.36L2.15 6.86C1.95 6.66 1.95 6.35 2.15 6.15C2.35 5.95 2.66001 5.95 2.86001 6.15L10.01 13.3L17.16 6.15C17.36 5.95 17.67 5.95 17.87 6.15C18.07 6.35 18.07 6.66 17.87 6.86L10.37 14.36C10.27 14.46 10.14 14.51 10.02 14.51H10Z"/>
    </symbol>
    <symbol viewBox="0 0 20 20" id="shevron-top">
      <path d="M17.51 14.51C17.38 14.51 17.25 14.46 17.16 14.36L10.01 7.21L2.86001 14.36C2.66001 14.56 2.35 14.56 2.15 14.36C1.95 14.16 1.95 13.85 2.15 13.65L9.65 6.15C9.85 5.95 10.16 5.95 10.36 6.15L17.86 13.65C18.06 13.85 18.06 14.16 17.86 14.36C17.76 14.46 17.63 14.51 17.51 14.51Z"/>
    </symbol>
    <symbol viewBox="0 0 20 20" id="shevron-left">
      <path d="M14 18.01C13.87 18.01 13.74 17.96 13.65 17.86L6.15 10.36C5.95 10.16 5.95 9.85 6.15 9.65L13.65 2.15C13.85 1.95 14.16 1.95 14.36 2.15C14.56 2.35 14.56 2.66 14.36 2.86L7.21 10.01L14.36 17.16C14.56 17.36 14.56 17.67 14.36 17.87C14.26 17.97 14.13 18.02 14.01 18.02L14 18.01Z"/>
    </symbol>
    <symbol viewBox="0 0 20 20" id="shevron-right">
      <path d="M6.5 18.02C6.37 18.02 6.24 17.97 6.15 17.87C5.95 17.67 5.95 17.36 6.15 17.16L13.3 10.01L6.15 2.86C5.95 2.66 5.95 2.35 6.15 2.15C6.35 1.95 6.66 1.95 6.86 2.15L14.36 9.65C14.56 9.85 14.56 10.16 14.36 10.36L6.86 17.86C6.76 17.96 6.63 18.01 6.51 18.01L6.5 18.02Z"/>
    </symbol>
    <symbol viewBox="0 0 20 20" id="shevron-bottom-sm">
      <path d="M10.25 12.76C10.12 12.76 9.99 12.71 9.9 12.61L6.15 8.86C5.95 8.66 5.95 8.35 6.15 8.15C6.35 7.95 6.66001 7.95 6.86001 8.15L10.26 11.55L13.66 8.15C13.86 7.95 14.17 7.95 14.37 8.15C14.57 8.35 14.57 8.66 14.37 8.86L10.62 12.61C10.52 12.71 10.39 12.76 10.27 12.76H10.25Z"/>
    </symbol>
    <symbol viewBox="0 0 20 20" id="shevron-top-sm">
      <path d="M14.01 12.76C13.88 12.76 13.75 12.71 13.66 12.61L10.26 9.21L6.86 12.61C6.66 12.81 6.35 12.81 6.15 12.61C5.95 12.41 5.95 12.1 6.15 11.9L9.9 8.15C10.1 7.95 10.41 7.95 10.61 8.15L14.36 11.9C14.56 12.1 14.56 12.41 14.36 12.61C14.26 12.71 14.13 12.76 14.01 12.76Z"/>
    </symbol>
    <symbol viewBox="0 0 20 20" id="shevron-right-sm">
      <path d="M8.5 14.52C8.37 14.52 8.24 14.47 8.15 14.37C7.95 14.17 7.95 13.86 8.15 13.66L11.55 10.26L8.15 6.86C7.95 6.66 7.95 6.35 8.15 6.15C8.35 5.95 8.66 5.95 8.86 6.15L12.61 9.9C12.81 10.1 12.81 10.41 12.61 10.61L8.86 14.36C8.76 14.46 8.63 14.51 8.51 14.51L8.5 14.52Z"/>
    </symbol>
    <symbol viewBox="0 0 20 20" id="shevron-left-sm">
      <path d="M12.25 14.51C12.12 14.51 11.99 14.46 11.9 14.36L8.15 10.61C7.95 10.41 7.95 10.1 8.15 9.9L11.9 6.15C12.1 5.95 12.41 5.95 12.61 6.15C12.81 6.35 12.81 6.66 12.61 6.86L9.21 10.26L12.61 13.66C12.81 13.86 12.81 14.17 12.61 14.37C12.51 14.47 12.38 14.52 12.26 14.52L12.25 14.51Z"/>
    </symbol>
    <symbol viewBox="0 0 20 20" id="calendar">
      <path d="M9.17502 10.8833C9.17502 10.5417 9.45002 10.2583 9.80002 10.2583C10.1417 10.2583 10.425 10.5417 10.425 10.8833C10.425 11.225 10.1417 11.5083 9.80002 11.5083C9.45835 11.5083 9.17502 11.225 9.17502 10.8833ZM13.5 14.75C13.8417 14.75 14.125 14.4667 14.125 14.125C14.125 13.7833 13.8417 13.5 13.5 13.5C13.1584 13.5 12.875 13.7833 12.875 14.125C12.875 14.4667 13.1584 14.75 13.5 14.75ZM13.5 11.5083C13.8417 11.5083 14.125 11.225 14.125 10.8833C14.125 10.5417 13.8417 10.2583 13.5 10.2583C13.1584 10.2583 12.875 10.5417 12.875 10.8833C12.875 11.225 13.1584 11.5083 13.5 11.5083ZM6.10002 11.5083C6.44169 11.5083 6.72502 11.225 6.72502 10.8833C6.72502 10.5417 6.44169 10.2583 6.10002 10.2583C5.75835 10.2583 5.47502 10.5417 5.47502 10.8833C5.47502 11.225 5.75835 11.5083 6.10002 11.5083ZM9.80835 14.75C10.15 14.75 10.4334 14.4667 10.4334 14.125C10.4334 13.7833 10.15 13.5 9.80835 13.5C9.46669 13.5 9.18335 13.7833 9.18335 14.125C9.18335 14.4667 9.46669 14.75 9.80835 14.75ZM6.10002 14.75C6.44169 14.75 6.72502 14.4667 6.72502 14.125C6.72502 13.7833 6.44169 13.5 6.10002 13.5C5.75835 13.5 5.47502 13.7833 5.47502 14.125C5.47502 14.4667 5.75835 14.75 6.10002 14.75ZM17.9167 6.65V14.25C17.9167 17.025 16.15 18.75 13.3167 18.75H6.26669C3.42502 18.75 1.66669 17 1.66669 14.1833V6.64167C1.66669 4.03333 3.25002 2.36667 5.80002 2.18333V1.45833C5.80002 1.11667 6.08335 0.833332 6.42502 0.833332C6.76669 0.833332 7.05002 1.11667 7.05002 1.45833V2.15H12.5334V1.45833C12.5334 1.11667 12.8167 0.833332 13.1584 0.833332C13.5 0.833332 13.7834 1.11667 13.7834 1.45833V2.18333C14.9917 2.26667 16.0167 2.66667 16.725 3.38333C17.5084 4.16667 17.9167 5.29167 17.9167 6.65ZM16.6667 8.25833H2.91669V14.1917C2.91669 16.3333 4.10835 17.5083 6.26669 17.5083H13.3167C15.475 17.5083 16.6667 16.35 16.6667 14.2583V8.26667V8.25833ZM16.6667 6.65C16.6667 5.625 16.3917 4.825 15.8417 4.275C15.3584 3.79167 14.65 3.51667 13.7834 3.44167V4.20833C13.7834 4.55 13.5 4.83333 13.1584 4.83333C12.8167 4.83333 12.5334 4.55 12.5334 4.20833V3.40833H7.05002V4.20833C7.05002 4.55 6.76669 4.83333 6.42502 4.83333C6.08335 4.83333 5.80002 4.55 5.80002 4.20833V3.44167C3.94169 3.6 2.91669 4.71667 2.91669 6.65V7.00833H16.6667V6.65Z"/>
    </symbol>
    <symbol viewBox="0 0 20 20" id="image">
      <path d="M7.46129 5.41612C6.37077 5.41612 5.47219 6.30501 5.47219 7.40305C5.47219 8.50109 6.36205 9.38998 7.46129 9.38998C8.56052 9.38998 9.45038 8.50109 9.45038 7.40305C9.45038 6.30501 8.56052 5.41612 7.46129 5.41612ZM7.46129 8.42266C6.89422 8.42266 6.43184 7.96078 6.43184 7.39434C6.43184 6.82789 6.89422 6.36601 7.46129 6.36601C8.02835 6.36601 8.49073 6.82789 8.49073 7.39434C8.49073 7.96078 8.02835 8.42266 7.46129 8.42266ZM16.7176 3.22876C15.9149 2.42702 14.8157 2 13.542 2H6.47546C3.79716 2 2 3.88235 2 6.67974V13.3203C2 14.4967 2.33152 15.4902 2.88986 16.2658C2.90731 16.2919 2.92475 16.3181 2.95093 16.3442C3.7361 17.3813 4.95747 18 6.47546 18H13.5245C16.2028 18 18 16.1176 18 13.3203V12.4749C18 12.4749 18 12.4227 18 12.3878V6.68845C18 5.30283 17.5463 4.07407 16.7088 3.23747L16.7176 3.22876ZM17.0491 13.3115C17.0491 15.5686 15.6707 17.0327 13.5333 17.0327H6.47546C5.38495 17.0327 4.49509 16.6492 3.87568 15.9695C4.4602 14.9935 5.15812 14.0959 5.96074 13.3377C6.44929 12.9368 6.97274 13.1285 7.84515 13.4946C8.41221 13.7386 9.0578 14.0087 9.75573 14.0087C10.7503 14.0087 11.4395 13.0414 12.1025 12.1089C12.6434 11.3508 13.2017 10.5577 13.7514 10.5577C15.0338 10.5577 16.325 11.8649 17.0403 12.6057V13.3115H17.0491ZM17.0491 11.2549C16.2028 10.4706 15.0425 9.59913 13.7601 9.59913C12.7132 9.59913 12.0153 10.5926 11.3261 11.5512C10.8026 12.2832 10.2617 13.0501 9.75573 13.0501C9.24973 13.0501 8.72628 12.8322 8.22028 12.6144C7.3217 12.2397 6.30971 11.8126 5.32388 12.6231C4.55616 13.3551 3.88441 14.1743 3.30861 15.0719C3.09051 14.5664 2.95965 13.9826 2.95965 13.3203V6.67974C2.95965 4.42266 4.33806 2.95861 6.47546 2.95861H13.5333C14.554 2.95861 15.4177 3.28976 16.0284 3.9085C16.6914 4.57952 17.0491 5.53813 17.0403 6.67974V11.2549H17.0491Z"/>
    </symbol>
    <symbol viewBox="0 0 20 20" id="map-marker-alt">
      <path d="M12.7233 18.2344C12.5733 18.2344 12.4233 18.2177 12.2733 18.1677C11.8816 18.0511 11.54 17.7927 11.3316 17.4427C11.3066 17.4011 11.2899 17.3594 11.2733 17.3094L9.18995 10.7511L2.58162 8.61774C2.53162 8.60107 2.48995 8.58441 2.44828 8.55941C1.68162 8.10107 1.43995 7.09274 1.89828 6.33441C2.11495 5.98441 2.44828 5.72607 2.84828 5.60941L16.2483 1.73441C16.665 1.60941 17.0983 1.65941 17.4816 1.86774C17.8649 2.07607 18.14 2.41774 18.265 2.83441C18.3566 3.14274 18.3566 3.45941 18.265 3.76774L14.2899 17.0677C14.0816 17.7761 13.4316 18.2344 12.7316 18.2344H12.7233ZM12.4316 16.8511C12.4816 16.9094 12.54 16.9511 12.615 16.9761C12.815 17.0261 13.0233 16.9177 13.0816 16.7177L17.0566 3.40941C17.0816 3.33441 17.0816 3.25941 17.0566 3.19274C17.0316 3.09274 16.965 3.01774 16.8733 2.96774C16.7816 2.91774 16.6816 2.90941 16.59 2.93441L3.18995 6.80941C3.09828 6.83441 3.01495 6.89274 2.96495 6.97607C2.86495 7.13441 2.90662 7.34274 3.04828 7.45941L9.88162 9.66774C10.0733 9.72607 10.2233 9.88441 10.2816 10.0761L12.4316 16.8511Z" />
    </symbol>
  </defs>
</svg>     