
<svg xmlns="http://www.w3.org/2000/svg" xmlns:xlink="http://www.w3.org/1999/xlink">
<path d="M9.89996 19C9.73996 19 9.6 18.93 9.5 18.8L4.20996 11.8C3.40996 10.63 3 9.29 3 7.9C3 4.1 6.08996 1 9.89996 1C13.71 1 16.8 4.09 16.8 7.9C16.8 9.29 16.38 10.64 15.6 11.79L10.3 18.81C10.21 18.93 10.06 19.01 9.89996 19.01V19ZM9.89996 2C6.64996 2 4 4.65 4 7.9C4 9.09 4.34997 10.24 5.02997 11.22L9.89996 17.67L14.79 11.2C15.45 10.24 15.8 9.09 15.8 7.9C15.8 4.65 13.15 2 9.89996 2ZM9.89996 10.52C8.44996 10.52 7.27997 9.34 7.27997 7.9C7.27997 6.46 8.45996 5.28 9.89996 5.28C11.34 5.28 12.52 6.46 12.52 7.9C12.52 9.34 11.34 10.52 9.89996 10.52ZM9.89996 6.28C9.00996 6.28 8.27997 7.01 8.27997 7.9C8.27997 8.79 9.00996 9.52 9.89996 9.52C10.79 9.52 11.52 8.79 11.52 7.9C11.52 7.01 10.79 6.28 9.89996 6.28Z"/>
</svg>