<?xml version="1.0" encoding="UTF-8"?> <svg xmlns="http://www.w3.org/2000/svg" width="50" height="50" viewBox="0 0 50 50" fill="none"><path d="M24.9981 23.6937C24.9309 23.6937 24.8644 23.6937 24.7976 23.6937C17.6288 23.681 10.4558 22.9813 3.47711 21.6146C3.19899 21.5601 2.99847 21.3138 3.00001 21.0286C3.00155 20.7433 3.20437 20.4994 3.48326 20.4476C5.50191 20.0735 7.54629 19.6819 9.55994 19.2842C11.1003 18.98 12.6815 18.4245 14.2103 17.8872C14.6582 17.7299 15.1046 17.573 15.5494 17.4222C17.6153 16.7226 19.9747 16.7825 22.0202 17.5857C22.394 17.733 22.7682 17.8803 23.1427 18.0175C24.3232 18.4508 25.6776 18.45 26.8573 18.0175C27.2319 17.8803 27.606 17.733 27.9794 17.5861C30.0257 16.7821 32.3835 16.7226 34.4506 17.4222C34.8946 17.573 35.3406 17.7295 35.7878 17.8865C37.3174 18.4241 38.8989 18.9796 40.4401 19.2842C42.4537 19.6819 44.4981 20.0735 46.5167 20.4476C46.7956 20.4994 46.9985 20.7433 47 21.0286C47.0015 21.3138 46.801 21.5601 46.5229 21.6146C39.4782 22.9945 32.2372 23.6937 24.9981 23.6937ZM6.85945 21.0189C12.7621 21.9961 18.7823 22.4955 24.7999 22.5063C30.9603 22.504 37.1073 22.0173 43.1406 21.0189C42.1618 20.8314 41.1838 20.6409 40.2127 20.4492C38.5893 20.1287 36.9671 19.5586 35.3986 19.0078C34.9557 18.852 34.514 18.6966 34.0741 18.5478C32.2648 17.9352 30.2001 17.9877 28.4092 18.692C28.027 18.8423 27.6444 18.9927 27.2614 19.133C25.824 19.6603 24.176 19.6603 22.7386 19.133C22.3556 18.9927 21.973 18.8423 21.5904 18.6916C19.7999 17.9885 17.7344 17.9352 15.9259 18.5478C15.4853 18.697 15.0431 18.8524 14.5995 19.0082C13.0314 19.559 11.4099 20.1287 9.78735 20.4492C8.81625 20.6409 7.83823 20.8314 6.85945 21.0189Z" fill="black"></path><path d="M25.0004 34.9708C22.4101 34.9708 19.8038 34.7667 17.2531 34.3644C15.1326 34.0327 13.1205 33.1429 11.4345 31.7912C9.75585 30.4534 8.44172 28.6812 7.63541 26.6677L6.05506 22.7088C5.93329 22.4042 6.08003 22.0587 6.38235 21.9365C6.68389 21.8132 7.02808 21.9613 7.14985 22.2659L8.7302 26.2244C9.45968 28.0465 10.649 29.6502 12.1686 30.8616C13.6956 32.0857 15.5164 32.8909 17.4352 33.1912C22.4109 33.9763 27.5649 33.9786 32.5656 33.1912C36.4592 32.5809 39.7947 29.9111 41.2706 26.224L42.8513 22.2659C42.9727 21.9613 43.3157 21.8132 43.6188 21.9365C43.9211 22.0587 44.0679 22.4046 43.9461 22.7088L42.3654 26.6673C40.7347 30.7406 37.0493 33.6899 32.7477 34.3647C30.1905 34.7667 27.5837 34.9708 25.0004 34.9708Z" fill="black"></path><path d="M28.5444 30.1998H21.4905C21.0745 30.1998 20.6831 30.1828 20.327 30.1488C18.4985 29.9996 16.7322 29.4944 15.0846 28.6475C13.1493 27.6452 11.4434 26.1772 10.1496 24.4011L9.46467 23.4572C9.39092 23.3555 9.35135 23.233 9.35135 23.107C9.35135 22.7792 9.61564 22.5098 9.94139 22.5098C10.1607 22.5098 10.352 22.6284 10.4538 22.8062L11.1023 23.6999C12.2873 25.3276 13.8511 26.6731 15.6232 27.5907C17.1309 28.3657 18.7485 28.8288 20.4299 28.966C20.7572 28.9969 21.1114 29.0124 21.4905 29.0124H28.5444C29.2094 29.0124 29.8728 28.9595 30.5166 28.8547C32.1338 28.6042 33.6654 28.053 35.0725 27.2154C36.634 26.3024 37.9581 25.0872 39.0114 23.6021L39.6142 22.7544C39.8039 22.4873 40.1727 22.4267 40.4374 22.6172C40.7024 22.8082 40.7635 23.1789 40.5737 23.4456L39.9714 24.2925C38.8205 25.9155 37.3731 27.2436 35.6694 28.2397C34.136 29.1523 32.4627 29.7546 30.7006 30.0274C29.9992 30.1415 29.272 30.1998 28.5444 30.1998Z" fill="black"></path><path d="M25.4794 30.1998C25.1537 30.1998 24.8894 29.9339 24.8894 29.6061V23.1C24.8894 22.7722 25.1537 22.5063 25.4794 22.5063C25.8051 22.5063 26.0694 22.7722 26.0694 23.1V29.6061C26.0694 29.9339 25.8052 30.1998 25.4794 30.1998Z" fill="black"></path><path d="M30.6107 30.0344C30.285 30.0344 30.0207 29.7685 30.0207 29.4407V23.1004C30.0207 22.7726 30.285 22.5067 30.6107 22.5067C30.9365 22.5067 31.2008 22.7726 31.2008 23.1004V29.4407C31.2008 29.7685 30.9365 30.0344 30.6107 30.0344Z" fill="black"></path><path d="M20.3823 30.1515C20.0565 30.1515 19.7922 29.8856 19.7922 29.5578V23.0049C19.7922 22.6771 20.0565 22.4112 20.3823 22.4112C20.708 22.4112 20.9723 22.6771 20.9723 23.0049V29.5578C20.9723 29.8856 20.708 30.1515 20.3823 30.1515Z" fill="black"></path><path d="M15.3531 28.7125C15.0274 28.7125 14.7631 28.4465 14.7631 28.1188V22.7115C14.7631 22.3838 15.0274 22.1178 15.3531 22.1178C15.6789 22.1178 15.9432 22.3838 15.9432 22.7115V28.1188C15.9432 28.4465 15.6789 28.7125 15.3531 28.7125Z" fill="black"></path><path d="M35.3729 28.3201C35.0471 28.3201 34.7828 28.0542 34.7828 27.7264V22.6195C34.7828 22.2918 35.0471 22.0258 35.3729 22.0258C35.6986 22.0258 35.9629 22.2918 35.9629 22.6195V27.7264C35.9629 28.0542 35.6986 28.3201 35.3729 28.3201Z" fill="black"></path><path d="M29.3944 11.2748C29.3925 11.3865 29.3704 11.4997 29.326 11.6095C29.1336 12.084 28.5955 12.3116 28.1242 12.1181C27.2134 11.7443 26.1723 11.518 25.1134 11.4624C23.9437 11.4013 22.7879 11.5507 21.7711 11.8933C21.2884 12.056 20.7657 11.7939 20.604 11.3085C20.4423 10.82 20.7025 10.2965 21.1855 10.1338C22.419 9.71814 23.8104 9.53658 25.2089 9.60947C26.4899 9.67612 27.705 9.94219 28.8202 10.3999C29.183 10.5487 29.4006 10.9034 29.3944 11.2748Z" fill="black"></path><path d="M33.4259 8.26535C33.4219 8.50269 33.3279 8.73849 33.1448 8.91658C32.7791 9.27278 32.1952 9.26277 31.8412 8.89425C30.412 7.40725 27.9957 6.43736 25.3784 6.30131C22.7661 6.16534 20.2674 6.87827 18.6941 8.20994C18.3043 8.53974 17.7229 8.4887 17.3951 8.09647C17.067 7.70483 17.1178 7.11912 17.5073 6.7893C19.4575 5.13909 22.3612 4.2857 25.4737 4.44835C28.5913 4.6105 31.3953 5.76101 33.167 7.60486C33.3439 7.78912 33.43 8.02801 33.4259 8.26535Z" fill="black"></path><path d="M20.2469 39.5825C20.2487 39.4708 20.2708 39.3576 20.3153 39.2478C20.5076 38.7733 21.0458 38.5457 21.5171 38.7393C22.4278 39.1131 23.4689 39.3394 24.5279 39.395C25.6975 39.4561 26.8533 39.3068 27.8701 38.9642C28.3529 38.8015 28.8756 39.0636 29.0372 39.5491C29.1989 40.0375 28.9387 40.561 28.4557 40.7237C27.2221 41.1393 25.8307 41.3209 24.4322 41.2479C23.1513 41.1813 21.9362 40.9152 20.821 40.4575C20.4582 40.3087 20.2406 39.954 20.2469 39.5825Z" fill="black"></path><path d="M16.2152 42.5919C16.2192 42.3545 16.3133 42.1187 16.4964 41.9407C16.8621 41.5845 17.446 41.5945 17.8 41.963C19.2292 43.45 21.6454 44.42 24.2627 44.5561C26.875 44.6921 29.3737 43.9793 30.947 42.6476C31.3368 42.3178 31.9183 42.3689 32.2461 42.7611C32.5741 43.1528 32.5234 43.7385 32.1339 44.0683C30.1836 45.7184 27.2799 46.5718 24.1674 46.4091C21.0498 46.2468 18.2458 45.0963 16.4742 43.2524C16.2972 43.0681 16.2112 42.8292 16.2152 42.5919Z" fill="black"></path></svg> 