<?xml version="1.0" encoding="UTF-8"?> <svg xmlns="http://www.w3.org/2000/svg" width="50" height="50" viewBox="0 0 50 50" fill="none"><path d="M6.61437 27.7315C6.27372 27.7315 5.96418 27.497 5.87877 27.1466C5.77806 26.7345 6.02638 26.3178 6.43319 26.2162L8.41091 25.7212C8.81574 25.6209 9.22847 25.8709 9.32869 26.2833C9.4294 26.6954 9.18107 27.1121 8.77427 27.2137L6.79654 27.7087C6.73582 27.724 6.6746 27.7315 6.61437 27.7315Z" fill="black"></path><path d="M21.3876 49.8113C21.3807 49.8113 21.3738 49.8113 21.3664 49.8108C20.9477 49.7998 20.6179 49.446 20.6293 49.0215C20.7285 45.2994 19.8458 41.6407 19.088 39.2274C18.3366 36.835 16.4467 35.0122 14.0336 34.352L11.8134 33.7444C11.7764 33.7344 11.7404 33.7214 11.7058 33.7059C11.416 33.6103 9.63922 33.1663 7.24037 32.5908C6.43467 32.3976 5.75041 31.8971 5.36286 31.2179C5.12194 30.7965 5 30.3411 5 29.8646C5 29.2485 5.22315 28.6391 5.62847 28.1489C5.76423 27.9837 5.91234 27.6854 5.87581 27.1877L5.31744 26.0996C5.15897 25.8221 5.04986 25.3576 5.23845 24.9037C5.45123 24.3924 5.95381 24.0476 6.73335 23.8792C7.22803 23.7725 7.65063 23.6051 7.98979 23.3817C8.3255 23.1607 8.7254 22.8169 8.7254 22.4327C8.72342 22.3624 8.65283 20.3316 6.89578 18.9568C6.87998 18.944 6.86418 18.931 6.84937 18.917C6.74668 18.8226 6.23768 18.3136 6.28606 17.5754C6.30828 17.2326 6.4633 16.7341 7.07449 16.3052C7.08831 16.2954 7.10312 16.2856 7.11793 16.2769C7.61607 15.9758 8.13741 15.5937 8.32945 15.3948C8.33192 14.9631 8.24009 14.604 8.05446 14.348C7.94437 14.1958 7.82243 14.104 7.6679 13.9876C7.39884 13.7847 7.03055 13.5071 6.82714 12.9228C6.7368 12.6633 6.48452 11.7579 7.0498 11.0377C7.25123 10.7817 7.52374 10.5965 7.86093 10.4871C8.94063 10.1738 10.129 9.79121 11.2778 9.42109C12.2266 9.11554 13.1755 8.80999 14.0691 8.54022C14.432 8.43061 14.7716 8.2742 15.0792 8.07476C15.3991 7.86705 15.6869 7.6133 15.9348 7.32076L18.0492 4.82354C18.0621 4.80827 18.0754 4.79351 18.0897 4.77924C19.4819 3.3751 22.488 0.911165 26.9742 0.184193C28.4553 -0.0555421 32.3545 -0.39763 36.5563 1.61286C41.7701 4.10758 44.1547 8.6726 44.9382 10.5197C45.1035 10.9096 44.9258 11.3618 44.5412 11.5294C44.1552 11.6976 43.7104 11.5169 43.545 11.1268C42.8296 9.44061 40.6544 5.27374 35.9085 3.00324C32.0898 1.17593 28.555 1.48398 27.2136 1.70245C23.1698 2.35759 20.4521 4.57154 19.1803 5.8483L17.0851 8.32225C16.741 8.7284 16.3416 9.08075 15.8973 9.36929C15.4697 9.64657 15.0007 9.86353 14.5016 10.0139C13.6169 10.2809 12.6769 10.5837 11.7369 10.8865C10.5777 11.2599 9.37905 11.646 8.30033 11.9586C8.26775 11.9696 8.24208 11.9881 8.23615 11.9954C8.19222 12.0515 8.20258 12.2536 8.25738 12.4111C8.3028 12.5419 8.35019 12.586 8.57285 12.7534C8.76687 12.8998 9.03248 13.1 9.27734 13.4383C9.69402 14.0131 9.88261 14.7541 9.83818 15.64C9.81498 15.908 9.76511 16.4641 7.9192 17.5824C7.81602 17.658 7.79331 17.7043 7.79331 17.7043C7.80269 17.6905 7.83478 17.7381 7.8649 17.7731C10.1739 19.6117 10.24 22.3066 10.242 22.4212C10.242 23.0256 9.99468 23.8952 8.81575 24.671C8.32057 24.9973 7.72617 25.237 7.04932 25.3832C6.88738 25.4182 6.78025 25.4562 6.71262 25.487L7.28777 26.6076C7.32875 26.6877 7.35541 26.7743 7.36676 26.8636C7.51832 28.0485 7.07154 28.7955 6.79161 29.1354C6.61635 29.3471 6.51662 29.6128 6.51662 29.8646C6.51662 30.0698 6.56846 30.261 6.67559 30.4482C6.8548 30.7625 7.18804 30.9982 7.5899 31.0943C10.8883 31.8861 11.8697 32.1433 12.2148 32.262L14.4285 32.8676C17.3423 33.6648 19.6241 35.868 20.5335 38.7609C21.3264 41.2874 22.2501 45.1257 22.1449 49.0636C22.1341 49.4805 21.7969 49.8113 21.3876 49.8113Z" fill="black"></path><path d="M10.3689 16.2508C9.61355 16.2508 8.8814 15.8817 8.41536 15.2391C8.16703 14.897 8.2396 14.4158 8.5768 14.1643C8.91448 13.9128 9.38892 13.9864 9.63675 14.3282C9.85102 14.623 10.2035 14.7676 10.5392 14.6953C10.9149 14.615 11.2022 14.2729 11.2373 13.8635C11.2728 13.4403 11.6328 13.1293 12.0583 13.1638C12.4755 13.2006 12.7845 13.5732 12.748 13.9961C12.6562 15.0744 11.8761 15.9806 10.8522 16.1998C10.6918 16.2341 10.5298 16.2508 10.3689 16.2508Z" fill="black"></path><path d="M21.6004 36.1458C17.6726 36.1458 14.1358 34.4191 13.8963 34.2995C13.5206 34.1123 13.3661 33.6523 13.5507 33.2709C13.7354 32.8906 14.1886 32.7344 14.5653 32.9196C14.6517 32.9621 23.2276 37.1358 27.7607 32.0888C28.043 31.7745 28.5239 31.7529 28.832 32.0377C29.1415 32.324 29.1642 32.81 28.8823 33.1238C26.8078 35.4331 24.1231 36.1458 21.6004 36.1458Z" fill="black"></path><path d="M40.9205 47.494C40.6115 47.494 40.3212 47.3013 40.2086 46.99L36.6925 37.2709C36.5484 36.872 36.7503 36.4306 37.1433 36.2844C37.5372 36.1383 37.9722 36.3425 38.1163 36.7414L41.6324 46.4605C41.7766 46.8594 41.5746 47.3008 41.1817 47.447C41.0953 47.479 41.0074 47.494 40.9205 47.494Z" fill="black"></path><path d="M27.8406 27.6236C27.7493 27.6236 27.6565 27.6068 27.5661 27.5713C27.1756 27.4177 26.9821 26.9722 27.1337 26.5766C27.4264 25.8121 27.5968 24.9409 27.6274 24.0573C27.6609 23.0814 27.5227 22.1199 27.2285 21.2771C27.0887 20.8769 27.2956 20.4375 27.6901 20.2959C28.087 20.1542 28.5185 20.3637 28.6582 20.7641C29.0151 21.7866 29.183 22.944 29.143 24.1109C29.1065 25.1797 28.906 26.1964 28.5476 27.1326C28.4311 27.4372 28.1443 27.6236 27.8406 27.6236Z" fill="black"></path><path d="M30.3565 30.9421C30.1625 30.9421 29.9684 30.8671 29.8203 30.7169C29.5241 30.4171 29.5241 29.9301 29.8203 29.6298C31.0156 28.4174 31.7744 26.3894 31.8489 24.2055C31.9235 22.0258 31.3059 19.9528 30.1955 18.66C29.9206 18.3397 29.9541 17.8542 30.2701 17.5754C30.5856 17.2964 31.0649 17.3304 31.3399 17.6505C32.7158 19.2531 33.4539 21.6617 33.3645 24.2588C33.2757 26.8601 32.3747 29.2139 30.8926 30.7169C30.7445 30.8671 30.5505 30.9421 30.3565 30.9421Z" fill="black"></path><path d="M16.7657 27.6236C16.462 27.6236 16.1757 27.4374 16.0587 27.1331C15.6998 26.1967 15.4993 25.1797 15.4633 24.1104C15.4233 22.9445 15.5907 21.7873 15.9476 20.7643C16.0873 20.3642 16.5208 20.1537 16.9152 20.2959C17.3102 20.4372 17.5171 20.8764 17.3773 21.2768C17.0836 22.1202 16.9454 23.0816 16.9789 24.0573C17.009 24.9412 17.1794 25.8121 17.4726 26.5761C17.6242 26.9717 17.4307 27.4174 17.0401 27.5711C16.9503 27.6066 16.857 27.6236 16.7657 27.6236Z" fill="black"></path><path d="M14.2498 30.9421C14.0558 30.9421 13.8618 30.8671 13.7137 30.7169C12.2316 29.2144 11.3301 26.8604 11.2413 24.2585C11.1524 21.6617 11.8905 19.2531 13.2659 17.6507C13.5414 17.3299 14.0192 17.2964 14.3357 17.5752C14.6517 17.8539 14.6852 18.3397 14.4103 18.6597C13.3004 19.9528 12.6823 22.0258 12.7569 24.2055C12.8314 26.3896 13.5902 28.4174 14.786 29.6298C15.0822 29.9301 15.0822 30.4166 14.786 30.7169C14.6378 30.8671 14.4438 30.9421 14.2498 30.9421Z" fill="black"></path><path d="M22.3029 27.0553C20.6071 27.0553 19.2277 25.6567 19.2277 23.9375C19.2277 22.2182 20.6071 20.8196 22.3029 20.8196C23.9987 20.8196 25.3786 22.2182 25.3786 23.9375C25.3786 25.6567 23.9987 27.0553 22.3029 27.0553ZM22.3029 22.3571C21.4434 22.3571 20.7443 23.0661 20.7443 23.9375C20.7443 24.8088 21.4434 25.5178 22.3029 25.5178C23.1624 25.5178 23.862 24.8088 23.862 23.9375C23.862 23.0661 23.1624 22.3571 22.3029 22.3571Z" fill="black"></path></svg> 