<?xml version="1.0" encoding="UTF-8"?> <svg xmlns="http://www.w3.org/2000/svg" width="50" height="50" viewBox="0 0 50 50" fill="none"><path d="M35.1694 41.6301C35.1226 41.6301 35.0786 41.6257 35.0333 41.6234V48.1138C35.0333 48.5474 35.3675 48.9023 35.776 48.9023C36.1845 48.9023 36.5187 48.5474 36.5187 48.1138V41.1999C36.1737 41.4657 35.7243 41.6301 35.1694 41.6301Z" fill="black"></path><path d="M42.1447 21.0581C42.3972 19.0319 42.4269 16.5324 41.7844 13.9463C41.5109 13.0718 41.1944 11.9474 40.9341 11.4272C39.8832 8.99095 38.1118 6.58616 35.245 4.53224C35.3234 4.51897 33.5613 3.23905 33.2954 3.29047C33.2917 3.28648 33.2879 3.28648 33.2842 3.28258C33.1803 3.22343 23.9485 -1.71226 15.5858 3.11699C15.5365 3.10812 14.3285 4.06779 13.6174 4.38594C13.6469 4.39046 13.6734 4.39361 13.7029 4.39825C13.2202 4.77669 12.7449 5.18271 12.2732 5.63609C10.5131 7.35095 9.26908 9.47583 8.67116 11.7861C8.30936 11.9803 8.04362 17.0331 8.23666 18.7362C8.27007 19.0319 8.31837 19.3236 8.36673 19.6192L8.38151 19.702C8.42976 19.9858 8.48178 20.4589 8.44838 21.0345C8.37223 21.0376 7.96435 22.8158 7.5931 23.6198C7.60617 23.7245 5.2659 27.4248 5.2659 27.4248L5.20654 27.5392C5.16197 27.6417 4.77198 28.58 5.19531 29.4551C5.38841 29.8533 5.82292 30.3698 6.78475 30.5551L6.85156 30.563C6.9147 30.5707 7.04093 30.5866 7.18579 30.6181C7.00753 30.9887 7.0038 31.3159 7.04472 31.5446C7.09296 31.8166 7.23781 32.1832 7.65737 32.5064C7.45315 33.0268 7.51629 33.4447 7.61657 33.7168C7.77621 34.1385 8.10677 34.4579 8.60063 34.6707C8.40753 35.9126 8.3147 37.9034 9.3359 39.2004C9.95605 39.9889 10.8585 40.3831 12.0282 40.3555L14.8096 40.0716C16.3471 39.91 17.7544 41.0335 18.0217 42.6223C18.2632 44.0573 18.3857 45.9062 18.3857 48.1178C18.3857 48.5514 18.7199 48.9062 19.1284 48.9062C19.5369 48.9062 19.8711 48.5514 19.8711 48.1178C19.8711 45.8155 19.7412 43.8719 19.4849 42.3463C19.0838 39.9533 16.9671 38.2661 14.6648 38.5026L11.9762 38.7825C11.2781 38.7944 10.7953 38.5933 10.4759 38.1911C9.71465 37.2253 10.0044 35.2621 10.1083 34.6826C10.2235 34.0557 9.86695 33.4407 9.28021 33.2555C9.13914 33.2121 9.0611 33.1688 9.01652 33.1412C9.02775 33.1136 9.04259 33.0741 9.06855 33.0229C9.23197 32.7273 9.27276 32.3842 9.18739 32.057C9.10196 31.7299 8.89401 31.4578 8.61176 31.2922C8.58952 31.2804 8.57468 31.2686 8.55978 31.2607C8.56718 31.2528 8.57096 31.2449 8.57829 31.2371C8.8197 30.9414 8.91258 30.5393 8.83087 30.1569C8.74916 29.7745 8.4967 29.4512 8.15508 29.2974C7.70573 29.0925 7.18208 29.0215 7.02611 29.0057C6.76247 28.9506 6.57682 28.8559 6.52112 28.7416C6.4542 28.6115 6.49878 28.3789 6.53963 28.2567L8.83087 24.7205C10.1789 22.5444 9.98947 20.3013 9.84839 19.434L9.8335 19.3512C9.78903 19.087 9.74445 18.8229 9.71466 18.5548C9.52529 16.8715 9.55502 15.2433 9.80382 13.6901C9.77569 13.3488 10.138 12.1092 10.138 12.1092C10.6728 10.1263 11.7534 8.29315 13.2797 6.80299C21.5236 -1.22345 32.497 4.62295 32.5973 4.6781C36.3181 6.7872 38.4646 9.42849 39.6306 12.1211C39.9039 12.697 40.0787 13.0548 40.1549 13.3957C41.1944 17.3737 40.9785 18.8505 40.6778 21.0029C40.6778 21.0029 40.4883 22.4089 40.3993 22.5483C40.2583 23.2067 40.0985 23.7901 39.9462 24.283C39.5043 25.7336 38.7691 27.1568 37.7034 28.6352C35.011 32.3645 35.0333 36.6537 35.0333 36.8232V37.0659C35.0786 37.0636 35.1226 37.0591 35.1694 37.0591C35.7244 37.0591 36.1738 37.223 36.5187 37.4881V36.8153C36.5187 36.7759 36.5001 32.8967 38.8805 29.597C40.0502 27.9728 40.8635 26.396 41.3574 24.7717C41.5208 24.2395 41.7176 23.5023 41.8921 22.6114C41.9459 22.6125 42.3399 21.0608 42.1447 21.0581Z" fill="black"></path><path d="M40.018 42.6201C39.9357 42.6201 39.8521 42.6051 39.7708 42.5735C39.419 42.4364 39.2447 42.0391 39.3812 41.6863C39.6449 41.0044 39.7983 40.2275 39.8259 39.4394C39.8561 38.569 39.7316 37.7115 39.4666 36.9598C39.3408 36.6029 39.5271 36.211 39.8824 36.0846C40.2399 35.9583 40.6285 36.1451 40.7544 36.5022C41.0759 37.4142 41.2271 38.4464 41.191 39.4872C41.1581 40.4404 40.9776 41.3472 40.6548 42.1822C40.5498 42.4538 40.2915 42.6201 40.018 42.6201Z" fill="black"></path><path d="M42.2841 45.5798C42.1093 45.5798 41.9345 45.5129 41.8011 45.379C41.5343 45.1116 41.5343 44.6772 41.8011 44.4094C42.8777 43.3281 43.5612 41.5193 43.6283 39.5715C43.6954 37.6276 43.1392 35.7786 42.1391 34.6256C41.8914 34.34 41.9216 33.907 42.2062 33.6583C42.4904 33.4095 42.9222 33.4398 43.1698 33.7253C44.4092 35.1546 45.0739 37.3028 44.9935 39.6191C44.9134 41.9391 44.1019 44.0385 42.767 45.379C42.6336 45.5129 42.4588 45.5798 42.2841 45.5798Z" fill="black"></path><path d="M31.9568 44.5703C31.9568 44.4877 31.9717 44.4038 32.0033 44.3221C32.1398 43.969 32.5356 43.794 32.8871 43.9311C33.5663 44.1958 34.3403 44.3498 35.1253 44.3775C35.9925 44.4078 36.8467 44.2828 37.5955 44.0168C37.951 43.8905 38.3414 44.0775 38.4673 44.4342C38.5931 44.793 38.407 45.1832 38.0513 45.3095C37.1428 45.6322 36.1145 45.784 35.0778 45.7478C34.1282 45.7148 33.2248 45.5336 32.393 45.2095C32.1225 45.1042 31.9568 44.8448 31.9568 44.5703Z" fill="black"></path><path d="M29.0084 46.8451C29.0084 46.6696 29.0751 46.4942 29.2085 46.3603C29.4749 46.0924 29.9075 46.0924 30.1743 46.3603C31.2516 47.441 33.0534 48.1271 34.9937 48.1945C36.9303 48.2619 38.7721 47.7034 39.9207 46.6995C40.2053 46.4509 40.6366 46.4812 40.8843 46.7669C41.1322 47.0522 41.102 47.4856 40.8176 47.7342C39.3938 48.9783 37.2538 49.6456 34.9464 49.5648C32.6352 49.4845 30.5439 48.6699 29.2085 47.3298C29.0751 47.1959 29.0084 47.0205 29.0084 46.8451Z" fill="black"></path><path d="M38.1038 34.819C38.1038 34.9015 38.0889 34.9855 38.0573 35.0672C37.9208 35.4202 37.5251 35.5952 37.1736 35.4582C36.4943 35.1935 35.7204 35.0395 34.9353 35.0118C34.0682 34.9815 33.214 35.1064 32.4651 35.3725C32.1096 35.4988 31.7192 35.3118 31.5933 34.9551C31.4675 34.5962 31.6536 34.2061 32.0093 34.0798C32.9178 33.757 33.9461 33.6053 34.9829 33.6414C35.9325 33.6745 36.8358 33.8557 37.6676 34.1798C37.9382 34.2851 38.1038 34.5444 38.1038 34.819Z" fill="black"></path><path d="M41.0522 32.5442C41.0522 32.7196 40.9855 32.8951 40.8521 33.029C40.5858 33.2968 40.1531 33.2968 39.8863 33.029C38.8091 31.9483 37.0072 31.2622 35.0669 31.1948C33.1304 31.1274 31.2885 31.6858 30.1399 32.6897C29.8553 32.9384 29.424 32.908 29.1763 32.6223C28.9284 32.3371 28.9587 31.9037 29.243 31.655C30.6669 30.411 32.8069 29.7436 35.1143 29.8244C37.4255 29.9048 39.5168 30.7194 40.8521 32.0594C40.9855 32.1934 41.0522 32.3688 41.0522 32.5442Z" fill="black"></path><path d="M30.0426 42.6201C29.7692 42.6201 29.5112 42.454 29.4059 42.1826C29.0826 41.3475 28.902 40.4404 28.8696 39.4867C28.8336 38.4469 28.9843 37.4149 29.3058 36.5024C29.4317 36.1456 29.8221 35.9579 30.1774 36.0846C30.5331 36.2107 30.7194 36.6024 30.5936 36.9595C30.329 37.7117 30.2045 38.5692 30.2347 39.4394C30.2619 40.2277 30.4153 41.0044 30.6794 41.6858C30.8159 42.0387 30.6416 42.4362 30.2899 42.5732C30.2089 42.6049 30.1249 42.6201 30.0426 42.6201Z" fill="black"></path><path d="M27.7766 45.5798C27.6018 45.5798 27.4271 45.5129 27.2937 45.379C25.9587 44.0389 25.1468 41.9394 25.0667 39.6189C24.9867 37.3028 25.6515 35.1546 26.8903 33.7255C27.1385 33.4394 27.5689 33.4095 27.8539 33.6581C28.1385 33.9067 28.1688 34.34 27.9211 34.6254C26.9215 35.7786 26.3647 37.6276 26.4319 39.5715C26.499 41.5195 27.1825 43.3281 28.2595 44.4094C28.5263 44.6772 28.5263 45.1111 28.2595 45.379C28.1261 45.5129 27.9513 45.5798 27.7766 45.5798Z" fill="black"></path><path d="M35.0301 42.1132C33.5026 42.1132 32.2602 40.8658 32.2602 39.3325C32.2602 37.7992 33.5026 36.5518 35.0301 36.5518C36.5575 36.5518 37.8004 37.7992 37.8004 39.3325C37.8004 40.8658 36.5575 42.1132 35.0301 42.1132ZM35.0301 37.9231C34.2559 37.9231 33.6263 38.5553 33.6263 39.3325C33.6263 40.1097 34.2559 40.742 35.0301 40.742C35.8043 40.742 36.4344 40.1097 36.4344 39.3325C36.4344 38.5553 35.8043 37.9231 35.0301 37.9231Z" fill="black"></path></svg> 