<?xml version="1.0" encoding="UTF-8"?> <svg xmlns="http://www.w3.org/2000/svg" width="50" height="50" viewBox="0 0 50 50" fill="none"><path d="M9.9935 31.5433C9.86514 31.5433 9.73679 31.5385 9.60843 31.5294C7.83146 31.3873 6.4324 30.028 6.16137 28.221C5.88223 26.3569 5.53867 24.4556 5.20656 22.6174C4.87207 20.7644 4.52612 18.8483 4.24316 16.9584C4.02653 15.5116 4.89736 14.1394 6.31311 13.6964C7.24741 13.4036 8.69179 13.0376 10.2812 13.0644C11.457 13.0701 12.6213 13.271 13.7416 13.6615C15.0834 14.1299 15.8937 15.503 15.6675 16.9264L13.869 28.2765C13.5961 29.9993 12.241 31.3294 10.5728 31.5117C10.3814 31.5328 10.1877 31.5433 9.9935 31.5433ZM7.61101 28.0028C7.77754 29.1123 8.64789 29.9783 9.68048 30.0611C9.9477 30.0807 10.1825 30.0764 10.4139 30.0505C11.4264 29.94 12.2519 29.1157 12.4213 28.0459L14.2198 16.6953C14.3338 15.9757 13.9301 15.2839 13.2597 15.0499C12.293 14.7126 11.2881 14.5389 10.2741 14.5341C8.87598 14.5241 7.58619 14.8375 6.7502 15.0992C6.02872 15.325 5.58448 16.0154 5.6928 16.7402C5.97242 18.6086 6.31645 20.5132 6.64904 22.3553C6.98305 24.2044 7.32852 26.1168 7.61101 28.0028Z" fill="black"></path><path d="M20.0212 30.3988C19.8928 30.3988 19.764 30.3941 19.6361 30.385C17.8591 30.2429 16.4601 28.8836 16.1895 27.0765C15.9104 25.2139 15.5673 23.315 15.2357 21.4787C14.9007 19.6238 14.5543 17.7062 14.2708 15.814C14.0542 14.3672 14.925 12.9955 16.3413 12.5519C17.2751 12.2591 18.7295 11.9348 20.3089 11.9199C21.4846 11.9257 22.6489 12.1266 23.7693 12.517C25.1111 12.9854 25.9209 14.3581 25.6956 15.7814L23.8967 27.132C23.6238 28.8549 22.2686 30.185 20.6009 30.3673C20.4096 30.3883 20.2154 30.3988 20.0212 30.3988ZM20.2531 13.3897C18.8726 13.3897 17.6038 13.6959 16.7783 13.9547C16.0569 14.1806 15.6121 14.871 15.7205 15.5958C16.0006 17.466 16.3451 19.3726 16.6781 21.217C17.0117 23.0638 17.3567 24.9738 17.6392 26.8584C17.8052 27.9683 18.6756 28.8339 19.7086 28.9166C19.9744 28.9362 20.2106 28.9315 20.442 28.9061C21.4546 28.7956 22.2796 27.9712 22.449 26.9014L24.2479 15.5508C24.362 14.8312 23.9583 14.1394 23.2879 13.9055C22.3206 13.5682 21.3157 13.3945 20.3017 13.3897C20.2855 13.3897 20.2693 13.3897 20.2531 13.3897Z" fill="black"></path><path d="M30.0493 30.3988C29.9209 30.3988 29.7926 30.3941 29.6642 30.385C27.8873 30.2429 26.4882 28.8836 26.2172 27.0765C25.938 25.2125 25.5945 23.3112 25.2624 21.473C24.9279 19.62 24.5819 17.7038 24.299 15.814C24.0823 14.3672 24.9532 12.9955 26.3694 12.5519C27.3032 12.2591 28.76 11.9348 30.337 11.9199C31.5128 11.9257 32.6771 12.1266 33.7975 12.517C35.1392 12.9854 35.9495 14.3585 35.7233 15.7819L33.9249 27.132C33.6519 28.8549 32.2968 30.185 30.6286 30.3673C30.4372 30.3883 30.2435 30.3988 30.0493 30.3988ZM27.6668 26.8584C27.8333 27.9679 28.7037 28.8339 29.7363 28.9166C30.003 28.9362 30.2383 28.9315 30.4697 28.9061C31.4822 28.7956 32.3077 27.9712 32.4771 26.9014L34.2756 15.5508C34.3896 14.8312 33.9859 14.1394 33.3155 13.9055C32.3488 13.5682 31.3439 13.3945 30.3299 13.3897C30.3137 13.3897 30.2974 13.3897 30.2812 13.3897C28.9008 13.3897 27.632 13.6959 26.8065 13.9547C26.085 14.1806 25.6403 14.871 25.7486 15.5958C26.0282 17.4641 26.3723 19.3688 26.7048 21.2108C27.0389 23.06 27.3843 24.9723 27.6668 26.8584Z" fill="black"></path><path d="M40.0774 31.7126C39.9491 31.7126 39.8207 31.7079 39.6924 31.6988C37.9159 31.5572 36.5164 30.1979 36.2453 28.3903C35.9662 26.5263 35.6226 24.625 35.2905 22.7868C34.956 20.9338 34.6101 19.0176 34.3271 17.1278C34.1105 15.681 34.9813 14.3093 36.3975 13.8658C37.3313 13.5729 38.79 13.2376 40.3652 13.2337C41.5433 13.2399 42.7076 13.4409 43.8256 13.8313C45.1669 14.2992 45.9771 15.6719 45.7519 17.0952L43.953 28.4463C43.6801 30.1687 42.3249 31.4988 40.6567 31.6811C40.4654 31.7021 40.2717 31.7126 40.0774 31.7126ZM37.695 28.1722C37.8615 29.2822 38.7318 30.1477 39.7649 30.2304C40.0307 30.2496 40.2664 30.2453 40.4978 30.2199C41.5104 30.1094 42.3359 29.285 42.5053 28.2157L44.3042 16.8646C44.4182 16.1451 44.0141 15.4532 43.3441 15.2197C42.3784 14.8824 41.3739 14.7088 40.3576 14.7035C40.3413 14.7035 40.3251 14.7035 40.3089 14.7035C38.9289 14.7035 37.6601 15.0097 36.8346 15.2685C36.1132 15.4944 35.6684 16.1848 35.7767 16.9096C36.0564 18.7779 36.4004 20.6826 36.733 22.5246C37.067 24.3738 37.4125 26.2861 37.695 28.1722Z" fill="black"></path><path d="M46.8523 24.824C46.7783 24.824 46.7034 24.813 46.629 24.7891C39.7802 22.5935 32.6642 21.4615 25.479 21.4247C18.1679 21.3931 10.9073 22.4849 3.92203 24.6872C3.536 24.8092 3.12421 24.5934 3.00301 24.2068C2.88133 23.8198 3.09605 23.4069 3.48208 23.2853C10.6119 21.0371 18.0152 19.9367 25.4866 19.9549C32.8212 19.9927 40.0846 21.1481 47.0756 23.3892C47.4611 23.5126 47.6735 23.9265 47.5504 24.313C47.4506 24.625 47.1629 24.824 46.8523 24.824Z" fill="black"></path><path d="M42.6866 38.9199H6.95824C4.03225 38.9199 1.45603 36.9416 0.693993 34.1092L0.0254843 31.6232C-0.0799694 31.2313 0.151455 30.828 0.542258 30.7223C0.933534 30.6161 1.33483 30.8486 1.44076 31.2404L2.10927 33.7264C2.69905 35.9186 4.69314 37.4501 6.95825 37.4501H42.6866C44.758 37.4501 46.5903 36.2028 47.3542 34.2718L48.5853 31.161C48.7342 30.783 49.1622 30.6008 49.5368 30.7486C49.9133 30.8983 50.0975 31.3256 49.9481 31.7026L48.717 34.8139C47.7293 37.3085 45.3625 38.9199 42.6866 38.9199Z" fill="black"></path></svg> 