<?xml version="1.0" encoding="UTF-8"?> <svg xmlns="http://www.w3.org/2000/svg" width="50" height="50" viewBox="0 0 50 50" fill="none"><path d="M22.9002 44.7H17.8783C16.156 44.7 14.7321 43.315 14.7045 41.6128C14.6873 40.5386 14.8335 39.3876 15.1396 38.1914L16.7844 32.421C17.2171 30.9029 18.5734 29.8267 20.1596 29.7429C20.3148 29.7358 20.4619 29.7361 20.6047 29.7427C22.1966 29.8186 23.5734 30.9441 24.029 32.5428L25.6337 38.1725C25.9451 39.3876 26.0912 40.5386 26.0741 41.6125C26.0465 43.315 24.6226 44.7 22.9002 44.7ZM20.3848 31.1907C20.3343 31.1907 20.2838 31.1919 20.2324 31.1943C19.276 31.2447 18.4539 31.8969 18.1916 32.8169L16.5521 38.5684C16.2831 39.621 16.1517 40.6439 16.1669 41.5894C16.1817 42.5034 16.9496 43.2469 17.8783 43.2469H22.9002C23.829 43.2469 24.5969 42.5034 24.6117 41.5891C24.6269 40.6439 24.4955 39.621 24.2213 38.5495L22.6217 32.9387C22.3418 31.957 21.484 31.2397 20.5352 31.1943C20.4857 31.1919 20.4357 31.1907 20.3848 31.1907Z" fill="black"></path><path d="M15.4343 44.4788C15.4348 44.4788 15.4338 44.4788 15.4343 44.4788C9.53359 44.4708 8.98994 44.064 8.81141 43.9304C8.34869 43.583 8.05258 43.0355 7.99783 42.4275C7.91072 41.4621 7.80027 39.6045 8.04258 38.0148C8.27918 36.4648 9.13941 33.8392 9.63118 32.4122C9.96489 31.4429 10.7885 30.7372 11.7291 30.6144C13.0469 30.443 16.5016 33.3234 17.3233 35.2854C17.4785 35.656 17.3018 36.0812 16.9291 36.2354C16.5554 36.3908 16.1284 36.2141 15.9732 35.844C15.2834 34.1978 12.5032 32.1999 11.8743 32.0622C11.4987 32.1315 11.1641 32.4487 11.0146 32.8829C10.6318 33.9946 9.71592 36.7412 9.48884 38.2323C9.26081 39.7253 9.38887 41.5728 9.45457 42.2979C9.47028 42.4762 9.54073 42.6321 9.64975 42.7347C10.2291 42.9109 13.0631 43.0225 15.4352 43.0258C15.8389 43.0263 16.166 43.3522 16.1655 43.7533C16.165 44.1541 15.8375 44.4788 15.4343 44.4788Z" fill="black"></path><path d="M8.36488 44.2965C3.92234 44.2965 3.43772 43.8952 3.26586 43.7526C3.1916 43.6911 3.12399 43.6282 3.06592 43.5655C2.32803 42.7718 1.88768 41.6885 1.82818 40.5169L1.51112 34.2708C1.43353 31.5611 3.20778 31.0261 3.28347 31.0046C3.3425 30.9878 3.40344 30.9786 3.46533 30.977C3.47913 30.9765 3.49342 30.9765 3.50817 30.9765C5.29433 30.9765 9.06134 33.8021 10.0006 34.9309C10.2577 35.24 10.2139 35.6981 9.90301 35.9537C9.59072 36.2096 9.13084 36.1659 8.8733 35.8565C7.99308 34.7987 4.79351 32.5634 3.62147 32.4349C3.43961 32.5442 2.93643 32.9592 2.97213 34.2136L3.28871 40.4435C3.33108 41.276 3.63385 42.0351 4.1418 42.5812C4.14703 42.5867 4.1518 42.5919 4.15703 42.5968C4.75258 42.7995 7.70364 42.8733 10.1663 42.8243C10.5657 42.8163 10.9041 43.1346 10.9122 43.5359C10.9203 43.9373 10.5995 44.2688 10.1958 44.2769C9.52073 44.2903 8.91281 44.2965 8.36488 44.2965Z" fill="black"></path><path d="M35.2538 44.4788C34.8506 44.4788 34.5231 44.1544 34.5226 43.7533C34.5221 43.3522 34.8487 43.0263 35.2529 43.0258C37.576 43.0225 40.3548 42.9109 40.9251 42.7354C41.0346 42.6328 41.1055 42.4764 41.1217 42.2977C41.1874 41.5728 41.3154 39.7253 41.0874 38.2323C40.8603 36.7436 39.9444 33.9953 39.5612 32.8829C39.4055 32.4314 39.0504 32.1064 38.6562 32.0551C38.6519 32.0549 38.6476 32.0547 38.6433 32.0547C38.2558 32.0547 36.4149 32.9056 34.6031 35.7581C34.3869 36.098 33.9356 36.1983 33.5943 35.9849C33.253 35.7709 33.1506 35.322 33.3663 34.9829C35.3024 31.9348 37.6398 30.4616 38.8461 30.6144C39.7873 30.7372 40.6109 31.4428 40.9446 32.4122C41.4368 33.8402 42.2975 36.4669 42.5337 38.0148C42.776 39.6045 42.6655 41.4621 42.5784 42.428C42.5232 43.036 42.2266 43.5835 41.7648 43.9299C41.5858 44.064 41.0422 44.4708 35.2538 44.4788Z" fill="black"></path><path d="M42.318 44.2993C41.8005 44.2993 41.2297 44.2937 40.5966 44.2809C40.1929 44.2729 39.872 43.9413 39.8801 43.54C39.8882 43.1386 40.2253 42.8175 40.6261 42.8283C42.994 42.8752 45.8384 42.8007 46.4173 42.5982C46.4225 42.5933 46.4273 42.5883 46.4321 42.5831C46.9419 42.0351 47.2447 41.276 47.2871 40.4435L47.6041 34.1975C47.6389 32.9758 47.1519 32.5567 46.951 32.4366C45.8208 32.5818 42.6427 34.8834 41.7363 35.9729C41.4792 36.282 41.0188 36.3257 40.7066 36.0701C40.3957 35.8144 40.3519 35.3566 40.609 35.0472C41.463 34.0206 45.2343 30.9765 47.0685 30.9765C47.0828 30.9765 47.0966 30.9767 47.1104 30.9769C47.1723 30.9786 47.2333 30.9878 47.2923 31.0046C47.368 31.0261 49.1422 31.5611 49.0651 34.2547L48.7476 40.5169C48.6881 41.6884 48.2477 42.7718 47.5079 43.5674C47.4518 43.6282 47.3842 43.6911 47.3094 43.753C47.1371 43.8956 46.6487 44.2993 42.318 44.2993Z" fill="black"></path><path d="M32.8098 44.7H27.7884C26.0655 44.7 24.6416 43.3148 24.6145 41.6123C24.5969 40.541 24.743 39.3897 25.0496 38.1914L26.6592 32.5428C27.1147 30.9441 28.491 29.8189 30.0834 29.7429C30.2267 29.7366 30.3729 29.7358 30.5247 29.7427C32.1152 29.8267 33.4715 30.9029 33.9042 32.421L35.5433 38.1725C35.8551 39.3897 36.0012 40.541 35.9836 41.613C35.9565 43.3148 34.5326 44.7 32.8098 44.7ZM30.1534 31.1943C29.2041 31.2397 28.3463 31.957 28.0664 32.9387L26.4621 38.5684C26.1926 39.6229 26.0612 40.6455 26.0769 41.5889C26.0912 42.5034 26.8591 43.2469 27.7884 43.2469H32.8098C33.739 43.2469 34.5069 42.5034 34.5212 41.5896C34.5369 40.6455 34.4055 39.6229 34.1308 38.5495L32.497 32.8169C32.2347 31.8969 31.4126 31.2447 30.4519 31.1941C30.3514 31.1896 30.251 31.1898 30.1534 31.1943Z" fill="black"></path><path d="M2.27947 34.2344C1.90482 34.2344 1.58586 33.9499 1.55206 33.572L1.52969 33.3206C1.2074 30.0359 3.54387 27.1207 6.84912 26.69C13.2549 25.8663 19.7492 25.4641 26.1388 25.4792C31.87 25.4995 37.6808 25.867 43.4101 26.5711C46.503 26.9483 48.8161 29.5708 48.79 32.6714C48.7866 33.0704 48.4601 33.3956 48.0587 33.3956H48.0559C47.6531 33.3939 47.3275 33.073 47.3275 32.6728C47.3475 30.2977 45.5861 28.3003 43.2311 28.0132C37.5589 27.316 31.8067 26.9523 26.1341 26.9322C19.7845 26.906 13.3787 27.3156 7.03811 28.131C4.52026 28.459 2.73982 30.6794 2.98593 33.186L3.00879 33.4438C3.04449 33.8435 2.74696 34.1963 2.34469 34.2316C2.32279 34.2335 2.30137 34.2344 2.27947 34.2344Z" fill="black"></path><path d="M14.973 27.1957C14.5693 27.1957 14.2418 26.8705 14.2418 26.4692V23.0017C14.2418 22.6004 14.5693 22.2752 14.973 22.2752H20.5604C20.9641 22.2752 21.2916 22.6004 21.2916 23.0017V26.24C21.2916 26.6413 20.9641 26.9665 20.5604 26.9665C20.1567 26.9665 19.8292 26.6413 19.8292 26.24V23.7282H15.7042V26.4692C15.7042 26.8705 15.3767 27.1957 14.973 27.1957Z" fill="black"></path><path d="M30.3024 27.0062C29.8987 27.0062 29.5712 26.6811 29.5712 26.2797V23.0055C29.5712 22.6042 29.8987 22.279 30.3024 22.279H35.8889C36.2926 22.279 36.6201 22.6042 36.6201 23.0055V26.2426C36.6201 26.6439 36.2926 26.9691 35.8889 26.9691C35.4852 26.9691 35.1577 26.6439 35.1577 26.2426V23.732H31.0336V26.2797C31.0336 26.6811 30.7061 27.0062 30.3024 27.0062Z" fill="black"></path><path d="M43.9285 15.2081C43.5786 15.2081 43.2259 15.1702 42.8755 15.0936C36.8986 13.7832 30.7747 13.1366 24.6531 13.1742C18.8738 13.209 13.0797 13.8541 7.43182 15.0917C5.98176 15.4086 4.48838 15.0617 3.333 14.1386C2.17333 13.2128 1.50829 11.8333 1.50829 10.3538V5.42646C1.50829 5.02513 1.83581 4.69995 2.2395 4.69995C2.6432 4.69995 2.97072 5.02513 2.97072 5.42646V10.3536C2.97072 11.3906 3.43678 12.3574 4.24893 13.0058C5.05775 13.6515 6.10364 13.8955 7.11668 13.6727C12.865 12.4132 18.7624 11.7567 24.6445 11.7212C30.8665 11.6923 37.1076 12.3415 43.1906 13.6746C44.1989 13.8953 45.2405 13.6529 46.0479 13.0091C46.8615 12.3597 47.328 11.3918 47.328 10.3538V5.42646C47.328 5.02513 47.6555 4.69995 48.0592 4.69995C48.4629 4.69995 48.7905 5.02513 48.7905 5.42646V10.3536C48.7905 11.8345 48.1245 13.2151 46.9638 14.1419C46.0893 14.8398 45.0225 15.2081 43.9285 15.2081Z" fill="black"></path><path d="M17.7665 19.819C17.3585 19.819 16.951 19.6676 16.6335 19.3649L15.4557 18.242C15.1353 17.9374 14.9516 17.5096 14.9516 17.0683V12.985C14.9516 12.5837 15.2791 12.2585 15.6828 12.2585C16.0865 12.2585 16.414 12.5837 16.414 12.985V17.0683C16.414 17.1151 16.4335 17.1605 16.4673 17.1929L17.6455 18.3163C17.7131 18.3811 17.8198 18.3811 17.8874 18.3163L19.0656 17.1934C19.0994 17.161 19.1189 17.1154 19.1189 17.0683V12.985C19.1189 12.5837 19.4465 12.2585 19.8502 12.2585C20.2538 12.2585 20.5814 12.5837 20.5814 12.985V17.0683C20.5814 17.5091 20.3981 17.9367 20.0782 18.2418L18.8995 19.3649C18.5819 19.6676 18.174 19.819 17.7665 19.819Z" fill="black"></path><path d="M33.0954 19.8192C32.6879 19.8192 32.2799 19.6679 31.9624 19.3649L30.7846 18.242C30.4643 17.9365 30.2805 17.5087 30.2805 17.0683V12.985C30.2805 12.5837 30.608 12.2585 31.0117 12.2585C31.4154 12.2585 31.7429 12.5837 31.7429 12.985V17.0683C31.7429 17.1151 31.7625 17.1608 31.7972 17.1937L32.9745 18.3163C33.0435 18.3816 33.1487 18.3809 33.2168 18.3163L34.3946 17.1934C34.4288 17.1608 34.4484 17.1151 34.4484 17.0683V12.985C34.4484 12.5837 34.7759 12.2585 35.1796 12.2585C35.5833 12.2585 35.9108 12.5837 35.9108 12.985V17.0683C35.9108 17.5087 35.727 17.9365 35.4071 18.2418L34.2289 19.3649C33.9114 19.6676 33.5034 19.8192 33.0954 19.8192Z" fill="black"></path></svg> 