<?xml version="1.0" encoding="UTF-8"?> <svg xmlns="http://www.w3.org/2000/svg" width="50" height="50" viewBox="0 0 50 50" fill="none"><path d="M29.005 16.9609C28.1647 17.2464 27.3015 17.532 26.4383 17.8014C22.0197 19.1848 17.6239 20.2384 13.7186 20.8536C13.3041 20.918 13.0151 21.3282 13.0798 21.7665C13.1368 22.1646 13.46 22.4542 13.8327 22.4542C13.8707 22.4542 13.9087 22.4501 13.9468 22.4461C17.9205 21.8188 22.3885 20.7491 26.8718 19.3456C27.7464 19.0722 28.621 18.7866 29.4728 18.4931C29.872 18.3564 30.0926 17.9019 29.9633 17.4797C29.834 17.0574 29.4043 16.8242 29.005 16.9609Z" fill="black"></path><path d="M42.8033 12.6661C46.7732 10.406 50.6367 7.47043 49.9104 4.88065C48.7962 0.895449 38.3467 2.42358 33.6086 3.33644C33.6048 3.33241 33.601 3.33241 33.5972 3.32839C33.4907 3.26807 24.0375 -1.76671 15.474 3.15949C11.0098 2.35924 1.16107 1.05228 0.0887386 4.87663C-0.0405496 5.34311 -0.0291418 5.84177 0.126765 6.36053C0.229435 6.70234 0.52984 6.9195 0.85306 6.9195C0.929112 6.9195 1.00897 6.90743 1.08502 6.88331C1.48429 6.74658 1.70484 6.29618 1.57936 5.87394C1.51471 5.66482 1.50711 5.48788 1.54894 5.33507C1.85695 4.23321 5.32872 3.18764 13.5461 4.46645C13.0518 4.8525 12.5651 5.26671 12.0821 5.72917C10.2797 7.47847 9.00583 9.64601 8.39361 12.0025C4.08527 14.3068 -0.713609 17.5883 0.0887386 20.4676C0.507024 21.9635 2.29424 22.8241 5.39716 23.0252C5.87629 23.0574 6.38964 23.0734 6.93341 23.0734C7.23382 23.0734 7.54563 23.0694 7.86505 23.0574C7.73196 23.4635 7.54563 23.8777 7.29086 24.2919L4.90663 27.9554L4.84579 28.072C4.80016 28.1766 4.40088 29.1337 4.83438 30.0264C5.03211 30.4326 5.47702 30.9594 6.46189 31.1484L6.53034 31.1564C6.59498 31.1645 6.72427 31.1806 6.87257 31.2127C6.69005 31.5908 6.68624 31.9245 6.72807 32.1578C6.77751 32.4353 6.92581 32.8092 7.3555 33.139C7.14636 33.6698 7.211 34.0961 7.31367 34.3736C7.47718 34.8039 7.81561 35.1296 8.32136 35.3467C8.12362 36.6135 8.02856 38.6443 9.07427 39.9673C9.70931 40.7716 10.6333 41.1737 11.8312 41.1456L14.6793 40.8561C16.2536 40.6912 17.6948 41.8373 17.9685 43.4579C18.2157 44.9217 18.3412 46.8077 18.3412 49.0637C18.3412 49.5061 18.6834 49.868 19.1017 49.868C19.52 49.868 19.8622 49.5061 19.8622 49.0637C19.8622 46.7152 19.7291 44.7327 19.4668 43.1764C19.0561 40.7354 16.8886 39.0143 14.531 39.2555L11.7779 39.5411C11.063 39.5531 10.5687 39.348 10.2417 38.9378C9.46214 37.9526 9.75874 35.95 9.86521 35.3588C9.98309 34.7194 9.61804 34.0921 9.01723 33.9031C8.87274 33.8588 8.79288 33.8146 8.74725 33.7864C8.75866 33.7583 8.77387 33.7181 8.80049 33.6658C8.9678 33.3642 9.00963 33.0143 8.92217 32.6806C8.83471 32.3468 8.62176 32.0693 8.33277 31.9004C8.30995 31.8883 8.29474 31.8763 8.27953 31.8682C8.28714 31.8602 8.29094 31.8521 8.29854 31.8441C8.54571 31.5425 8.64078 31.1323 8.55712 30.7422C8.47346 30.3522 8.21489 30.0224 7.86505 29.8656C7.40493 29.6565 6.86877 29.5841 6.70906 29.568C6.43907 29.5117 6.24894 29.4152 6.19191 29.2986C6.12346 29.1659 6.16909 28.9286 6.21092 28.8039L8.55712 25.1967C9.93746 22.9769 9.74353 20.6888 9.59903 19.804L9.58382 19.7196C9.53819 19.4502 9.49256 19.1807 9.46214 18.9073C9.26821 17.1901 9.29863 15.5293 9.5534 13.9449C12.2989 15.3323 15.5007 16.6995 18.8926 17.922C18.9724 17.9502 19.0561 17.9663 19.1397 17.9663C19.4554 17.9663 19.752 17.7572 19.8584 17.4194C19.9953 16.9971 19.7824 16.5427 19.3831 16.3979C15.9151 15.1473 12.6525 13.7478 9.89563 12.3323C10.4432 10.3095 11.5498 8.43959 13.1126 6.9195C21.5544 -1.26806 32.7911 4.69567 32.8937 4.75197C36.7039 6.90341 38.9018 9.59775 40.0959 12.3444C38.7497 13.032 37.2211 13.7519 35.4871 14.4918C35.0992 14.6567 34.9091 15.1272 35.065 15.5374C35.1829 15.851 35.4681 16.04 35.7723 16.04C35.8674 16.04 35.9624 16.0199 36.0575 15.9797C37.088 15.5414 38.7878 14.7853 40.6548 13.8283C41.4952 16.5347 41.4762 19.2089 41.1682 21.4046C38.5444 21.2518 35.2057 20.7812 31.1293 19.8523C30.7187 19.7598 30.3156 20.0333 30.2243 20.4676C30.1369 20.9019 30.3954 21.3282 30.8061 21.4247C34.217 22.2008 37.7687 22.7839 40.883 22.981C40.7385 23.6525 40.575 24.2477 40.4191 24.7504C39.9666 26.2302 39.2136 27.682 38.1223 29.19C35.3654 32.9942 35.3882 37.3695 35.3882 37.5424V49.0597C35.3882 49.5021 35.7305 49.864 36.1488 49.864C36.567 49.864 36.9093 49.5021 36.9093 49.0597V37.5344C36.9093 37.4942 36.8903 33.5371 39.3277 30.1712C40.5255 28.5144 41.3583 26.9058 41.8641 25.249C42.0314 24.7061 42.2329 23.9541 42.4116 23.0453C42.6094 23.0493 42.8147 23.0574 43.0048 23.0574C46.6705 23.0574 49.3856 22.3375 49.9104 20.4676C50.6443 17.8497 46.7466 14.906 42.8033 12.6661ZM5.49223 21.4207C2.82661 21.2477 1.70864 20.5802 1.54894 20.0132C1.32839 19.229 2.50339 17.1379 7.99814 14.0374C7.77379 15.662 7.75097 17.355 7.9487 19.0923C7.98293 19.3939 8.03236 19.6915 8.0818 19.9931L8.09701 20.0775C8.14644 20.367 8.19968 20.8496 8.16545 21.4367C7.18819 21.477 6.28697 21.4729 5.49223 21.4207ZM35.605 4.60318C44.3586 3.12732 48.1383 4.2131 48.454 5.33507C48.7239 6.3002 46.8835 8.64468 41.4306 11.6366C40.3544 9.15137 38.5406 6.69832 35.605 4.60318ZM48.454 20.0132C48.222 20.8496 46.3131 21.5091 42.6702 21.4609C42.9288 19.3939 42.9592 16.8443 42.3014 14.2063C47.5413 17.2143 48.6707 19.2451 48.454 20.0132Z" fill="black"></path><path d="M2.53137 9.73046C2.39448 9.90338 2.50475 10.1648 2.7177 10.1768L3.98016 10.2372C4.06382 10.2412 4.13987 10.2894 4.1855 10.3658L4.85476 11.4999C4.96884 11.6889 5.23882 11.6607 5.31107 11.4516L5.75597 10.1969C5.78639 10.1125 5.85104 10.0522 5.93469 10.028L7.16293 9.70633C7.36827 9.65405 7.42531 9.37255 7.2618 9.23181L6.27312 8.39536C6.20848 8.33906 6.17045 8.25461 6.17806 8.16614L6.26552 6.83103C6.28073 6.60583 6.04497 6.46106 5.87005 6.58573L4.81293 7.32164C4.74448 7.3699 4.65322 7.38196 4.57717 7.34577L3.40597 6.8431C3.20823 6.75865 3.0067 6.95167 3.06373 7.16481L3.39836 8.45568C3.42118 8.54013 3.40217 8.63262 3.34893 8.70098L2.53137 9.73046Z" fill="black"></path><path d="M34.2564 14.4958C34.3515 14.2947 34.1918 14.0655 33.9826 14.1057L32.7392 14.351C32.6555 14.3671 32.5719 14.339 32.511 14.2746L31.6174 13.3296C31.4691 13.1728 31.2106 13.2653 31.1839 13.4864L31.0204 14.8135C31.009 14.902 30.9596 14.9784 30.8835 15.0186L29.758 15.6258C29.5678 15.7264 29.5716 16.0159 29.7656 16.1124L30.9063 16.6875C30.9824 16.7277 31.0356 16.8001 31.0508 16.8885L31.2486 18.2116C31.2828 18.4328 31.5414 18.5172 31.6859 18.3563L32.5567 17.3872C32.6137 17.3229 32.6974 17.2907 32.781 17.3068L34.0321 17.5159C34.2412 17.5521 34.3971 17.3148 34.2983 17.1178L33.6936 15.9435C33.6518 15.8671 33.6518 15.7706 33.6898 15.6902L34.2564 14.4958Z" fill="black"></path></svg> 