<?xml version="1.0" encoding="UTF-8"?> <svg xmlns="http://www.w3.org/2000/svg" width="50" height="50" viewBox="0 0 50 50" fill="none"><g clip-path="url(#clip0_608_952)"><path d="M25.8851 50C22.876 50 20.5441 49.483 20.3571 49.4404C19.9972 49.3581 19.7677 49.0022 19.8403 48.6379C20.4781 45.4283 19.426 44.3678 19.4154 44.3576C19.1495 44.1009 19.1273 43.6715 19.3741 43.3968C19.6214 43.1218 20.0322 43.087 20.3132 43.3281C20.4754 43.4672 21.8036 44.7273 21.293 48.2256C23.3666 48.5832 30.0521 49.4283 34.5068 46.4614C34.8197 46.2527 35.242 46.3392 35.4503 46.6547C35.6577 46.9702 35.5717 47.3952 35.2584 47.6039C32.3987 49.5079 28.8201 50 25.8851 50Z" fill="black"></path><path d="M10.0501 35.0878H7.82098C7.44518 35.0878 7.14028 34.7812 7.14028 34.4028C7.14028 34.0244 7.44518 33.7178 7.82098 33.7178H10.0501C10.4259 33.7178 10.7308 34.0244 10.7308 34.4028C10.7308 34.7812 10.4259 35.0878 10.0501 35.0878Z" fill="black"></path><path d="M12.4422 43.592C12.0753 43.592 11.7079 43.5749 11.3409 43.5405C10.128 43.4266 8.93278 43.2165 7.97467 42.9492C7.32853 42.7688 6.78477 42.2892 6.52109 41.6664C6.26761 41.0686 6.2942 40.4046 6.59422 39.8449C6.68639 39.6734 6.79763 39.5287 6.92526 39.4141C7.54081 38.86 7.70256 38.1331 7.49915 37.7777C7.40343 37.6102 7.208 37.5072 7.06131 37.4503C6.18695 37.1123 5.69991 36.1934 5.92947 35.3131C6.00924 35.023 6.14618 34.7594 6.32655 34.5333C5.93878 34.2174 5.69105 33.7527 5.66579 33.24C5.63655 32.6462 5.83109 32.2478 5.99905 32.0179C6.15904 31.7989 6.20025 31.5088 6.20645 31.3041L6.25121 29.8534H2.68065C2.44666 29.8534 2.22907 29.7326 2.10454 29.5332C1.98001 29.3341 1.96583 29.0844 2.06687 28.8721C2.64785 27.6537 3.34938 26.4048 4.02831 25.1972C4.36112 24.6041 4.69438 24.0109 5.01434 23.4205C5.65604 22.2356 6.03096 20.9488 6.12801 19.5964C6.1546 19.2254 6.14352 18.8813 6.09832 18.5413C6.00525 17.8465 5.96359 17.3035 5.96359 16.7804C5.96359 15.7897 6.07438 14.8579 6.29287 13.9838C6.90443 11.5333 8.28222 7.98414 11.3746 4.99399C18.8756 -2.26017 29.2819 0.427173 30.4439 0.757402C34.9003 2.02325 38.3703 4.59999 40.478 8.2089C42.4195 11.534 43.3018 15.7456 42.7811 19.2006C42.6198 20.2718 42.3455 21.3903 41.9426 22.6196C41.8247 22.9786 41.441 23.175 41.0829 23.0555C40.7257 22.9371 40.532 22.5498 40.6495 22.1906C41.0284 21.0351 41.285 19.9898 41.4348 18.9953C41.9112 15.8366 41.0949 11.9694 39.3045 8.90303C37.378 5.60473 34.1859 3.24384 30.0738 2.07565C29.6413 1.95324 19.391 -0.858746 12.3177 5.98179C9.45882 8.74673 8.18118 12.041 7.61349 14.3178C7.42204 15.0831 7.32499 15.9023 7.32499 16.7534C7.32499 17.24 7.36266 17.7265 7.44731 18.3582C7.50536 18.7917 7.5191 19.2303 7.48808 19.6624C7.37463 21.2442 6.9452 22.7181 6.20999 24.0761C5.88648 24.673 5.54968 25.2721 5.21332 25.8715C4.72939 26.7326 4.23349 27.615 3.78368 28.4835H6.95362C7.13797 28.4835 7.31435 28.5586 7.44243 28.6917C7.5705 28.8248 7.63964 29.0046 7.63388 29.1899L7.56696 31.3467C7.54967 31.9187 7.38659 32.4315 7.09588 32.8298C7.04225 32.9027 7.01788 33.0211 7.02541 33.1722C7.03428 33.348 7.1752 33.5092 7.36887 33.5638L8.00481 33.7433C8.31192 33.83 8.51799 34.1197 8.5007 34.4401C8.48342 34.7605 8.24722 35.0259 7.93257 35.0785C7.59754 35.1347 7.32943 35.3594 7.24877 35.6513C7.19515 35.858 7.3312 36.087 7.55012 36.1715C8.05577 36.3675 8.44619 36.6866 8.67885 37.0942C9.24344 38.0807 8.88714 39.4861 7.83241 40.4356C7.83241 40.4356 7.81602 40.4509 7.79208 40.4958C7.65249 40.7562 7.72029 41.0044 7.77347 41.129C7.87628 41.3721 8.08767 41.5589 8.3385 41.6292C8.84991 41.7719 9.9361 42.0327 11.4677 42.1763C13.1996 42.3396 14.884 42.0823 16.475 41.4146C16.8215 41.2688 17.2204 41.4341 17.3653 41.783C17.5097 42.1322 17.3458 42.5333 16.9988 42.6789C15.5629 43.2819 14.0065 43.5918 12.4422 43.592Z" fill="black"></path><path d="M42.1138 43.704H32.8282C31.9277 43.704 31.0883 43.3115 30.5823 42.654C30.2109 42.1703 30.058 41.6267 30.1395 41.0818C30.1825 40.7941 30.2907 40.5107 30.4622 40.2324C29.3184 40.1874 28.3381 39.4215 28.109 38.3775C28.0576 38.1411 28.0416 37.9016 28.062 37.6648C28.0846 37.224 28.3048 36.8122 28.5894 36.4549C27.559 36.3849 26.6705 35.6937 26.4405 34.7596C26.3802 34.5135 26.3607 34.2613 26.3833 34.0098C26.417 33.643 26.538 33.296 26.729 32.9912H21.5781C20.2907 32.9912 19.1921 32.1352 18.9661 30.9556C18.9417 30.8312 18.9266 30.703 18.9209 30.5725C18.9102 30.3295 18.9324 30.0871 18.9865 29.8501C19.247 28.7238 20.3341 27.9082 21.5719 27.9082H21.5754L32.8291 27.9229L31.8661 27.2591C31.5085 27.0733 29.8089 26.1157 29.5962 24.5903C29.52 24.0424 29.7363 23.5093 30.1745 23.1636C30.6213 22.8113 31.2271 22.7244 31.754 22.9371L44.6367 28.1294C45.1459 28.3347 45.5944 28.6389 45.9702 29.0331C46.634 29.7297 47.0001 30.6397 47.0001 31.5951C47.0001 31.9735 46.6952 32.2801 46.3194 32.2801C45.9436 32.2801 45.6387 31.9735 45.6387 31.5951C45.6387 30.9949 45.4074 30.4218 44.9877 29.9814C44.7466 29.7286 44.4585 29.5335 44.1306 29.4012L31.2479 24.209C31.1318 24.163 31.0458 24.2165 31.0139 24.2422C30.9594 24.2852 30.9359 24.3385 30.9443 24.4C31.0502 25.1586 32.1426 25.8668 32.5167 26.055C32.5446 26.069 32.5729 26.0855 32.5986 26.1034L34.2539 27.2446C34.3638 27.3204 34.4493 27.427 34.4998 27.5514C34.678 27.9927 34.5991 28.4899 34.2929 28.8489C33.9911 29.2028 33.5572 29.3098 33.2408 29.2935L21.5736 29.2782H21.5719C20.9701 29.2782 20.429 29.6568 20.3128 30.1596C20.2867 30.2744 20.2756 30.393 20.2809 30.5108C20.2836 30.5719 20.2907 30.6336 20.3022 30.6943C20.4037 31.2234 20.9523 31.6212 21.5781 31.6212H28.9266C29.2474 31.6212 29.5249 31.8469 29.5922 32.1628C29.6596 32.4786 29.4983 32.7988 29.2054 32.931L28.397 33.2962C28.0186 33.457 27.7722 33.7756 27.7394 34.1342C27.7305 34.2325 27.738 34.3326 27.762 34.4303C27.8546 34.8067 28.2845 35.0908 28.7617 35.0908H30.3567C30.6337 35.0908 30.8832 35.2598 30.9873 35.5182C31.0914 35.7767 31.0298 36.073 30.8309 36.2672C30.7972 36.3 30.7179 36.3644 30.6049 36.45C29.5936 37.2133 29.4283 37.5982 29.4198 37.7596C29.4096 37.8811 29.4167 37.9824 29.4384 38.0829C29.5364 38.5282 30.0221 38.8645 30.569 38.8645H32.0974C32.3943 38.8645 32.6567 39.058 32.7462 39.3428C32.8362 39.6275 32.732 39.9377 32.4892 40.1096C31.8922 40.5323 31.5359 40.95 31.4859 41.2862C31.4695 41.3953 31.4695 41.5687 31.6591 41.8158C31.9086 42.1402 32.346 42.334 32.8282 42.334H42.1138C42.9607 42.334 43.7863 42.1012 44.5015 41.6606C45.2137 41.2225 45.6387 40.4726 45.6387 39.6543C45.6387 39.2759 45.9436 38.9693 46.3194 38.9693C46.6952 38.9693 47.0001 39.2759 47.0001 39.6543C47.0001 40.9535 46.3318 42.1405 45.2119 42.8293C44.2826 43.4014 43.2115 43.704 42.1138 43.704Z" fill="black"></path><path d="M19.8546 40.0123C14.9457 40.0123 10.9523 35.9938 10.9523 31.0541C10.9523 26.1145 14.9457 22.0959 19.8546 22.0959C21.8843 22.0959 23.7956 22.7656 25.3826 24.0321C25.6768 24.2673 25.7265 24.6981 25.4925 24.9944C25.2594 25.2906 24.8317 25.341 24.5361 25.1055C23.1929 24.033 21.574 23.4659 19.8546 23.4659C15.6964 23.4659 12.3137 26.8699 12.3137 31.0541C12.3137 35.2383 15.6964 38.6423 19.8546 38.6423C21.3192 38.6423 22.7391 38.2195 23.9605 37.4197C24.2756 37.2139 24.697 37.3031 24.9022 37.6204C25.1074 37.9375 25.0183 38.3618 24.7032 38.568C23.2603 39.5128 21.5833 40.0123 19.8546 40.0123Z" fill="black"></path><path d="M20.0797 36.0954C17.3175 36.0954 15.0707 33.8339 15.0707 31.0541C15.0707 28.2744 17.3175 26.0132 20.0797 26.0132C20.4555 26.0132 20.7604 26.3198 20.7604 26.6982C20.7604 27.0766 20.4555 27.3832 20.0797 27.3832C18.0682 27.3832 16.432 29.0299 16.432 31.0541C16.432 33.0785 18.0682 34.7254 20.0797 34.7254C20.8734 34.7254 21.6286 34.4721 22.2636 33.9927C22.5654 33.7661 22.9913 33.8272 23.2169 34.1298C23.4424 34.4324 23.3813 34.8619 23.0808 35.0889C22.2082 35.7473 21.1703 36.0954 20.0797 36.0954Z" fill="black"></path></g><defs><clipPath id="clip0_608_952"><rect width="50" height="50" fill="white"></rect></clipPath></defs></svg> 